{"glyphs":{"0":{"ha":856,"x_min":0,"x_max":0,"o":"m 428 -21 b 54 342 190 -21 54 118 l 54 646 b 428 1007 54 867 190 1007 b 800 646 664 1007 800 867 l 800 342 b 428 -21 800 118 664 -21 m 428 222 b 525 331 492 222 525 261 l 525 657 b 428 764 525 725 492 764 b 329 657 363 764 329 725 l 329 331 b 428 222 329 261 363 222 "},"1":{"ha":578,"x_min":0,"x_max":0,"o":"m 278 0 b 218 58 233 0 218 15 l 218 638 l 161 610 b 76 633 114 586 96 594 l 15 753 b 43 833 -4 792 4 811 l 268 963 b 351 986 300 981 315 986 l 435 986 b 493 928 479 986 493 971 l 493 58 b 435 0 493 15 479 0 l 278 0 "},"2":{"ha":806,"x_min":0,"x_max":0,"o":"m 99 0 b 44 58 60 0 44 15 l 44 201 b 293 514 44 390 174 457 b 486 672 390 561 486 567 b 414 763 486 732 467 763 b 315 678 365 763 342 743 b 243 640 297 635 282 628 l 89 690 b 56 764 50 703 40 724 b 414 1007 110 908 221 1007 b 763 685 633 1007 763 888 b 481 346 763 500 668 426 b 339 251 433 325 339 292 l 339 243 l 693 243 b 750 183 735 243 750 228 l 750 58 b 693 0 750 15 735 0 l 99 0 "},"3":{"ha":818,"x_min":0,"x_max":0,"o":"m 431 -21 b 42 222 217 -21 99 68 b 75 297 26 263 38 285 l 217 343 b 286 304 254 356 272 349 b 399 218 304 244 347 218 b 488 300 447 218 488 244 b 407 382 488 360 454 382 l 351 382 b 297 440 308 382 297 397 l 297 556 b 351 615 297 600 308 615 l 396 615 b 468 692 436 615 468 636 b 394 768 468 744 439 768 b 289 683 340 768 311 746 b 221 644 274 640 258 632 l 81 689 b 44 764 40 701 31 724 b 419 1007 99 919 199 1007 b 747 719 626 1007 747 892 b 649 517 747 632 711 563 b 775 283 732 467 775 383 b 431 -21 775 111 656 -21 "},"4":{"ha":853,"x_min":0,"x_max":0,"o":"m 510 0 b 456 58 468 0 456 15 l 456 196 l 75 196 b 21 254 36 196 21 211 l 21 346 b 47 443 21 392 19 407 l 425 944 b 513 986 450 978 467 986 l 663 986 b 715 928 701 986 715 971 l 715 410 l 775 410 b 829 351 814 410 829 394 l 829 254 b 775 196 829 211 814 196 l 715 196 l 715 58 b 663 0 715 15 701 0 l 510 0 m 458 410 l 458 644 l 297 410 "},"5":{"ha":811,"x_min":0,"x_max":0,"o":"m 417 -21 b 35 208 214 -21 88 51 b 68 282 21 250 31 269 l 221 333 b 296 299 256 344 276 342 b 400 226 318 249 342 226 b 490 329 450 226 490 260 b 393 424 490 392 444 424 l 129 424 b 72 492 82 424 67 444 l 111 904 b 201 988 117 967 139 988 l 681 988 b 735 928 722 988 735 972 l 735 803 b 681 744 735 758 722 744 l 358 744 l 351 649 l 428 649 b 775 318 672 649 775 503 b 417 -21 775 128 644 -21 "},"6":{"ha":857,"x_min":0,"x_max":0,"o":"m 433 -21 b 54 353 185 -21 54 114 l 54 633 b 438 1007 54 872 190 1007 b 800 786 633 1007 744 936 b 764 713 815 744 801 726 l 629 664 b 551 704 589 650 569 660 b 443 764 533 747 497 764 b 328 642 364 764 328 732 l 328 606 b 449 618 369 615 413 618 b 813 306 703 618 813 522 b 433 -21 813 94 669 -21 m 433 214 b 539 304 508 214 539 247 b 433 397 539 363 503 397 b 328 381 393 397 358 390 l 328 322 b 433 214 328 254 350 214 "},"7":{"ha":744,"x_min":0,"x_max":0,"o":"m 168 0 b 131 58 126 0 115 22 l 411 743 l 78 743 b 24 803 39 743 24 758 l 24 928 b 78 986 24 971 39 986 l 672 986 b 726 928 711 986 726 971 l 726 833 b 710 751 726 800 724 786 l 425 51 b 328 0 407 7 389 0 l 168 0 "},"8":{"ha":854,"x_min":0,"x_max":0,"o":"m 425 -21 b 42 263 147 -21 42 92 b 174 493 42 378 113 453 b 74 710 114 538 74 606 b 422 1007 74 899 204 1007 b 779 728 651 1007 779 906 b 693 524 779 628 735 564 b 811 289 758 476 811 403 b 425 -21 811 107 703 -21 m 460 604 b 507 704 486 625 507 657 b 428 778 507 750 476 778 b 351 704 372 778 351 750 b 431 615 351 654 379 635 l 460 604 m 425 206 b 525 286 493 206 525 239 b 371 399 525 351 488 363 b 315 289 340 376 315 343 b 425 206 315 236 351 206 "},"9":{"ha":857,"x_min":0,"x_max":0,"o":"m 419 -21 b 57 200 224 -21 113 50 b 93 274 42 242 56 260 l 228 322 b 306 282 268 336 288 326 b 414 222 324 239 360 222 b 529 344 493 222 529 254 l 529 381 b 408 368 488 371 444 368 b 44 681 154 368 44 464 b 424 1007 44 892 188 1007 b 803 633 672 1007 803 872 l 803 353 b 419 -21 803 114 667 -21 m 424 589 b 529 606 464 589 499 596 l 529 664 b 424 772 529 732 507 772 b 318 682 349 772 318 739 b 424 589 318 624 354 589 "}," ":{"ha":250,"x_min":0,"x_max":0,"o":""},"!":{"ha":394,"x_min":0,"x_max":0,"o":"m 140 324 b 88 376 100 324 89 338 l 65 975 b 118 1026 64 1014 79 1026 l 276 1026 b 329 975 317 1026 331 1014 l 306 376 b 253 324 304 338 293 324 l 140 324 m 163 -11 b 53 97 79 -11 53 15 l 53 146 b 163 254 53 228 79 254 l 232 254 b 342 146 314 254 342 228 l 342 97 b 232 -11 342 15 314 -11 l 163 -11 "},"\"":{"ha":569,"x_min":0,"x_max":0,"o":"m 106 619 b 57 664 65 619 57 624 l 57 939 b 106 986 57 979 65 986 l 226 986 b 275 939 267 986 279 979 l 246 664 b 190 619 242 624 232 619 l 106 619 m 357 619 b 308 664 317 619 308 624 l 308 939 b 357 986 308 979 317 986 l 478 986 b 526 939 518 986 531 979 l 497 664 b 442 619 493 624 483 619 l 357 619 "},"#":{"ha":993,"x_min":0,"x_max":0,"o":"m 149 0 b 108 53 108 0 99 14 l 139 182 l 74 182 b 35 235 35 182 24 196 l 74 350 b 146 399 83 388 104 399 l 208 399 l 243 533 l 175 533 b 136 585 135 533 124 547 l 174 700 b 243 749 186 739 204 749 l 310 749 l 343 882 b 410 935 353 919 371 935 l 521 935 b 561 882 563 935 571 919 l 526 749 l 642 749 l 675 882 b 743 935 685 919 703 935 l 853 935 b 892 882 892 935 900 921 l 858 749 l 925 749 b 964 697 967 749 975 735 l 928 582 b 856 533 917 546 897 533 l 792 533 l 757 399 l 826 399 b 865 347 865 399 878 385 l 826 232 b 756 182 817 194 797 182 l 689 182 l 658 53 b 592 0 650 15 629 0 l 482 0 b 442 53 442 0 433 15 l 472 182 l 358 182 l 326 53 b 260 0 317 14 300 0 l 149 0 m 538 399 l 572 533 l 457 533 l 424 399 "},"$":{"ha":829,"x_min":0,"x_max":0,"o":"m 339 -79 b 289 -25 301 -79 289 -65 l 289 31 b 42 222 157 51 76 115 b 75 296 29 261 39 283 l 210 340 b 285 310 246 353 268 351 b 408 244 303 265 340 244 b 519 311 483 244 519 261 b 407 381 519 358 474 371 b 43 683 268 401 43 428 b 289 957 43 831 128 926 l 289 1008 b 339 1061 289 1049 301 1061 l 493 1061 b 543 1008 531 1061 543 1049 l 543 957 b 767 788 654 936 724 879 b 736 713 785 749 775 728 l 596 657 b 528 688 560 643 553 650 b 415 749 497 733 461 749 b 319 686 346 749 319 729 b 443 615 319 639 372 625 b 793 314 582 596 793 572 b 543 33 793 161 703 65 l 543 -25 b 493 -79 543 -65 531 -79 l 339 -79 "},"%":{"ha":1213,"x_min":0,"x_max":0,"o":"m 275 471 b 35 685 115 471 35 553 l 35 789 b 275 1007 35 924 115 1007 b 511 789 433 1007 511 924 l 511 685 b 275 471 511 553 433 471 m 217 0 b 189 58 176 0 168 28 l 768 938 b 872 986 797 981 811 986 l 999 986 b 1026 931 1035 986 1046 960 l 447 51 b 336 0 415 4 403 0 l 217 0 m 272 649 b 322 700 306 649 322 667 l 322 776 b 272 826 322 810 306 826 b 221 776 238 826 221 810 l 221 700 b 272 649 221 667 238 649 m 942 -19 b 701 194 783 -19 701 61 l 701 299 b 942 517 701 433 783 517 b 1179 299 1100 517 1179 433 l 1179 194 b 942 -19 1179 61 1100 -19 m 940 158 b 990 210 975 158 990 176 l 990 286 b 940 336 990 319 975 336 b 889 286 906 336 889 319 l 889 210 b 940 158 889 176 906 158 "},"&":{"ha":913,"x_min":0,"x_max":0,"o":"m 333 -21 b 28 279 150 -21 28 94 b 186 553 28 393 99 497 b 119 732 144 604 119 667 b 397 1007 119 897 235 1007 b 664 747 549 1007 664 903 b 546 508 664 639 638 585 l 532 497 l 596 407 l 653 463 b 719 464 675 485 699 483 l 826 365 b 822 303 846 349 847 328 l 757 238 l 899 51 b 876 0 921 24 915 0 l 693 0 b 622 32 658 0 642 4 l 589 79 b 333 -21 496 -1 424 -21 m 401 669 b 453 750 439 699 453 722 b 401 808 453 785 432 808 b 349 744 372 808 349 781 b 383 656 349 714 358 690 m 346 196 b 426 240 378 196 407 217 l 326 389 b 267 286 283 353 267 321 b 346 196 267 232 300 196 "},"'":{"ha":317,"x_min":0,"x_max":0,"o":"m 106 619 b 57 664 65 619 57 624 l 57 939 b 106 986 57 979 65 986 l 226 986 b 275 939 267 986 279 979 l 246 664 b 190 619 242 624 232 619 l 106 619 "},"(":{"ha":442,"x_min":0,"x_max":0,"o":"m 267 -357 b 57 13 131 -297 57 -186 l 57 678 b 267 1047 57 876 131 988 b 339 1013 304 1064 319 1051 l 407 876 b 378 804 425 840 414 824 b 308 671 329 778 308 742 l 308 19 b 378 -114 308 -53 331 -86 b 407 -186 414 -135 425 -150 l 339 -324 b 267 -357 321 -361 304 -374 "},")":{"ha":442,"x_min":0,"x_max":0,"o":"m 174 -347 b 101 -314 136 -364 119 -351 l 33 -176 b 63 -104 15 -140 26 -124 b 132 29 111 -78 132 -43 l 132 681 b 63 814 132 751 110 786 b 33 886 26 835 15 850 l 101 1022 b 174 1057 121 1061 136 1074 b 383 688 310 997 383 886 l 383 22 b 174 -347 383 -176 310 -287 "},"*":{"ha":471,"x_min":0,"x_max":0,"o":"m 101 600 b 100 654 76 619 76 632 l 168 721 l 74 736 b 43 782 43 740 35 756 l 61 832 b 111 853 71 860 86 867 l 196 808 l 175 904 b 208 944 169 931 183 944 l 261 944 b 296 904 293 944 303 932 l 275 808 l 364 853 b 411 832 390 867 401 861 l 429 781 b 400 736 438 757 433 742 l 306 721 l 371 653 b 369 600 390 633 392 615 l 326 569 b 274 581 303 553 285 554 l 236 664 l 199 581 b 144 565 188 556 167 549 "},"+":{"ha":711,"x_min":0,"x_max":0,"o":"m 300 107 b 242 165 256 107 242 121 l 242 340 l 94 340 b 36 400 51 340 36 356 l 36 510 b 94 569 36 554 51 569 l 242 569 l 242 743 b 300 801 242 788 256 801 l 411 801 b 469 743 454 801 469 788 l 469 569 l 617 569 b 676 510 661 569 676 554 l 676 400 b 617 340 676 356 661 340 l 469 340 l 469 165 b 411 107 469 121 454 107 l 300 107 "},",":{"ha":363,"x_min":0,"x_max":0,"o":"m 64 -164 b 25 -124 29 -164 21 -156 l 63 176 b 135 247 69 228 86 247 l 268 247 b 322 176 325 247 338 222 l 228 -111 b 154 -164 215 -149 197 -164 l 64 -164 "},"-":{"ha":544,"x_min":0,"x_max":0,"o":"m 118 263 b 60 321 75 263 60 276 l 60 439 b 118 497 60 483 75 497 l 426 497 b 485 439 469 497 485 483 l 485 321 b 426 263 485 276 469 263 l 118 263 "},".":{"ha":365,"x_min":0,"x_max":0,"o":"m 157 -11 b 47 97 74 -11 47 15 l 47 154 b 157 264 47 236 74 264 l 210 264 b 319 154 292 264 319 236 l 319 97 b 210 -11 319 15 292 -11 l 157 -11 "},"/":{"ha":685,"x_min":0,"x_max":0,"o":"m 65 -83 b 31 -35 26 -83 18 -68 l 393 938 b 464 986 407 976 424 986 l 619 986 b 654 938 658 986 667 972 l 293 -35 b 222 -83 278 -72 261 -83 l 65 -83 "},":":{"ha":394,"x_min":0,"x_max":0,"o":"m 171 419 b 61 528 88 419 61 446 l 61 585 b 171 694 61 667 88 694 l 224 694 b 333 585 306 694 333 667 l 333 528 b 224 419 333 446 306 419 l 171 419 m 171 -11 b 61 97 88 -11 61 15 l 61 154 b 171 264 61 236 88 264 l 224 264 b 333 154 306 264 333 236 l 333 97 b 224 -11 333 15 306 -11 l 171 -11 "},";":{"ha":396,"x_min":0,"x_max":0,"o":"m 183 419 b 74 528 100 419 74 446 l 74 585 b 183 694 74 667 100 694 l 236 694 b 346 585 318 694 346 667 l 346 528 b 236 419 346 446 318 419 l 183 419 m 72 -164 b 33 -124 38 -164 29 -156 l 71 176 b 143 247 78 228 94 247 l 276 247 b 331 176 333 247 346 222 l 236 -111 b 163 -164 224 -149 206 -164 l 72 -164 "},"<":{"ha":618,"x_min":0,"x_max":0,"o":"m 79 328 b 32 400 44 350 32 360 l 32 507 b 79 579 32 546 44 557 l 493 840 b 554 797 536 868 554 847 l 554 661 b 500 565 554 597 540 588 l 304 457 l 304 450 l 500 343 b 554 247 540 321 554 311 l 554 110 b 493 65 554 58 538 38 "},"=":{"ha":757,"x_min":0,"x_max":0,"o":"m 124 490 b 65 549 81 490 65 506 l 65 667 b 124 726 65 711 81 726 l 632 726 b 692 667 676 726 692 711 l 692 549 b 632 490 692 506 676 490 l 124 490 m 124 181 b 65 240 81 181 65 196 l 65 358 b 124 417 65 401 81 417 l 632 417 b 692 358 676 417 692 401 l 692 240 b 632 181 692 196 676 181 l 124 181 "},">":{"ha":618,"x_min":0,"x_max":0,"o":"m 125 65 b 64 110 81 38 64 58 l 64 247 b 118 343 64 311 78 321 l 314 450 l 314 457 l 118 565 b 64 661 78 588 64 597 l 64 797 b 125 840 64 847 82 868 l 539 579 b 586 507 574 557 586 546 l 586 400 b 539 328 586 360 574 350 l 125 65 "},"?":{"ha":750,"x_min":0,"x_max":0,"o":"m 272 301 b 217 357 231 301 217 314 b 333 581 217 489 274 542 b 453 735 399 624 453 643 b 367 814 453 781 428 814 b 254 715 321 814 289 796 b 179 678 236 672 221 663 l 72 718 b 36 793 32 733 19 753 b 378 1028 93 938 199 1028 b 717 756 585 1028 717 925 b 510 460 717 572 589 517 b 454 357 478 438 454 390 b 399 301 454 314 439 301 l 272 301 m 306 -11 b 196 97 222 -11 196 15 l 196 146 b 306 254 196 228 222 254 l 368 254 b 478 146 450 254 478 228 l 478 97 b 368 -11 478 15 450 -11 l 306 -11 "},"@":{"ha":1201,"x_min":0,"x_max":0,"o":"m 594 -183 b 43 340 232 -183 43 10 l 43 472 b 594 1007 43 803 232 1007 b 1154 458 961 1007 1154 789 l 1154 354 b 911 50 1154 160 1044 50 b 790 101 853 50 826 63 b 558 67 725 79 631 67 b 304 311 383 67 304 157 l 304 500 b 558 746 304 656 383 746 b 828 700 678 746 771 724 b 869 632 865 685 869 672 l 869 256 b 907 214 869 224 885 214 b 974 351 940 214 974 246 l 974 461 b 594 849 974 701 844 849 b 222 475 349 849 222 715 l 222 338 b 594 -24 222 96 349 -24 b 847 1 682 -24 792 -8 b 894 -28 888 8 894 4 l 894 -104 b 851 -156 894 -140 886 -147 b 594 -183 807 -167 738 -183 m 576 239 b 678 247 631 239 674 243 l 678 553 b 668 565 678 558 675 564 b 576 574 650 571 617 574 b 494 496 517 574 494 550 l 494 315 b 576 239 494 261 517 239 "},"A":{"ha":900,"x_min":0,"x_max":0,"o":"m 39 0 b 6 57 1 0 -7 19 l 290 938 b 360 986 303 978 321 986 l 538 986 b 606 940 575 986 594 976 l 894 57 b 856 0 907 19 894 0 l 700 0 b 599 58 629 0 608 15 l 574 160 l 317 160 l 289 58 b 193 0 278 15 260 0 l 39 0 m 521 378 l 481 539 b 451 733 464 608 454 690 l 440 733 b 413 540 438 690 429 607 l 374 378 "},"B":{"ha":858,"x_min":0,"x_max":0,"o":"m 124 0 b 69 58 85 0 69 15 l 69 926 b 124 986 69 971 85 986 l 493 986 b 792 724 672 986 792 888 b 692 518 792 631 765 574 l 692 514 b 828 275 775 474 828 396 b 504 0 828 103 710 0 l 124 0 m 440 607 b 519 685 488 607 519 631 b 440 764 519 739 488 764 l 344 764 l 344 607 m 469 225 b 550 310 515 225 550 251 b 469 392 550 369 515 392 l 344 392 l 344 225 "},"C":{"ha":849,"x_min":0,"x_max":0,"o":"m 444 -21 b 46 368 189 -21 46 128 l 46 618 b 444 1007 46 858 189 1007 b 819 763 646 1007 767 917 b 783 688 833 722 822 700 l 636 642 b 567 679 594 629 581 636 b 446 764 546 742 506 764 b 321 619 358 764 321 722 l 321 367 b 447 222 321 264 358 222 b 567 307 507 222 547 247 b 638 346 581 350 597 358 l 788 299 b 824 224 826 286 838 264 b 444 -21 769 68 646 -21 "},"D":{"ha":894,"x_min":0,"x_max":0,"o":"m 124 0 b 69 58 85 0 69 15 l 69 928 b 124 986 69 971 85 986 l 443 986 b 849 597 704 986 849 838 l 849 389 b 443 0 849 150 704 0 l 124 0 m 422 243 b 574 393 539 243 574 294 l 574 593 b 422 743 574 692 539 743 l 344 743 l 344 243 "},"E":{"ha":778,"x_min":0,"x_max":0,"o":"m 128 0 b 69 58 85 0 69 15 l 69 928 b 128 986 69 971 85 986 l 672 986 b 731 928 717 986 731 971 l 731 803 b 672 743 731 758 717 743 l 344 743 l 344 619 l 599 619 b 657 561 643 619 657 604 l 657 436 b 599 376 657 392 643 376 l 344 376 l 344 243 l 683 243 b 743 185 728 243 743 229 l 743 58 b 683 0 743 15 728 0 l 128 0 "},"F":{"ha":764,"x_min":0,"x_max":0,"o":"m 128 0 b 69 58 85 0 69 15 l 69 928 b 128 986 69 971 85 986 l 676 986 b 735 928 721 986 735 971 l 735 803 b 676 743 735 758 721 743 l 344 743 l 344 582 l 603 582 b 661 524 647 582 661 567 l 661 399 b 603 339 661 354 647 339 l 344 339 l 344 58 b 286 0 344 15 329 0 l 128 0 "},"G":{"ha":890,"x_min":0,"x_max":0,"o":"m 447 -21 b 46 368 192 -21 46 128 l 46 618 b 447 1007 46 858 192 1007 b 833 764 649 1007 779 919 b 797 689 847 724 836 701 l 644 642 b 574 679 604 629 589 636 b 450 764 553 742 513 764 b 321 619 350 764 321 717 l 321 367 b 457 222 321 269 357 222 b 579 317 543 222 579 257 l 579 344 l 464 344 b 410 403 422 344 410 358 l 410 507 b 464 567 410 551 422 567 l 793 567 b 850 507 835 567 850 551 l 850 324 b 447 -21 850 128 710 -21 "},"H":{"ha":914,"x_min":0,"x_max":0,"o":"m 128 0 b 69 58 85 0 69 15 l 69 926 b 128 986 69 971 85 986 l 286 986 b 344 926 329 986 344 971 l 344 621 l 569 621 l 569 926 b 628 986 569 971 583 986 l 785 986 b 844 926 829 986 844 971 l 844 58 b 785 0 844 15 829 0 l 628 0 b 569 58 583 0 569 15 l 569 378 l 344 378 l 344 58 b 286 0 344 15 329 0 l 128 0 "},"I":{"ha":415,"x_min":0,"x_max":0,"o":"m 125 0 b 69 56 83 0 69 14 l 69 931 b 125 986 69 972 83 986 l 289 986 b 344 931 331 986 344 972 l 344 56 b 289 0 344 14 331 0 l 125 0 "},"J":{"ha":772,"x_min":0,"x_max":0,"o":"m 350 -21 b 8 214 168 -21 64 67 b 42 286 -7 254 6 274 l 193 338 b 268 303 232 351 253 344 b 360 222 288 247 318 222 b 433 342 414 222 433 261 l 433 928 b 489 986 433 971 447 986 l 656 986 b 708 928 697 986 708 971 l 708 343 b 350 -21 708 93 596 -21 "},"K":{"ha":868,"x_min":0,"x_max":0,"o":"m 128 0 b 69 58 85 0 69 15 l 69 928 b 128 986 69 971 85 986 l 286 986 b 344 928 329 986 344 971 l 344 618 l 367 618 l 390 618 l 543 935 b 644 986 564 979 574 986 l 801 986 b 835 925 843 986 854 961 l 619 522 b 694 414 656 499 672 463 l 854 68 b 818 0 871 31 864 0 l 675 0 b 561 58 601 0 582 8 l 456 306 b 363 375 436 351 415 375 l 344 375 l 344 58 b 286 0 344 15 329 0 l 128 0 "},"L":{"ha":718,"x_min":0,"x_max":0,"o":"m 128 0 b 69 58 85 0 69 15 l 69 928 b 128 986 69 971 85 986 l 286 986 b 344 928 329 986 344 971 l 344 243 l 643 243 b 703 185 688 243 703 229 l 703 58 b 643 0 703 15 688 0 l 128 0 "},"M":{"ha":1089,"x_min":0,"x_max":0,"o":"m 124 0 b 69 57 85 0 69 14 l 69 928 b 124 986 69 972 85 986 l 276 986 b 353 943 322 986 338 979 l 542 494 l 732 942 b 804 986 749 981 763 986 l 965 986 b 1019 928 1007 986 1019 972 l 1019 57 b 965 0 1019 14 1007 0 l 807 0 b 749 57 764 0 749 14 l 749 244 b 804 619 749 336 739 428 l 790 619 b 711 393 768 556 732 449 l 653 239 b 590 199 642 211 628 199 l 489 199 b 425 239 453 199 436 208 l 367 393 b 293 619 347 444 315 549 l 279 619 b 331 243 332 419 331 339 l 331 57 b 275 0 331 14 318 0 l 124 0 "},"N":{"ha":926,"x_min":0,"x_max":0,"o":"m 125 0 b 69 58 85 0 69 15 l 69 928 b 125 986 69 971 85 986 l 308 986 b 361 958 336 986 351 978 l 538 621 b 646 349 590 519 608 454 l 658 349 b 593 700 624 478 593 560 l 593 928 b 650 986 593 971 607 986 l 800 986 b 857 928 842 986 857 971 l 857 58 b 800 0 857 15 842 0 l 631 0 b 576 29 600 0 588 8 l 410 354 b 300 643 358 456 343 511 l 289 643 b 331 285 317 525 331 439 l 331 58 b 275 0 331 15 318 0 l 125 0 "},"O":{"ha":897,"x_min":0,"x_max":0,"o":"m 447 -21 b 46 368 189 -21 46 128 l 46 618 b 447 1007 46 858 189 1007 b 850 618 707 1007 850 858 l 850 368 b 447 -21 850 128 707 -21 m 447 222 b 575 356 531 222 575 268 l 575 631 b 447 764 575 718 531 764 b 321 631 365 764 321 718 l 321 356 b 447 222 321 268 365 222 "},"P":{"ha":851,"x_min":0,"x_max":0,"o":"m 128 0 b 69 58 85 0 69 15 l 69 928 b 128 986 69 971 85 986 l 467 986 b 822 639 682 986 822 860 b 468 296 822 419 685 296 l 344 296 l 344 58 b 286 0 344 15 329 0 l 128 0 m 443 539 b 547 640 508 539 547 579 b 443 743 547 699 510 743 l 344 743 l 344 539 "},"Q":{"ha":917,"x_min":0,"x_max":0,"o":"m 586 -4 b 447 -21 544 -15 499 -21 b 46 368 189 -21 46 128 l 46 618 b 447 1007 46 858 189 1007 b 850 618 707 1007 850 858 l 850 368 b 790 139 850 278 829 200 l 863 49 b 856 -35 890 15 889 -4 l 754 -115 b 672 -108 721 -142 700 -142 m 447 222 b 575 356 531 222 575 268 l 575 631 b 447 764 575 718 531 764 b 321 631 365 764 321 718 l 321 356 b 447 222 321 268 365 222 "},"R":{"ha":871,"x_min":0,"x_max":0,"o":"m 128 0 b 69 58 85 0 69 15 l 69 928 b 128 986 69 971 85 986 l 478 986 b 822 654 688 986 822 869 b 674 383 822 518 764 436 b 711 319 686 365 700 342 l 836 68 b 800 0 856 31 846 0 l 642 0 b 531 67 574 0 551 18 l 449 257 b 358 328 428 304 407 328 l 344 328 l 344 58 b 286 0 344 15 329 0 l 128 0 m 456 560 b 547 653 515 560 547 596 b 456 743 547 708 515 743 l 344 743 l 344 560 "},"S":{"ha":849,"x_min":0,"x_max":0,"o":"m 417 -21 b 36 194 233 -21 85 50 b 69 269 22 236 31 256 l 208 318 b 288 286 249 332 268 329 b 417 214 308 239 354 214 b 540 293 499 214 540 233 b 400 376 540 347 482 365 b 39 696 254 396 39 435 b 425 1007 39 879 181 1007 b 790 811 614 1007 726 943 b 757 733 810 771 797 749 l 618 679 b 547 710 582 665 567 669 b 425 776 522 763 467 776 b 318 704 351 776 318 754 b 479 618 318 635 392 629 b 821 294 624 600 821 557 b 417 -21 821 90 654 -21 "},"T":{"ha":799,"x_min":0,"x_max":0,"o":"m 321 0 b 263 58 278 0 263 15 l 263 743 l 75 743 b 17 803 32 743 17 758 l 17 928 b 75 986 17 971 32 986 l 725 986 b 783 928 768 986 783 971 l 783 803 b 725 743 783 758 768 743 l 538 743 l 538 58 b 479 0 538 15 522 0 l 321 0 "},"U":{"ha":915,"x_min":0,"x_max":0,"o":"m 457 -21 b 63 363 199 -21 63 129 l 63 928 b 117 986 63 971 78 986 l 283 986 b 338 928 322 986 338 971 l 338 350 b 457 222 338 268 376 222 b 579 350 540 222 579 268 l 579 928 b 633 986 579 971 592 986 l 797 986 b 854 928 839 986 854 971 l 854 363 b 457 -21 854 129 717 -21 "},"V":{"ha":901,"x_min":0,"x_max":0,"o":"m 353 0 b 285 46 314 0 297 8 l 8 929 b 47 986 -4 967 10 986 l 210 986 b 308 928 288 986 297 971 l 422 478 b 451 274 439 418 449 326 l 464 274 b 488 478 465 326 472 418 l 600 928 b 693 986 611 971 629 986 l 858 986 b 894 929 900 986 906 967 l 621 49 b 553 0 608 8 588 0 l 353 0 "},"W":{"ha":1247,"x_min":0,"x_max":0,"o":"m 294 0 b 225 46 258 0 233 8 l 19 929 b 53 986 10 968 13 986 l 235 986 b 308 935 282 986 301 978 l 363 571 b 378 325 372 499 379 364 l 389 325 b 408 571 388 367 393 496 l 483 935 b 558 986 492 979 515 986 l 701 986 b 775 935 744 986 767 978 l 842 571 b 865 325 856 492 865 367 l 876 325 b 892 571 876 364 879 494 l 946 935 b 1014 986 951 978 968 986 l 1189 986 b 1229 929 1231 986 1239 968 l 1019 49 b 951 0 1010 8 989 0 l 776 0 b 707 46 738 0 714 10 l 650 369 b 628 619 635 457 626 540 l 615 619 b 588 369 611 540 604 460 l 531 49 b 463 0 522 8 500 0 l 294 0 "},"X":{"ha":868,"x_min":0,"x_max":0,"o":"m 40 0 b 13 58 1 0 -8 24 l 269 503 l 26 931 b 53 986 8 963 17 986 l 229 986 b 329 936 297 986 310 979 l 432 707 l 539 936 b 635 986 560 982 578 986 l 815 986 b 842 931 854 986 860 961 l 599 503 l 857 58 b 826 0 876 26 868 0 l 647 0 b 539 53 576 0 561 4 l 431 294 l 321 53 b 207 0 300 6 293 0 l 40 0 "},"Y":{"ha":882,"x_min":0,"x_max":0,"o":"m 360 0 b 306 58 318 0 306 15 l 306 374 l 11 928 b 40 986 -6 960 -1 986 l 221 986 b 322 933 288 986 301 982 l 443 646 l 567 932 b 668 986 589 983 603 986 l 843 986 b 871 928 885 986 888 960 l 581 374 l 581 58 b 525 0 581 15 567 0 l 360 0 "},"Z":{"ha":803,"x_min":0,"x_max":0,"o":"m 90 0 b 36 58 51 0 36 15 l 36 143 b 54 201 36 167 42 183 l 410 743 l 97 743 b 43 803 57 743 43 758 l 43 928 b 97 986 43 971 57 986 l 704 986 b 758 928 747 986 758 971 l 758 844 b 743 783 758 818 756 801 l 386 243 l 711 243 b 765 185 753 243 765 229 l 765 58 b 711 0 765 15 753 0 l 90 0 "},"[":{"ha":464,"x_min":0,"x_max":0,"o":"m 122 -350 b 69 -297 79 -350 69 -342 l 69 990 b 122 1043 69 1033 79 1043 l 389 1043 b 440 992 433 1043 440 1036 l 440 896 b 389 844 440 851 433 844 l 318 844 l 318 -149 l 389 -149 b 440 -200 433 -149 440 -156 l 440 -299 b 389 -350 440 -343 433 -350 l 122 -350 "},"\\":{"ha":596,"x_min":0,"x_max":0,"o":"m 381 -83 b 310 -35 342 -83 321 -72 l 31 938 b 65 986 21 971 26 986 l 215 986 b 286 938 256 986 275 976 l 567 -35 b 532 -83 576 -68 571 -83 l 381 -83 "},"]":{"ha":464,"x_min":0,"x_max":0,"o":"m 75 -350 b 24 -299 32 -350 24 -343 l 24 -200 b 75 -149 24 -156 32 -149 l 147 -149 l 147 844 l 75 844 b 24 896 32 844 24 851 l 24 992 b 75 1043 24 1036 32 1043 l 342 1043 b 394 990 386 1043 394 1033 l 394 -297 b 342 -350 394 -342 386 -350 l 75 -350 "},"^":{"ha":828,"x_min":0,"x_max":0,"o":"m 83 722 b 54 785 32 722 22 744 l 279 1078 b 369 1125 307 1114 325 1125 l 458 1125 b 547 1078 507 1125 519 1114 l 771 789 b 744 722 803 749 794 722 l 597 722 b 486 769 532 722 513 726 l 414 886 l 410 886 l 335 769 b 218 722 306 724 282 722 l 83 722 "},"_":{"ha":674,"x_min":0,"x_max":0,"o":"m 76 -235 b 18 -176 33 -235 18 -221 l 18 -58 b 76 0 18 -15 33 0 l 597 0 b 657 -58 642 0 657 -15 l 657 -176 b 597 -235 657 -221 642 -235 l 76 -235 "},"`":{"ha":357,"x_min":0,"x_max":0,"o":"m 17 883 b 10 939 -17 896 -14 911 l 83 1017 b 175 1019 111 1047 143 1039 l 368 903 b 371 850 393 889 393 876 l 332 804 b 267 800 317 786 300 789 "},"a":{"ha":700,"x_min":0,"x_max":0,"o":"m 343 -21 b 29 210 119 -21 29 44 b 343 440 29 375 119 440 b 394 439 357 440 378 440 l 394 482 b 340 546 394 533 371 546 b 268 499 308 546 285 524 b 193 481 251 474 240 463 l 88 521 b 60 594 53 533 40 554 b 353 743 107 690 201 743 b 651 457 565 743 651 642 l 651 101 b 601 18 651 50 640 35 b 343 -21 549 -6 464 -21 m 340 156 b 388 158 358 156 372 156 b 394 167 393 160 394 161 l 394 267 b 343 268 376 268 357 268 b 282 211 301 268 282 250 b 340 156 282 174 300 156 "},"b":{"ha":728,"x_min":0,"x_max":0,"o":"m 368 -21 b 106 26 249 -21 153 3 b 56 108 63 49 56 61 l 56 975 b 106 1028 56 1015 69 1028 l 265 1028 b 314 975 303 1028 314 1015 l 314 735 b 389 743 336 739 365 743 b 689 444 589 743 689 640 l 689 294 b 368 -21 689 88 582 -21 m 367 204 b 431 281 411 204 431 231 l 431 450 b 367 519 431 496 411 519 b 315 511 347 519 333 517 l 315 218 b 321 210 315 214 317 211 b 367 204 336 206 346 204 "},"c":{"ha":682,"x_min":0,"x_max":0,"o":"m 349 -21 b 39 286 132 -21 39 96 l 39 438 b 363 743 39 625 138 743 b 653 550 528 743 618 657 b 619 476 667 508 658 486 l 485 440 b 414 479 444 429 428 438 b 351 526 400 521 376 526 b 297 451 314 526 297 499 l 297 271 b 349 196 297 224 311 196 b 418 250 376 196 404 208 b 488 286 433 292 447 299 l 619 246 b 654 171 658 233 672 214 b 349 -21 607 50 515 -21 "},"d":{"ha":728,"x_min":0,"x_max":0,"o":"m 360 -21 b 39 294 146 -21 39 88 l 39 444 b 339 743 39 640 139 743 b 414 735 363 743 392 739 l 414 975 b 463 1028 414 1015 425 1028 l 622 1028 b 672 975 658 1028 672 1015 l 672 108 b 622 26 672 61 665 49 b 360 -21 575 3 479 -21 m 361 204 b 407 210 382 204 392 206 b 413 218 411 211 413 214 l 413 511 b 361 519 394 517 381 519 b 297 450 317 519 297 496 l 297 281 b 361 204 297 231 317 204 "},"e":{"ha":721,"x_min":0,"x_max":0,"o":"m 358 -21 b 38 294 126 -21 38 113 l 38 426 b 365 743 38 635 153 743 b 689 439 597 743 689 606 l 689 363 b 617 290 689 318 671 290 l 296 290 l 296 264 b 369 174 296 199 317 174 b 461 218 407 174 442 179 b 519 236 475 246 482 250 l 635 194 b 661 117 674 181 681 156 b 358 -21 615 25 518 -21 m 433 458 l 433 476 b 361 560 433 536 411 560 b 296 476 314 560 296 536 l 296 458 "},"f":{"ha":506,"x_min":0,"x_max":0,"o":"m 158 0 b 108 53 119 0 108 14 l 108 511 l 69 511 b 21 565 35 511 21 525 l 21 669 b 69 722 21 708 35 722 l 108 722 l 108 725 b 410 1028 108 933 224 1028 l 438 1028 b 492 974 476 1028 492 1014 l 492 872 b 438 817 492 831 476 817 b 365 728 390 817 365 788 l 365 722 l 443 722 b 494 669 481 722 494 708 l 494 565 b 443 511 494 525 481 511 l 365 511 l 365 53 b 314 0 365 14 354 0 l 158 0 "},"g":{"ha":724,"x_min":0,"x_max":0,"o":"m 357 -322 b 60 -179 206 -322 118 -271 b 88 -100 36 -142 50 -117 l 211 -44 b 276 -61 249 -28 264 -37 b 346 -107 292 -87 307 -107 b 410 -28 393 -107 410 -79 l 410 28 b 332 19 386 24 356 19 b 38 318 135 19 38 129 l 38 436 b 354 743 38 639 144 743 b 611 700 474 743 563 725 b 668 615 653 679 668 661 l 668 -7 b 357 -322 668 -192 589 -322 m 354 243 b 410 250 383 243 393 244 l 410 504 b 404 511 410 508 408 510 b 360 519 394 515 382 519 b 297 447 315 519 297 500 l 297 313 b 354 243 297 263 319 243 "},"h":{"ha":743,"x_min":0,"x_max":0,"o":"m 108 0 b 58 53 72 0 58 14 l 58 975 b 108 1028 58 1014 72 1028 l 264 1028 b 314 975 303 1028 314 1014 l 317 736 b 403 743 346 742 368 743 b 693 456 613 743 693 640 l 693 53 b 640 0 693 14 678 0 l 486 0 b 435 53 449 0 435 14 l 435 433 b 367 511 435 486 417 511 b 317 504 342 511 333 508 l 317 53 b 267 0 317 14 306 0 l 108 0 "},"i":{"ha":374,"x_min":0,"x_max":0,"o":"m 151 803 b 49 904 74 803 49 826 l 49 919 b 151 1021 49 997 72 1021 l 221 1021 b 324 919 300 1021 324 997 l 324 904 b 221 803 324 826 300 803 l 151 803 m 110 0 b 57 53 71 0 57 14 l 57 669 b 110 722 57 708 71 722 l 263 722 b 315 669 303 722 315 708 l 315 53 b 263 0 315 14 303 0 l 110 0 "},"j":{"ha":376,"x_min":0,"x_max":0,"o":"m 153 803 b 50 904 75 803 50 826 l 50 919 b 153 1021 50 997 74 1021 l 222 1021 b 325 919 301 1021 325 997 l 325 904 b 222 803 325 826 301 803 l 153 803 m -7 -319 b -61 -265 -47 -319 -61 -306 l -61 -147 b -7 -92 -61 -106 -47 -92 b 58 3 61 -92 58 -57 l 58 669 b 114 722 58 708 72 722 l 263 722 b 318 669 304 722 318 708 l 318 -14 b -7 -319 318 -226 228 -319 "},"k":{"ha":732,"x_min":0,"x_max":0,"o":"m 111 0 b 58 54 69 0 58 14 l 58 974 b 111 1028 58 1014 69 1028 l 264 1028 b 315 974 303 1028 315 1014 l 317 472 l 335 472 l 340 472 l 435 672 b 531 722 456 715 472 722 l 653 722 b 697 654 707 722 719 697 l 561 390 b 597 329 574 374 586 354 l 707 71 b 665 0 728 21 721 0 l 525 0 b 439 53 475 0 454 10 l 381 215 b 328 261 369 247 358 261 l 315 261 l 315 54 b 264 0 315 14 303 0 l 111 0 "},"l":{"ha":378,"x_min":0,"x_max":0,"o":"m 113 0 b 60 53 74 0 60 14 l 60 975 b 113 1028 60 1014 74 1028 l 265 1028 b 318 975 306 1028 318 1014 l 318 53 b 265 0 318 14 306 0 l 113 0 "},"m":{"ha":1075,"x_min":0,"x_max":0,"o":"m 106 0 b 56 53 69 0 56 14 l 56 608 b 110 692 56 654 65 674 b 385 743 168 715 254 743 b 543 707 449 743 501 731 b 735 743 592 726 657 743 b 1025 443 936 743 1025 632 l 1025 53 b 972 0 1025 14 1011 0 l 817 0 b 765 53 778 0 765 14 l 765 436 b 707 510 765 486 750 510 b 665 503 696 510 678 507 b 668 439 667 483 668 461 l 668 53 b 617 0 668 14 654 0 l 461 0 b 410 53 422 0 410 14 l 410 436 b 354 510 410 486 393 510 b 319 506 349 510 329 508 b 314 497 315 504 314 501 l 314 53 b 264 0 314 14 303 0 l 106 0 "},"n":{"ha":739,"x_min":0,"x_max":0,"o":"m 106 0 b 56 53 69 0 56 14 l 56 608 b 110 692 56 654 67 674 b 389 743 168 715 254 743 b 689 443 593 743 689 632 l 689 53 b 638 0 689 14 675 0 l 482 0 b 429 53 444 0 429 14 l 429 433 b 364 510 429 488 408 510 b 318 504 346 510 332 508 b 314 499 315 503 314 501 l 314 53 b 264 0 314 14 303 0 l 106 0 "},"o":{"ha":729,"x_min":0,"x_max":0,"o":"m 365 -21 b 39 283 153 -21 39 94 l 39 439 b 365 743 39 628 153 743 b 692 439 579 743 692 628 l 692 283 b 365 -21 692 94 579 -21 m 365 203 b 433 276 413 203 433 226 l 433 446 b 365 521 433 497 413 521 b 297 446 318 521 297 497 l 297 276 b 365 203 297 226 318 203 "},"p":{"ha":728,"x_min":0,"x_max":0,"o":"m 106 -304 b 56 -251 69 -304 56 -292 l 56 614 b 106 696 56 661 63 674 b 368 743 153 719 249 743 b 689 428 582 743 689 635 l 689 278 b 389 -21 689 82 589 -21 b 314 -12 365 -21 336 -17 l 314 -251 b 265 -304 314 -292 303 -304 l 106 -304 m 367 204 b 431 272 411 204 431 225 l 431 442 b 367 519 431 494 411 519 b 321 514 346 519 338 518 b 315 504 317 513 315 508 l 315 211 b 367 204 333 206 347 204 "},"q":{"ha":728,"x_min":0,"x_max":0,"o":"m 463 -304 b 414 -251 425 -304 414 -292 l 414 -12 b 339 -21 392 -17 363 -21 b 39 278 139 -21 39 82 l 39 428 b 360 743 39 635 146 743 b 622 696 479 743 575 719 b 672 614 665 674 672 661 l 672 -251 b 622 -304 672 -292 658 -304 l 463 -304 m 361 204 b 413 211 381 204 394 206 l 413 504 b 407 514 413 508 411 513 b 361 519 390 518 382 519 b 297 442 317 519 297 494 l 297 272 b 361 204 297 225 317 204 "},"r":{"ha":503,"x_min":0,"x_max":0,"o":"m 108 0 b 56 53 69 0 56 14 l 56 594 b 113 678 56 640 67 660 b 367 722 165 699 232 722 l 440 722 b 493 669 479 722 493 708 l 493 551 b 440 497 493 511 479 497 l 385 497 b 322 490 361 497 340 496 b 314 481 315 489 314 485 l 314 53 b 261 0 314 14 301 0 l 108 0 "},"s":{"ha":682,"x_min":0,"x_max":0,"o":"m 353 -21 b 35 143 185 -21 72 36 b 67 215 21 181 31 203 l 178 256 b 244 233 222 272 232 258 b 339 190 260 207 282 190 b 418 233 397 190 418 203 b 297 283 418 269 394 278 b 32 510 114 294 32 356 b 328 743 32 658 150 743 b 619 592 488 743 576 682 b 593 515 638 556 636 532 l 483 472 b 415 492 440 456 433 465 b 340 532 400 514 382 532 b 268 493 283 532 268 519 b 364 446 268 464 285 451 b 656 225 603 429 654 350 b 353 -21 654 71 542 -21 "},"t":{"ha":513,"x_min":0,"x_max":0,"o":"m 428 0 b 104 310 185 0 104 76 l 104 511 l 63 511 b 10 565 22 511 10 525 l 10 669 b 63 722 10 708 22 722 l 104 722 l 104 836 b 158 889 104 875 118 889 l 310 889 b 364 836 350 889 364 875 l 364 722 l 432 722 b 485 669 472 722 485 708 l 485 565 b 432 511 485 525 472 511 l 364 511 l 364 328 b 431 231 364 251 372 231 b 485 176 472 231 485 218 l 485 57 b 428 0 485 15 469 0 "},"u":{"ha":739,"x_min":0,"x_max":0,"o":"m 351 -21 b 51 279 147 -21 51 90 l 51 669 b 103 722 51 708 65 722 l 258 722 b 311 669 296 722 311 708 l 311 289 b 376 213 311 235 332 213 b 422 218 394 213 408 214 b 426 224 425 219 426 221 l 426 669 b 476 722 426 708 438 722 l 635 722 b 685 669 671 722 685 708 l 685 114 b 631 31 685 68 674 49 b 351 -21 572 7 486 -21 "},"v":{"ha":728,"x_min":0,"x_max":0,"o":"m 279 0 b 210 47 239 0 222 10 l 15 657 b 56 722 0 706 8 722 l 201 722 b 281 669 256 722 271 713 l 336 428 b 357 251 349 376 356 297 l 365 251 b 388 428 368 296 375 375 l 443 668 b 518 722 453 713 461 722 l 671 722 b 711 658 719 722 728 707 l 508 47 b 439 0 496 11 479 0 l 279 0 "},"w":{"ha":1026,"x_min":0,"x_max":0,"o":"m 238 0 b 167 47 199 0 175 11 l 18 661 b 60 722 6 710 14 722 l 201 722 b 281 669 261 722 272 714 l 314 485 b 328 268 324 433 328 331 l 338 268 b 356 485 340 329 347 431 l 381 668 b 464 722 386 714 403 722 l 568 722 b 650 669 628 722 643 714 l 678 485 b 694 268 685 429 692 328 l 706 268 b 719 485 706 328 710 426 l 749 668 b 829 722 756 713 768 722 l 965 722 b 1010 661 1014 722 1021 710 l 864 47 b 796 0 856 11 833 0 l 642 0 b 572 47 603 0 578 10 l 543 233 b 517 431 533 296 522 382 l 508 431 b 479 233 503 382 490 296 l 444 47 b 378 0 438 10 414 0 l 238 0 "},"x":{"ha":739,"x_min":0,"x_max":0,"o":"m 63 0 b 22 63 -4 0 -4 19 l 210 371 l 29 660 b 69 722 7 696 10 722 l 213 722 b 307 676 272 722 288 718 l 371 532 l 432 675 b 521 722 451 721 465 722 l 668 722 b 706 660 725 722 729 700 l 532 372 l 718 63 b 679 0 744 18 738 0 l 536 0 b 442 46 479 0 463 1 l 367 204 l 299 46 b 206 0 279 1 261 0 l 63 0 "},"y":{"ha":743,"x_min":0,"x_max":0,"o":"m 374 -319 b 72 -182 224 -319 133 -274 b 99 -104 47 -144 65 -119 l 224 -44 b 293 -65 263 -26 278 -37 b 364 -107 307 -92 332 -107 b 425 -28 411 -107 425 -79 l 425 26 b 350 21 404 22 358 21 b 50 321 146 21 50 132 l 50 669 b 103 722 50 708 64 722 l 256 722 b 308 669 294 722 308 708 l 308 331 b 376 254 308 276 326 254 b 426 260 390 254 411 256 l 426 669 b 476 722 426 708 439 722 l 635 722 b 685 669 669 722 685 708 l 685 1 b 374 -319 685 -183 604 -319 "},"z":{"ha":656,"x_min":0,"x_max":0,"o":"m 83 0 b 35 53 49 0 35 14 l 35 161 b 54 218 35 192 39 199 l 292 503 l 93 503 b 44 554 56 503 44 515 l 44 669 b 93 722 44 708 56 722 l 563 722 b 614 669 599 722 614 708 l 614 561 b 583 494 614 531 606 519 l 343 219 l 572 219 b 621 168 610 219 621 207 l 621 53 b 572 0 621 14 610 0 l 83 0 "},"{":{"ha":528,"x_min":0,"x_max":0,"o":"m 344 -350 b 131 -151 185 -350 131 -290 l 131 103 b 58 219 131 163 111 219 l 50 219 b 6 272 18 219 6 235 l 6 413 b 49 465 6 449 17 465 l 58 465 b 131 582 111 465 131 524 l 131 843 b 342 1043 131 982 186 1043 l 450 1043 b 503 990 490 1043 503 1029 l 503 874 b 450 821 503 833 490 821 l 411 821 b 378 789 392 821 378 807 l 378 532 b 272 343 378 440 331 379 b 378 153 349 311 378 246 l 378 -96 b 410 -128 378 -114 392 -128 l 450 -128 b 503 -181 490 -128 503 -140 l 503 -297 b 450 -350 503 -336 490 -350 l 344 -350 "},"|":{"ha":388,"x_min":0,"x_max":0,"o":"m 122 -204 b 69 -151 83 -204 69 -190 l 69 1136 b 122 1189 69 1175 83 1189 l 267 1189 b 319 1136 307 1189 319 1175 l 319 -151 b 267 -204 319 -190 307 -204 l 122 -204 "},"}":{"ha":528,"x_min":0,"x_max":0,"o":"m 78 -350 b 25 -297 39 -350 25 -336 l 25 -181 b 78 -128 25 -140 39 -128 l 118 -128 b 150 -96 136 -128 150 -114 l 150 153 b 269 343 150 246 176 311 b 150 532 194 379 150 440 l 150 789 b 117 821 150 807 136 821 l 78 821 b 25 874 39 821 25 833 l 25 990 b 78 1043 25 1029 39 1043 l 186 1043 b 397 843 342 1043 397 982 l 397 582 b 469 465 397 524 400 465 l 479 465 b 522 413 513 465 522 449 l 522 272 b 478 219 522 235 511 219 l 469 219 b 397 103 400 219 397 163 l 397 -151 b 183 -350 397 -290 343 -350 l 78 -350 "},"~":{"ha":732,"x_min":0,"x_max":0,"o":"m 506 324 b 293 372 392 324 367 372 b 219 346 260 372 239 361 b 143 349 185 317 169 317 l 68 438 b 68 519 40 469 35 490 b 229 585 117 564 174 585 b 438 536 343 585 357 536 b 507 564 469 536 486 547 b 583 561 540 592 553 592 l 663 479 b 663 396 692 449 697 426 b 506 324 615 353 572 324 "}," ":{"ha":250,"x_min":0,"x_max":0,"o":""},"¡":{"ha":385,"x_min":0,"x_max":0,"o":"m 228 732 b 338 624 310 732 338 706 l 338 575 b 228 467 338 493 310 467 l 158 467 b 49 575 75 467 49 493 l 49 624 b 158 732 49 706 75 732 m 249 397 b 301 344 289 397 300 383 l 325 -254 b 272 -306 326 -293 313 -306 l 114 -306 b 61 -254 75 -306 60 -293 l 83 344 b 136 397 85 383 96 397 "},"¢":{"ha":713,"x_min":0,"x_max":0,"o":"m 306 -124 b 253 -71 265 -124 253 -111 l 253 -8 b 51 286 113 25 51 131 l 51 438 b 253 729 51 586 114 692 l 253 793 b 306 846 253 833 265 846 l 419 846 b 472 793 458 846 472 833 l 472 732 b 665 550 576 704 638 633 b 632 476 679 508 671 486 l 497 440 b 426 479 457 429 440 438 b 364 526 413 521 389 526 b 310 451 326 526 310 499 l 310 271 b 361 196 310 224 324 196 b 431 250 389 196 417 208 b 500 286 446 292 460 299 l 632 246 b 667 171 671 233 685 214 b 472 -8 631 81 571 18 l 472 -71 b 419 -124 472 -111 458 -124 l 306 -124 "},"£":{"ha":889,"x_min":0,"x_max":0,"o":"m 104 0 b 49 58 63 0 49 15 l 49 176 b 75 229 49 203 53 225 l 82 231 b 136 321 122 243 131 276 l 136 350 l 104 350 b 47 410 63 350 47 365 l 47 494 b 104 554 47 539 63 554 l 140 554 l 140 690 b 475 1007 140 865 264 1007 b 844 772 683 1007 788 924 b 813 699 860 731 850 713 l 665 642 b 594 681 625 626 611 636 b 499 764 569 744 551 764 b 424 678 451 764 424 728 l 424 554 l 625 554 b 681 494 665 554 681 539 l 681 410 b 625 350 681 365 665 350 l 417 350 l 417 325 b 367 217 413 267 392 239 l 369 208 b 565 235 375 213 451 235 l 779 235 b 833 175 821 235 833 219 l 833 58 b 779 0 833 15 821 0 l 104 0 "},"¤":{"ha":847,"x_min":0,"x_max":0,"o":"m 61 188 b 63 261 33 214 36 233 l 136 338 b 108 468 118 378 108 421 b 136 599 108 515 118 558 l 63 675 b 61 749 36 703 35 724 l 165 849 b 239 847 192 875 213 876 l 304 775 b 424 803 346 793 385 803 b 543 775 464 803 503 793 l 608 847 b 682 849 633 876 656 874 l 786 749 b 786 675 813 722 813 703 l 718 601 b 743 468 736 560 743 515 b 718 335 743 421 736 376 l 786 261 b 786 188 813 233 813 214 l 682 88 b 608 89 656 63 633 60 l 543 161 b 424 133 503 143 464 133 b 304 161 385 133 346 143 l 239 89 b 165 88 213 60 192 61 m 425 354 b 524 468 482 354 524 400 b 425 581 524 536 482 581 b 322 468 365 581 322 536 b 425 354 322 400 365 354 "},"¥":{"ha":978,"x_min":0,"x_max":0,"o":"m 407 0 b 353 58 365 0 353 15 l 353 154 l 214 154 b 161 207 175 154 161 168 l 161 274 b 214 326 161 313 175 326 l 357 326 l 357 375 l 214 375 b 161 428 175 375 161 389 l 161 494 b 214 547 161 533 175 547 l 276 547 l 58 928 b 88 986 40 960 46 986 l 268 986 b 369 933 335 986 349 982 l 490 646 l 614 932 b 715 986 636 983 650 986 l 890 986 b 918 928 932 986 936 960 l 703 547 l 763 547 b 815 494 801 547 815 533 l 815 428 b 763 375 815 389 801 375 l 624 375 l 624 326 l 763 326 b 815 274 801 326 815 313 l 815 207 b 763 154 815 168 801 154 l 628 154 l 628 58 b 572 0 628 15 614 0 l 407 0 "},"¦":{"ha":396,"x_min":0,"x_max":0,"o":"m 126 575 b 74 626 88 575 74 588 l 74 1136 b 126 1189 74 1175 88 1189 l 271 1189 b 324 1136 311 1189 324 1175 l 324 626 b 271 575 324 588 311 575 l 126 575 m 126 -203 b 74 -150 88 -203 74 -189 l 74 360 b 126 411 74 399 88 411 l 271 411 b 324 360 311 411 324 399 l 324 -150 b 271 -203 324 -189 311 -203 l 126 -203 "},"§":{"ha":822,"x_min":0,"x_max":0,"o":"m 410 -304 b 49 -93 228 -304 101 -235 b 86 -14 33 -51 47 -29 l 206 31 b 281 -7 247 47 264 38 b 400 -83 301 -65 329 -83 b 492 -12 469 -83 492 -58 b 413 50 492 26 463 42 b 51 324 286 71 51 104 b 154 521 51 408 88 475 b 69 722 106 558 69 618 b 421 1007 69 893 200 1007 b 743 808 599 1007 689 926 b 711 726 763 765 754 744 l 608 683 b 531 715 568 667 553 671 b 421 785 504 769 467 785 b 344 718 371 785 344 763 b 442 649 344 676 394 661 b 768 367 563 618 768 571 b 690 186 768 292 742 231 b 775 -19 742 149 775 88 b 410 -304 775 -189 647 -304 m 460 257 b 501 347 482 278 501 308 b 410 435 501 401 456 422 b 368 443 394 439 383 440 b 319 350 344 422 319 392 b 418 261 319 290 363 271 b 460 257 432 258 443 257 "},"¨":{"ha":610,"x_min":0,"x_max":0,"o":"m 146 801 b 46 901 68 801 46 828 l 46 919 b 146 1018 46 994 68 1018 l 157 1018 b 258 919 233 1018 258 994 l 258 901 b 157 801 258 828 233 801 l 146 801 m 446 801 b 343 901 368 801 343 828 l 343 919 b 446 1018 343 994 368 1018 l 456 1018 b 556 919 532 1018 556 994 l 556 901 b 456 801 556 828 532 801 l 446 801 "},"©":{"ha":1024,"x_min":0,"x_max":0,"o":"m 514 -12 b 40 486 217 -12 40 172 b 514 986 40 800 217 986 b 983 486 810 986 983 800 b 514 -12 983 172 810 -12 m 514 133 b 831 486 713 133 831 264 b 514 839 831 708 713 839 b 196 486 314 839 196 708 b 514 133 196 264 314 133 m 513 214 b 304 415 378 214 304 293 l 304 554 b 513 756 304 678 378 756 b 717 622 615 756 688 711 b 693 561 729 583 724 571 l 622 538 b 571 567 592 528 582 533 b 513 606 560 597 542 606 b 457 556 476 606 457 589 l 457 415 b 513 363 457 382 476 363 b 571 403 542 363 560 375 b 622 432 583 436 593 442 l 693 408 b 717 349 724 397 728 386 b 513 214 688 260 617 214 "},"ª":{"ha":481,"x_min":0,"x_max":0,"o":"m 238 489 b 43 621 82 489 43 540 b 239 756 43 704 85 756 l 253 756 l 253 776 b 228 808 253 797 247 808 b 193 789 214 808 201 803 b 138 774 174 757 165 761 l 86 797 b 71 857 57 811 51 826 b 239 935 107 914 164 935 b 431 758 385 935 431 861 l 431 579 b 378 510 431 539 419 525 b 238 489 347 499 301 489 m 236 606 b 253 607 243 606 251 607 l 253 610 l 253 651 l 238 651 b 213 629 222 651 213 644 b 236 606 213 610 222 606 "},"«":{"ha":871,"x_min":0,"x_max":0,"o":"m 43 331 b 43 397 19 356 21 374 l 303 674 b 367 675 325 697 343 699 l 451 593 b 451 531 474 572 475 554 l 286 368 l 447 211 b 446 146 472 188 469 169 l 361 64 b 294 64 338 40 317 42 m 400 331 b 400 397 376 356 378 374 l 660 674 b 724 674 681 696 700 697 l 806 594 b 807 531 828 572 831 554 l 650 368 l 803 213 b 804 144 826 188 828 168 l 718 64 b 654 64 694 40 674 43 "},"¬":{"ha":761,"x_min":0,"x_max":0,"o":"m 504 175 b 451 229 465 175 451 189 l 451 360 l 103 360 b 50 414 64 360 50 374 l 50 536 b 103 589 50 576 64 589 l 642 589 b 694 536 681 589 694 576 l 694 229 b 642 175 694 189 681 175 l 504 175 "},"®":{"ha":576,"x_min":0,"x_max":0,"o":"m 289 439 b 38 717 131 439 38 542 b 289 994 38 892 131 994 b 538 717 446 994 538 892 b 289 439 538 542 446 439 m 290 525 b 451 717 392 525 451 596 b 290 907 451 836 392 907 b 128 717 188 907 128 836 b 290 525 128 596 188 525 m 208 579 b 186 600 190 579 186 583 l 186 831 b 208 854 186 849 190 854 l 306 854 b 406 757 365 854 406 814 b 371 679 406 717 393 697 l 400 611 b 381 579 408 590 404 579 l 340 579 b 308 600 317 579 315 581 l 289 657 l 276 657 l 276 600 b 257 579 276 583 271 579 l 208 579 m 299 733 b 315 754 310 733 315 743 b 299 774 315 767 310 774 l 275 774 l 275 733 "},"¯":{"ha":489,"x_min":0,"x_max":0,"o":"m 78 828 b 28 878 39 828 28 838 l 28 936 b 78 986 28 976 43 986 l 417 986 b 467 936 456 986 467 976 l 467 878 b 417 828 467 838 456 828 l 78 828 "},"°":{"ha":572,"x_min":0,"x_max":0,"o":"m 286 478 b 28 743 133 478 28 583 b 286 1007 28 901 133 1007 b 544 743 439 1007 544 901 b 286 478 544 583 439 478 m 286 664 b 350 743 322 664 350 696 b 286 822 351 790 325 822 b 219 743 247 822 219 790 b 286 664 219 696 247 664 "},"±":{"ha":704,"x_min":0,"x_max":0,"o":"m 297 340 b 239 399 253 340 239 354 l 239 478 l 104 478 b 46 536 61 478 46 492 l 46 640 b 104 699 46 685 61 699 l 239 699 l 239 779 b 297 839 239 824 253 839 l 406 839 b 464 779 450 839 464 824 l 464 699 l 599 699 b 658 640 643 699 658 685 l 658 536 b 599 478 658 492 643 478 l 464 478 l 464 399 b 406 340 464 354 450 340 l 297 340 m 104 69 b 46 128 61 69 46 83 l 46 238 b 104 297 46 282 61 297 l 599 297 b 658 238 643 297 658 282 l 658 128 b 599 69 658 83 643 69 l 104 69 "},"´":{"ha":357,"x_min":0,"x_max":0,"o":"m 113 800 b 47 804 79 789 63 786 l 8 850 b 11 903 -14 876 -14 889 l 204 1019 b 296 1017 236 1039 268 1047 l 369 939 b 363 883 393 911 396 896 l 113 800 "},"µ":{"ha":765,"x_min":0,"x_max":0,"o":"m 118 -306 b 65 -253 79 -306 65 -292 l 65 669 b 118 722 65 708 79 722 l 271 722 b 324 669 311 722 324 708 l 324 289 b 389 213 324 235 346 213 b 435 218 410 213 421 214 b 444 231 442 219 444 224 l 444 669 b 499 722 444 708 458 722 l 650 722 b 704 669 690 722 704 708 l 704 106 b 658 29 704 71 690 49 b 468 -21 600 -7 528 -21 b 324 4 433 -21 371 -15 l 324 -253 b 271 -306 324 -292 311 -306 l 118 -306 "},"¶":{"ha":901,"x_min":0,"x_max":0,"o":"m 367 -124 b 313 -71 326 -124 313 -110 l 313 294 b 31 640 168 297 31 438 b 319 986 31 846 171 986 l 771 986 b 825 933 811 986 825 972 l 825 -71 b 771 -124 825 -110 811 -124 l 650 -124 b 597 -71 610 -124 597 -110 l 597 744 l 540 744 l 540 -71 b 488 -124 540 -110 528 -124 l 367 -124 "},"·":{"ha":390,"x_min":0,"x_max":0,"o":"m 169 292 b 60 400 86 292 60 318 l 60 457 b 169 567 60 539 86 567 l 222 567 b 332 457 304 567 332 539 l 332 400 b 222 292 332 318 304 292 l 169 292 "},"¸":{"ha":349,"x_min":0,"x_max":0,"o":"m 146 -340 b 43 -325 114 -340 78 -337 b 6 -282 14 -314 6 -303 l 6 -224 b 49 -201 6 -197 18 -185 b 126 -222 74 -214 93 -222 b 174 -190 161 -222 174 -208 b 115 -160 174 -169 161 -161 l 86 -160 b 68 -118 60 -160 54 -147 l 119 0 l 253 0 l 228 -64 l 240 -64 b 356 -201 319 -65 364 -126 b 146 -340 343 -311 243 -340 "},"º":{"ha":468,"x_min":0,"x_max":0,"o":"m 232 489 b 42 669 108 489 42 557 l 42 754 b 232 936 42 867 108 936 b 426 754 361 936 426 867 l 426 669 b 232 489 426 557 361 489 m 232 642 b 257 668 250 642 257 653 l 257 757 b 232 783 257 772 250 783 b 208 757 218 783 208 772 l 208 668 b 232 642 208 653 218 642 "},"»":{"ha":872,"x_min":0,"x_max":0,"o":"m 428 147 b 425 211 404 168 403 188 l 576 368 l 421 531 b 422 596 397 556 399 572 l 504 675 b 569 674 526 699 547 697 l 829 397 b 828 331 853 372 851 356 l 576 64 b 514 64 554 42 536 42 m 67 146 b 67 211 43 168 44 188 l 217 368 l 64 529 b 64 596 40 554 40 572 l 146 674 b 210 674 169 697 186 697 l 471 397 b 471 331 494 372 496 356 l 218 64 b 154 63 196 42 176 40 "},"¼":{"ha":1146,"x_min":0,"x_max":0,"o":"m 228 438 b 169 493 182 438 169 453 l 169 758 l 147 747 b 72 767 107 726 92 733 l 39 822 b 61 896 19 856 26 875 l 186 969 b 251 986 207 982 224 986 l 297 986 b 361 928 351 986 361 975 l 361 493 b 303 438 361 453 349 438 l 228 438 m 221 0 b 190 58 178 0 171 26 l 726 938 b 835 986 754 982 771 986 l 921 986 b 949 931 963 986 968 963 l 414 51 b 300 0 386 7 369 0 l 221 0 m 917 0 b 876 47 888 0 876 13 l 876 96 l 672 96 b 625 144 638 96 625 110 l 625 186 b 644 247 625 218 629 226 l 840 514 b 921 549 864 546 874 549 l 994 549 b 1053 493 1039 549 1053 536 l 1053 244 l 1068 244 b 1108 203 1101 244 1108 233 l 1108 139 b 1068 96 1108 106 1101 96 l 1053 96 l 1053 47 b 1011 0 1053 13 1040 0 l 917 0 m 881 242 l 879 339 l 810 242 "},"½":{"ha":1174,"x_min":0,"x_max":0,"o":"m 228 438 b 169 493 182 438 169 453 l 169 758 l 147 747 b 72 767 107 726 92 733 l 39 822 b 61 896 19 856 26 875 l 186 969 b 251 986 207 982 224 986 l 297 986 b 361 928 351 986 361 975 l 361 493 b 303 438 361 453 349 438 l 228 438 m 203 0 b 172 58 160 0 153 26 l 708 938 b 817 986 736 982 753 986 l 903 986 b 931 931 944 986 950 963 l 396 51 b 282 0 368 7 351 0 l 203 0 m 743 0 b 696 47 706 0 696 13 l 696 93 b 822 282 696 196 722 250 l 892 304 b 939 361 924 314 939 329 b 910 392 939 378 928 392 b 865 361 894 392 879 386 b 801 328 844 325 838 314 l 731 353 b 703 428 693 367 686 386 b 921 560 735 510 794 560 b 1131 382 1047 560 1131 489 b 999 200 1131 289 1096 232 l 949 183 b 906 163 935 179 906 169 l 906 161 l 1074 161 b 1121 113 1111 161 1121 149 l 1121 47 b 1076 0 1121 13 1111 0 l 743 0 "},"¾":{"ha":1219,"x_min":0,"x_max":0,"o":"m 278 436 b 42 565 153 436 82 471 b 57 629 31 593 29 619 l 122 653 b 196 624 164 668 178 658 b 267 588 214 592 240 588 b 310 615 296 588 310 597 b 268 651 310 642 303 651 l 232 651 b 197 692 204 651 197 658 l 197 753 b 236 796 197 786 203 796 l 264 796 b 301 829 288 796 301 803 b 264 860 301 850 289 860 b 197 817 232 860 210 851 b 125 789 186 785 165 772 l 72 811 b 51 874 54 821 39 838 b 275 1007 82 961 150 1007 b 482 844 407 1007 481 947 b 431 732 483 793 471 763 b 499 600 482 704 499 654 b 278 436 499 497 426 436 m 297 0 b 267 58 254 0 247 26 l 803 938 b 911 986 831 982 847 986 l 997 986 b 1025 931 1039 986 1044 963 l 490 51 b 376 0 463 7 446 0 l 297 0 m 993 0 b 953 47 964 0 953 13 l 953 96 l 749 96 b 701 144 714 96 701 110 l 701 186 b 721 247 701 218 706 226 l 917 514 b 997 549 940 546 950 549 l 1071 549 b 1129 493 1115 549 1129 536 l 1129 244 l 1144 244 b 1185 203 1178 244 1185 233 l 1185 139 b 1144 96 1185 106 1178 96 l 1129 96 l 1129 47 b 1088 0 1129 13 1117 0 l 993 0 m 957 242 l 956 339 l 886 242 "},"¿":{"ha":743,"x_min":0,"x_max":0,"o":"m 454 731 b 564 622 538 731 564 704 l 564 574 b 454 465 564 492 538 465 l 392 465 b 282 574 310 465 282 492 l 282 622 b 392 731 282 704 310 731 l 454 731 m 488 418 b 543 363 529 418 543 406 b 426 139 543 231 486 178 b 307 -15 361 96 307 76 b 393 -94 307 -61 332 -94 b 506 4 439 -94 471 -76 b 581 42 524 47 539 57 l 688 1 b 724 -74 728 -14 740 -33 b 382 -308 667 -218 561 -308 b 43 -36 175 -308 43 -206 b 250 260 43 147 171 203 b 306 363 282 282 306 329 b 361 418 306 406 321 418 l 488 418 "},"À":{"ha":900,"x_min":0,"x_max":0,"o":"m 283 1131 b 276 1186 250 1142 253 1157 l 347 1269 b 439 1274 374 1300 407 1292 l 635 1158 b 638 1106 660 1144 660 1131 l 600 1058 b 536 1053 585 1040 569 1042 m 39 0 b 6 57 1 0 -7 19 l 290 938 b 360 986 303 978 321 986 l 538 986 b 606 940 575 986 594 976 l 894 57 b 856 0 907 19 894 0 l 700 0 b 599 58 629 0 608 15 l 574 160 l 317 160 l 289 58 b 193 0 278 15 260 0 l 39 0 m 521 378 l 481 539 b 451 733 464 608 454 690 l 440 733 b 413 540 438 690 429 607 l 374 378 "},"Á":{"ha":900,"x_min":0,"x_max":0,"o":"m 365 1051 b 301 1058 332 1042 317 1039 l 264 1104 b 267 1157 242 1131 243 1143 l 463 1269 b 554 1265 494 1288 526 1296 l 625 1185 b 618 1129 650 1157 651 1142 l 365 1051 m 39 0 b 6 57 1 0 -7 19 l 290 938 b 360 986 303 978 321 986 l 538 986 b 606 940 575 986 594 976 l 894 57 b 856 0 907 19 894 0 l 700 0 b 599 58 629 0 608 15 l 574 160 l 317 160 l 289 58 b 193 0 278 15 260 0 l 39 0 m 521 378 l 481 539 b 451 733 464 608 454 690 l 440 733 b 413 540 438 690 429 607 l 374 378 "},"Â":{"ha":900,"x_min":0,"x_max":0,"o":"m 206 1047 b 183 1094 160 1047 163 1072 l 325 1236 b 432 1278 363 1274 374 1278 l 476 1278 b 575 1236 526 1278 538 1274 l 718 1094 b 697 1047 740 1072 742 1047 l 581 1047 b 488 1076 525 1047 508 1050 l 449 1126 l 404 1078 b 314 1047 382 1050 367 1047 l 206 1047 m 39 0 b 6 57 1 0 -7 19 l 290 938 b 360 986 303 978 321 986 l 538 986 b 606 940 575 986 594 976 l 894 57 b 856 0 907 19 894 0 l 700 0 b 599 58 629 0 608 15 l 574 160 l 317 160 l 289 58 b 193 0 278 15 260 0 l 39 0 m 521 378 l 481 539 b 451 733 464 608 454 690 l 440 733 b 413 540 438 690 429 607 l 374 378 "},"Ã":{"ha":900,"x_min":0,"x_max":0,"o":"m 232 1060 b 200 1092 208 1060 200 1071 b 332 1263 200 1224 251 1263 b 521 1206 439 1263 475 1206 b 542 1236 533 1206 542 1214 b 568 1263 542 1256 547 1263 l 651 1263 b 685 1231 678 1263 685 1253 b 549 1060 685 1101 636 1060 b 364 1118 446 1060 410 1118 b 343 1088 351 1118 343 1108 b 317 1060 343 1068 336 1060 l 232 1060 m 39 0 b 6 57 1 0 -7 19 l 290 938 b 360 986 303 978 321 986 l 538 986 b 606 940 575 986 594 976 l 894 57 b 856 0 907 19 894 0 l 700 0 b 599 58 629 0 608 15 l 574 160 l 317 160 l 289 58 b 193 0 278 15 260 0 l 39 0 m 521 378 l 481 539 b 451 733 464 608 454 690 l 440 733 b 413 540 438 690 429 607 l 374 378 "},"Ä":{"ha":900,"x_min":0,"x_max":0,"o":"m 293 1054 b 193 1153 215 1054 193 1079 l 193 1171 b 293 1269 193 1246 215 1269 l 304 1269 b 406 1171 381 1269 406 1246 l 406 1153 b 304 1054 406 1079 381 1054 l 293 1054 m 593 1054 b 490 1153 515 1054 490 1079 l 490 1171 b 593 1269 490 1246 515 1269 l 603 1269 b 703 1171 679 1269 703 1246 l 703 1153 b 603 1054 703 1079 679 1054 l 593 1054 m 39 0 b 6 57 1 0 -7 19 l 290 938 b 360 986 303 978 321 986 l 538 986 b 606 940 575 986 594 976 l 894 57 b 856 0 907 19 894 0 l 700 0 b 599 58 629 0 608 15 l 574 160 l 317 160 l 289 58 b 193 0 278 15 260 0 l 39 0 m 521 378 l 481 539 b 451 733 464 608 454 690 l 440 733 b 413 540 438 690 429 607 l 374 378 "},"Å":{"ha":900,"x_min":0,"x_max":0,"o":"m 39 0 b 6 57 1 0 -7 19 l 294 925 b 250 1044 267 954 250 996 b 449 1224 250 1158 335 1224 b 646 1044 564 1224 646 1156 b 601 925 646 996 629 956 l 894 57 b 856 0 907 19 894 0 l 700 0 b 599 58 629 0 608 15 l 574 160 l 317 160 l 289 58 b 193 0 278 15 260 0 l 39 0 m 449 992 b 503 1044 479 992 503 1013 b 449 1100 503 1079 479 1100 b 392 1044 414 1100 392 1079 b 449 992 392 1014 414 992 m 521 378 l 481 539 b 451 733 464 608 454 690 l 440 733 b 413 540 438 690 429 607 l 374 378 "},"Æ":{"ha":1188,"x_min":0,"x_max":0,"o":"m 35 0 b -1 57 -8 0 -22 24 l 542 938 b 611 986 563 974 572 986 l 1086 986 b 1142 928 1129 986 1142 971 l 1142 803 b 1086 743 1142 758 1129 743 l 847 743 l 847 619 l 1017 619 b 1071 561 1058 619 1071 604 l 1071 436 b 1017 376 1071 392 1058 376 l 847 376 l 847 243 l 1097 243 b 1154 185 1139 243 1154 229 l 1154 58 b 1097 0 1154 15 1139 0 l 658 0 b 600 58 615 0 600 15 l 600 146 l 338 146 l 290 53 b 186 0 269 14 257 0 l 35 0 m 600 356 l 597 596 l 475 356 "},"Ç":{"ha":849,"x_min":0,"x_max":0,"o":"m 425 -340 b 322 -325 393 -340 357 -337 b 285 -282 293 -314 285 -303 l 285 -224 b 328 -201 285 -197 297 -185 b 406 -222 353 -214 372 -222 b 453 -190 440 -222 453 -208 b 394 -160 453 -169 440 -161 l 365 -160 b 347 -118 339 -160 333 -147 l 390 -18 b 46 368 169 1 46 146 l 46 618 b 444 1007 46 858 189 1007 b 819 763 646 1007 767 917 b 783 688 833 722 822 700 l 636 642 b 567 679 594 629 581 636 b 446 764 546 742 506 764 b 321 619 358 764 321 722 l 321 367 b 447 222 321 264 358 222 b 567 307 507 222 547 247 b 638 346 581 350 597 358 l 788 299 b 824 224 826 286 838 264 b 526 -15 778 90 679 6 l 507 -64 l 522 -64 b 635 -201 601 -64 643 -126 b 425 -340 622 -311 522 -340 "},"È":{"ha":778,"x_min":0,"x_max":0,"o":"m 256 1131 b 249 1186 222 1142 225 1157 l 319 1269 b 411 1274 346 1300 379 1292 l 607 1158 b 610 1106 632 1144 632 1131 l 572 1058 b 508 1053 557 1040 542 1042 m 128 0 b 69 58 85 0 69 15 l 69 928 b 128 986 69 971 85 986 l 672 986 b 731 928 717 986 731 971 l 731 803 b 672 743 731 758 717 743 l 344 743 l 344 619 l 599 619 b 657 561 643 619 657 604 l 657 436 b 599 376 657 392 643 376 l 344 376 l 344 243 l 683 243 b 743 185 728 243 743 229 l 743 58 b 683 0 743 15 728 0 l 128 0 "},"É":{"ha":778,"x_min":0,"x_max":0,"o":"m 338 1051 b 274 1058 304 1042 289 1039 l 236 1104 b 239 1157 214 1131 215 1143 l 435 1269 b 526 1265 467 1288 499 1296 l 597 1185 b 590 1129 622 1157 624 1142 l 338 1051 m 128 0 b 69 58 85 0 69 15 l 69 928 b 128 986 69 971 85 986 l 672 986 b 731 928 717 986 731 971 l 731 803 b 672 743 731 758 717 743 l 344 743 l 344 619 l 599 619 b 657 561 643 619 657 604 l 657 436 b 599 376 657 392 643 376 l 344 376 l 344 243 l 683 243 b 743 185 728 243 743 229 l 743 58 b 683 0 743 15 728 0 l 128 0 "},"Ê":{"ha":778,"x_min":0,"x_max":0,"o":"m 178 1047 b 156 1094 132 1047 135 1072 l 297 1236 b 404 1278 335 1274 346 1278 l 449 1278 b 547 1236 499 1278 510 1274 l 690 1094 b 669 1047 713 1072 714 1047 l 553 1047 b 460 1076 497 1047 481 1050 l 421 1126 l 376 1078 b 286 1047 354 1050 339 1047 l 178 1047 m 128 0 b 69 58 85 0 69 15 l 69 928 b 128 986 69 971 85 986 l 672 986 b 731 928 717 986 731 971 l 731 803 b 672 743 731 758 717 743 l 344 743 l 344 619 l 599 619 b 657 561 643 619 657 604 l 657 436 b 599 376 657 392 643 376 l 344 376 l 344 243 l 683 243 b 743 185 728 243 743 229 l 743 58 b 683 0 743 15 728 0 l 128 0 "},"Ë":{"ha":778,"x_min":0,"x_max":0,"o":"m 265 1054 b 165 1153 188 1054 165 1079 l 165 1171 b 265 1269 165 1246 188 1269 l 276 1269 b 378 1171 353 1269 378 1246 l 378 1153 b 276 1054 378 1079 353 1054 l 265 1054 m 565 1054 b 463 1153 488 1054 463 1079 l 463 1171 b 565 1269 463 1246 488 1269 l 575 1269 b 675 1171 651 1269 675 1246 l 675 1153 b 575 1054 675 1079 651 1054 l 565 1054 m 128 0 b 69 58 85 0 69 15 l 69 928 b 128 986 69 971 85 986 l 672 986 b 731 928 717 986 731 971 l 731 803 b 672 743 731 758 717 743 l 344 743 l 344 619 l 599 619 b 657 561 643 619 657 604 l 657 436 b 599 376 657 392 643 376 l 344 376 l 344 243 l 683 243 b 743 185 728 243 743 229 l 743 58 b 683 0 743 15 728 0 l 128 0 "},"Ì":{"ha":415,"x_min":0,"x_max":0,"o":"m 43 1131 b 36 1186 10 1142 13 1157 l 107 1269 b 199 1274 133 1300 167 1292 l 394 1158 b 397 1106 419 1144 419 1131 l 360 1058 b 296 1053 344 1040 329 1042 m 125 0 b 69 56 83 0 69 14 l 69 931 b 125 986 69 972 83 986 l 289 986 b 344 931 331 986 344 972 l 344 56 b 289 0 344 14 331 0 l 125 0 "},"Í":{"ha":415,"x_min":0,"x_max":0,"o":"m 125 1051 b 61 1058 92 1042 76 1039 l 24 1104 b 26 1157 1 1131 3 1143 l 222 1269 b 314 1265 254 1288 286 1296 l 385 1185 b 378 1129 410 1157 411 1142 l 125 1051 m 125 0 b 69 56 83 0 69 14 l 69 931 b 125 986 69 972 83 986 l 289 986 b 344 931 331 986 344 972 l 344 56 b 289 0 344 14 331 0 l 125 0 "},"Î":{"ha":415,"x_min":0,"x_max":0,"o":"m -35 1047 b -57 1094 -81 1047 -78 1072 l 85 1236 b 192 1278 122 1274 133 1278 l 236 1278 b 335 1236 286 1278 297 1274 l 478 1094 b 457 1047 500 1072 501 1047 l 340 1047 b 247 1076 285 1047 268 1050 l 208 1126 l 164 1078 b 74 1047 142 1050 126 1047 l -35 1047 m 125 0 b 69 56 83 0 69 14 l 69 931 b 125 986 69 972 83 986 l 289 986 b 344 931 331 986 344 972 l 344 56 b 289 0 344 14 331 0 l 125 0 "},"Ï":{"ha":415,"x_min":0,"x_max":0,"o":"m 53 1054 b -47 1153 -25 1054 -47 1079 l -47 1171 b 53 1269 -47 1246 -25 1269 l 64 1269 b 165 1171 140 1269 165 1246 l 165 1153 b 64 1054 165 1079 140 1054 l 53 1054 m 353 1054 b 250 1153 275 1054 250 1079 l 250 1171 b 353 1269 250 1246 275 1269 l 363 1269 b 463 1171 439 1269 463 1246 l 463 1153 b 363 1054 463 1079 439 1054 l 353 1054 m 125 0 b 69 56 83 0 69 14 l 69 931 b 125 986 69 972 83 986 l 289 986 b 344 931 331 986 344 972 l 344 56 b 289 0 344 14 331 0 l 125 0 "},"Ð":{"ha":922,"x_min":0,"x_max":0,"o":"m 151 0 b 97 58 113 0 97 15 l 97 411 l 47 411 b 13 447 21 411 13 418 l 13 553 b 47 589 13 581 24 589 l 97 589 l 97 928 b 151 986 97 971 113 986 l 471 986 b 876 597 732 986 876 838 l 876 389 b 471 0 876 150 732 0 l 151 0 m 450 243 b 601 393 567 243 601 294 l 601 593 b 450 743 601 692 567 743 l 372 743 l 372 589 l 458 589 b 492 553 485 589 492 581 l 492 447 b 458 411 492 418 485 411 l 372 411 l 372 243 "},"Ñ":{"ha":926,"x_min":0,"x_max":0,"o":"m 251 1060 b 219 1092 228 1060 219 1071 b 351 1263 219 1224 271 1263 b 540 1206 458 1263 494 1206 b 561 1236 553 1206 561 1214 b 588 1263 561 1256 567 1263 l 671 1263 b 704 1231 697 1263 704 1253 b 568 1060 704 1101 656 1060 b 383 1118 465 1060 429 1118 b 363 1088 371 1118 363 1108 b 336 1060 363 1068 356 1060 l 251 1060 m 125 0 b 69 58 85 0 69 15 l 69 928 b 125 986 69 971 85 986 l 308 986 b 361 958 336 986 351 978 l 538 621 b 646 349 590 519 608 454 l 658 349 b 593 700 624 478 593 560 l 593 928 b 650 986 593 971 607 986 l 800 986 b 857 928 842 986 857 971 l 857 58 b 800 0 857 15 842 0 l 631 0 b 576 29 600 0 588 8 l 410 354 b 300 643 358 456 343 511 l 289 643 b 331 285 317 525 331 439 l 331 58 b 275 0 331 15 318 0 l 125 0 "},"Ò":{"ha":897,"x_min":0,"x_max":0,"o":"m 285 1144 b 278 1200 251 1156 254 1171 l 349 1283 b 440 1288 375 1314 408 1306 l 636 1172 b 639 1119 661 1158 661 1144 l 601 1072 b 538 1067 586 1054 571 1056 m 447 -21 b 46 368 189 -21 46 128 l 46 618 b 447 1007 46 858 189 1007 b 850 618 707 1007 850 858 l 850 368 b 447 -21 850 128 707 -21 m 447 222 b 575 356 531 222 575 268 l 575 631 b 447 764 575 718 531 764 b 321 631 365 764 321 718 l 321 356 b 447 222 321 268 365 222 "},"Ó":{"ha":897,"x_min":0,"x_max":0,"o":"m 367 1065 b 303 1072 333 1056 318 1053 l 265 1118 b 268 1171 243 1144 244 1157 l 464 1283 b 556 1279 496 1301 528 1310 l 626 1199 b 619 1143 651 1171 653 1156 l 367 1065 m 447 -21 b 46 368 189 -21 46 128 l 46 618 b 447 1007 46 858 189 1007 b 850 618 707 1007 850 858 l 850 368 b 447 -21 850 128 707 -21 m 447 222 b 575 356 531 222 575 268 l 575 631 b 447 764 575 718 531 764 b 321 631 365 764 321 718 l 321 356 b 447 222 321 268 365 222 "},"Ô":{"ha":897,"x_min":0,"x_max":0,"o":"m 207 1061 b 185 1108 161 1061 164 1086 l 326 1250 b 433 1292 364 1288 375 1292 l 478 1292 b 576 1250 528 1292 539 1288 l 719 1108 b 699 1061 742 1086 743 1061 l 582 1061 b 489 1090 526 1061 510 1064 l 450 1140 l 406 1092 b 315 1061 383 1064 368 1061 l 207 1061 m 447 -21 b 46 368 189 -21 46 128 l 46 618 b 447 1007 46 858 189 1007 b 850 618 707 1007 850 858 l 850 368 b 447 -21 850 128 707 -21 m 447 222 b 575 356 531 222 575 268 l 575 631 b 447 764 575 718 531 764 b 321 631 365 764 321 718 l 321 356 b 447 222 321 268 365 222 "},"Õ":{"ha":897,"x_min":0,"x_max":0,"o":"m 233 1074 b 201 1106 210 1074 201 1085 b 333 1276 201 1238 253 1276 b 522 1219 440 1276 476 1219 b 543 1250 535 1219 543 1228 b 569 1276 543 1269 549 1276 l 653 1276 b 686 1244 679 1276 686 1267 b 550 1074 686 1115 638 1074 b 365 1132 447 1074 411 1132 b 344 1101 353 1132 344 1122 b 318 1074 344 1082 338 1074 l 233 1074 m 447 -21 b 46 368 189 -21 46 128 l 46 618 b 447 1007 46 858 189 1007 b 850 618 707 1007 850 858 l 850 368 b 447 -21 850 128 707 -21 m 447 222 b 575 356 531 222 575 268 l 575 631 b 447 764 575 718 531 764 b 321 631 365 764 321 718 l 321 356 b 447 222 321 268 365 222 "},"Ö":{"ha":897,"x_min":0,"x_max":0,"o":"m 294 1068 b 194 1167 217 1068 194 1093 l 194 1185 b 294 1283 194 1260 217 1283 l 306 1283 b 407 1185 382 1283 407 1260 l 407 1167 b 306 1068 407 1093 382 1068 l 294 1068 m 594 1068 b 492 1167 517 1068 492 1093 l 492 1185 b 594 1283 492 1260 517 1283 l 604 1283 b 704 1185 681 1283 704 1260 l 704 1167 b 604 1068 704 1093 681 1068 l 594 1068 m 447 -21 b 46 368 189 -21 46 128 l 46 618 b 447 1007 46 858 189 1007 b 850 618 707 1007 850 858 l 850 368 b 447 -21 850 128 707 -21 m 447 222 b 575 356 531 222 575 268 l 575 631 b 447 764 575 718 531 764 b 321 631 365 764 321 718 l 321 356 b 447 222 321 268 365 222 "},"×":{"ha":715,"x_min":0,"x_max":0,"o":"m 357 274 l 225 132 b 146 132 197 101 175 103 l 65 213 b 65 292 36 242 36 261 l 210 438 l 65 583 b 65 663 35 614 36 633 l 146 743 b 225 743 175 772 197 774 l 357 604 l 489 744 b 568 744 518 776 539 774 l 650 664 b 650 585 679 633 679 614 l 503 438 l 650 290 b 650 211 679 261 679 240 l 568 131 b 489 131 539 101 518 99 "},"Ø":{"ha":897,"x_min":0,"x_max":0,"o":"m 47 -58 b 36 -32 29 -58 26 -46 l 124 113 b 46 368 72 178 46 264 l 46 618 b 447 1007 46 858 189 1007 b 640 972 522 1007 586 994 l 672 1024 b 719 1046 686 1044 693 1046 l 853 1046 b 865 1021 869 1046 874 1035 l 774 871 b 850 618 824 806 850 721 l 850 368 b 447 -21 850 128 707 -21 b 257 14 374 -21 310 -8 l 226 -36 b 176 -58 213 -57 210 -58 l 47 -58 m 517 749 b 447 764 497 758 475 764 b 321 631 365 764 321 718 l 321 446 l 321 424 m 447 222 b 575 356 531 222 575 268 l 575 533 l 575 556 l 382 235 b 447 222 400 226 422 222 "},"Ù":{"ha":915,"x_min":0,"x_max":0,"o":"m 292 1131 b 285 1186 258 1142 261 1157 l 356 1269 b 447 1274 382 1300 415 1292 l 643 1158 b 646 1106 668 1144 668 1131 l 608 1058 b 544 1053 593 1040 578 1042 m 457 -21 b 63 363 199 -21 63 129 l 63 928 b 117 986 63 971 78 986 l 283 986 b 338 928 322 986 338 971 l 338 350 b 457 222 338 268 376 222 b 579 350 540 222 579 268 l 579 928 b 633 986 579 971 592 986 l 797 986 b 854 928 839 986 854 971 l 854 363 b 457 -21 854 129 717 -21 "},"Ú":{"ha":915,"x_min":0,"x_max":0,"o":"m 374 1051 b 310 1058 340 1042 325 1039 l 272 1104 b 275 1157 250 1131 251 1143 l 471 1269 b 563 1265 503 1288 535 1296 l 633 1185 b 626 1129 658 1157 660 1142 l 374 1051 m 457 -21 b 63 363 199 -21 63 129 l 63 928 b 117 986 63 971 78 986 l 283 986 b 338 928 322 986 338 971 l 338 350 b 457 222 338 268 376 222 b 579 350 540 222 579 268 l 579 928 b 633 986 579 971 592 986 l 797 986 b 854 928 839 986 854 971 l 854 363 b 457 -21 854 129 717 -21 "},"Û":{"ha":915,"x_min":0,"x_max":0,"o":"m 214 1047 b 192 1094 168 1047 171 1072 l 333 1236 b 440 1278 371 1274 382 1278 l 485 1278 b 583 1236 535 1278 546 1274 l 726 1094 b 706 1047 749 1072 750 1047 l 589 1047 b 496 1076 533 1047 517 1050 l 457 1126 l 413 1078 b 322 1047 390 1050 375 1047 l 214 1047 m 457 -21 b 63 363 199 -21 63 129 l 63 928 b 117 986 63 971 78 986 l 283 986 b 338 928 322 986 338 971 l 338 350 b 457 222 338 268 376 222 b 579 350 540 222 579 268 l 579 928 b 633 986 579 971 592 986 l 797 986 b 854 928 839 986 854 971 l 854 363 b 457 -21 854 129 717 -21 "},"Ü":{"ha":915,"x_min":0,"x_max":0,"o":"m 301 1054 b 201 1153 224 1054 201 1079 l 201 1171 b 301 1269 201 1246 224 1269 l 313 1269 b 414 1171 389 1269 414 1246 l 414 1153 b 313 1054 414 1079 389 1054 l 301 1054 m 601 1054 b 499 1153 524 1054 499 1079 l 499 1171 b 601 1269 499 1246 524 1269 l 611 1269 b 711 1171 688 1269 711 1246 l 711 1153 b 611 1054 711 1079 688 1054 l 601 1054 m 457 -21 b 63 363 199 -21 63 129 l 63 928 b 117 986 63 971 78 986 l 283 986 b 338 928 322 986 338 971 l 338 350 b 457 222 338 268 376 222 b 579 350 540 222 579 268 l 579 928 b 633 986 579 971 592 986 l 797 986 b 854 928 839 986 854 971 l 854 363 b 457 -21 854 129 717 -21 "},"Ý":{"ha":882,"x_min":0,"x_max":0,"o":"m 361 1051 b 297 1058 328 1042 313 1039 l 260 1104 b 263 1157 238 1131 239 1143 l 458 1269 b 550 1265 490 1288 522 1296 l 621 1185 b 614 1129 646 1157 647 1142 l 361 1051 m 360 0 b 306 58 318 0 306 15 l 306 374 l 11 928 b 40 986 -6 960 -1 986 l 221 986 b 322 933 288 986 301 982 l 443 646 l 567 932 b 668 986 589 983 603 986 l 843 986 b 871 928 885 986 888 960 l 581 374 l 581 58 b 525 0 581 15 567 0 l 360 0 "},"Þ":{"ha":851,"x_min":0,"x_max":0,"o":"m 128 0 b 69 58 85 0 69 15 l 69 928 b 128 986 69 971 85 986 l 285 986 b 343 928 329 986 343 971 l 343 861 l 454 861 b 822 499 678 861 822 724 b 454 139 822 275 678 139 l 343 139 l 343 58 b 285 0 343 15 329 0 l 128 0 m 432 382 b 550 500 510 382 550 432 b 432 618 550 567 510 618 l 343 618 l 343 382 "},"ß":{"ha":801,"x_min":0,"x_max":0,"o":"m 115 0 b 58 58 74 0 58 15 l 58 732 b 394 1042 58 921 179 1042 b 732 757 618 1042 732 928 b 632 547 732 660 703 596 l 632 542 b 771 286 714 506 771 435 b 467 0 771 92 653 0 l 410 0 b 353 58 367 0 353 15 l 353 185 b 410 243 353 229 367 243 l 424 243 b 490 325 467 244 490 271 b 424 408 490 379 471 408 l 410 408 b 353 468 367 408 353 424 l 353 588 b 396 646 353 628 365 646 l 401 646 b 458 724 431 646 458 664 b 383 799 458 771 425 799 b 317 719 332 799 317 769 l 317 58 b 257 0 317 15 301 0 l 115 0 "},"à":{"ha":700,"x_min":0,"x_max":0,"o":"m 181 883 b 174 939 147 896 150 911 l 247 1017 b 339 1019 275 1047 307 1039 l 532 903 b 535 850 557 889 557 876 l 496 804 b 431 800 481 786 464 789 m 343 -21 b 29 210 119 -21 29 44 b 343 440 29 375 119 440 b 394 439 357 440 378 440 l 394 482 b 340 546 394 533 371 546 b 268 499 308 546 285 524 b 193 481 251 474 240 463 l 88 521 b 60 594 53 533 40 554 b 353 743 107 690 201 743 b 651 457 565 743 651 642 l 651 101 b 601 18 651 50 640 35 b 343 -21 549 -6 464 -21 m 340 156 b 388 158 358 156 372 156 b 394 167 393 160 394 161 l 394 267 b 343 268 376 268 357 268 b 282 211 301 268 282 250 b 340 156 282 174 300 156 "},"á":{"ha":700,"x_min":0,"x_max":0,"o":"m 265 800 b 200 804 232 789 215 786 l 161 850 b 164 903 139 876 139 889 l 357 1019 b 449 1017 389 1039 421 1047 l 522 939 b 515 883 546 911 549 896 l 265 800 m 343 -21 b 29 210 119 -21 29 44 b 343 440 29 375 119 440 b 394 439 357 440 378 440 l 394 482 b 340 546 394 533 371 546 b 268 499 308 546 285 524 b 193 481 251 474 240 463 l 88 521 b 60 594 53 533 40 554 b 353 743 107 690 201 743 b 651 457 565 743 651 642 l 651 101 b 601 18 651 50 640 35 b 343 -21 549 -6 464 -21 m 340 156 b 388 158 358 156 372 156 b 394 167 393 160 394 161 l 394 267 b 343 268 376 268 357 268 b 282 211 301 268 282 250 b 340 156 282 174 300 156 "},"â":{"ha":700,"x_min":0,"x_max":0,"o":"m 110 799 b 89 846 65 799 67 824 l 231 988 b 338 1029 268 1025 278 1029 l 375 1029 b 474 988 424 1029 436 1025 l 617 846 b 596 799 639 824 640 799 l 479 799 b 386 828 424 799 407 801 l 346 878 l 303 829 b 213 799 279 801 264 799 l 110 799 m 343 -21 b 29 210 119 -21 29 44 b 343 440 29 375 119 440 b 394 439 357 440 378 440 l 394 482 b 340 546 394 533 371 546 b 268 499 308 546 285 524 b 193 481 251 474 240 463 l 88 521 b 60 594 53 533 40 554 b 353 743 107 690 201 743 b 651 457 565 743 651 642 l 651 101 b 601 18 651 50 640 35 b 343 -21 549 -6 464 -21 m 340 156 b 388 158 358 156 372 156 b 394 167 393 160 394 161 l 394 267 b 343 268 376 268 357 268 b 282 211 301 268 282 250 b 340 156 282 174 300 156 "},"ã":{"ha":700,"x_min":0,"x_max":0,"o":"m 129 813 b 97 844 106 813 97 822 b 229 1015 97 975 149 1015 b 418 957 336 1015 372 957 b 439 988 431 957 439 967 b 465 1015 439 1007 444 1015 l 549 1015 b 582 983 575 1015 582 1004 b 446 813 582 853 533 813 b 261 869 343 813 307 869 b 240 839 249 869 240 861 b 214 813 240 819 233 813 l 129 813 m 343 -21 b 29 210 119 -21 29 44 b 343 440 29 375 119 440 b 394 439 357 440 378 440 l 394 482 b 340 546 394 533 371 546 b 268 499 308 546 285 524 b 193 481 251 474 240 463 l 88 521 b 60 594 53 533 40 554 b 353 743 107 690 201 743 b 651 457 565 743 651 642 l 651 101 b 601 18 651 50 640 35 b 343 -21 549 -6 464 -21 m 340 156 b 388 158 358 156 372 156 b 394 167 393 160 394 161 l 394 267 b 343 268 376 268 357 268 b 282 211 301 268 282 250 b 340 156 282 174 300 156 "},"ä":{"ha":700,"x_min":0,"x_max":0,"o":"m 190 801 b 90 901 113 801 90 828 l 90 919 b 190 1018 90 994 113 1018 l 201 1018 b 303 919 278 1018 303 994 l 303 901 b 201 801 303 828 278 801 l 190 801 m 490 801 b 388 901 413 801 388 828 l 388 919 b 490 1018 388 994 413 1018 l 500 1018 b 600 919 576 1018 600 994 l 600 901 b 500 801 600 828 576 801 l 490 801 m 343 -21 b 29 210 119 -21 29 44 b 343 440 29 375 119 440 b 394 439 357 440 378 440 l 394 482 b 340 546 394 533 371 546 b 268 499 308 546 285 524 b 193 481 251 474 240 463 l 88 521 b 60 594 53 533 40 554 b 353 743 107 690 201 743 b 651 457 565 743 651 642 l 651 101 b 601 18 651 50 640 35 b 343 -21 549 -6 464 -21 m 340 156 b 388 158 358 156 372 156 b 394 167 393 160 394 161 l 394 267 b 343 268 376 268 357 268 b 282 211 301 268 282 250 b 340 156 282 174 300 156 "},"å":{"ha":700,"x_min":0,"x_max":0,"o":"m 347 754 b 167 914 243 754 167 813 b 347 1078 167 1018 243 1078 b 525 914 451 1078 525 1014 b 347 754 525 814 451 754 m 347 864 b 399 914 376 864 399 883 b 347 967 399 946 376 967 b 292 914 314 967 292 946 b 347 864 292 885 314 864 m 343 -21 b 29 210 119 -21 29 44 b 343 440 29 375 119 440 b 394 439 357 440 378 440 l 394 482 b 340 546 394 533 371 546 b 268 499 308 546 285 524 b 193 481 251 474 240 463 l 88 521 b 60 594 53 533 40 554 b 353 743 107 690 201 743 b 651 457 565 743 651 642 l 651 101 b 601 18 651 50 640 35 b 343 -21 549 -6 464 -21 m 340 156 b 388 158 358 156 372 156 b 394 167 393 160 394 161 l 394 267 b 343 268 376 268 357 268 b 282 211 301 268 282 250 b 340 156 282 174 300 156 "},"æ":{"ha":1013,"x_min":0,"x_max":0,"o":"m 326 -21 b 31 210 110 -21 31 42 b 331 442 31 379 108 442 l 379 440 l 379 483 b 324 546 379 522 371 546 b 257 499 290 546 271 526 b 192 483 244 474 235 467 l 92 522 b 64 596 56 536 44 556 b 331 743 111 692 183 743 b 499 690 394 743 456 724 b 674 743 546 726 606 743 b 981 451 900 743 981 618 l 981 363 b 910 290 981 318 964 290 l 600 290 l 600 257 b 671 174 600 200 622 174 b 760 221 718 174 744 190 b 831 239 772 247 788 258 l 925 194 b 951 115 960 178 972 154 b 667 -21 903 24 815 -21 b 511 28 610 -21 558 -4 b 326 -21 461 -4 415 -21 m 739 458 l 739 476 b 674 560 739 536 721 560 b 607 476 626 560 607 536 l 607 458 m 326 156 b 381 161 342 156 367 158 l 381 207 l 381 265 b 329 267 371 267 340 267 b 278 211 293 267 278 251 b 326 156 278 171 292 156 "},"ç":{"ha":682,"x_min":0,"x_max":0,"o":"m 339 -340 b 235 -325 307 -340 271 -337 b 199 -282 206 -314 199 -303 l 199 -224 b 242 -201 199 -197 211 -185 b 319 -222 267 -214 286 -222 b 367 -190 354 -222 367 -208 b 308 -160 367 -169 354 -161 l 283 -160 b 264 -118 257 -160 256 -149 l 293 -18 b 39 286 115 1 39 113 l 39 438 b 363 743 39 625 138 743 b 653 550 528 743 618 657 b 619 476 667 508 658 486 l 485 440 b 414 479 444 429 428 438 b 351 526 400 521 376 526 b 297 451 314 526 297 499 l 297 271 b 349 196 297 224 311 196 b 418 250 376 196 404 208 b 488 286 433 292 447 299 l 619 246 b 654 171 658 233 672 214 b 429 -14 615 71 546 6 l 421 -64 l 433 -64 b 547 -201 513 -65 556 -126 b 339 -340 535 -311 436 -340 "},"è":{"ha":721,"x_min":0,"x_max":0,"o":"m 196 883 b 189 939 163 896 165 911 l 263 1017 b 354 1019 290 1047 322 1039 l 547 903 b 550 850 572 889 572 876 l 511 804 b 446 800 496 786 479 789 m 358 -21 b 38 294 126 -21 38 113 l 38 426 b 365 743 38 635 153 743 b 689 439 597 743 689 606 l 689 363 b 617 290 689 318 671 290 l 296 290 l 296 264 b 369 174 296 199 317 174 b 461 218 407 174 442 179 b 519 236 475 246 482 250 l 635 194 b 661 117 674 181 681 156 b 358 -21 615 25 518 -21 m 433 458 l 433 476 b 361 560 433 536 411 560 b 296 476 314 560 296 536 l 296 458 "},"é":{"ha":721,"x_min":0,"x_max":0,"o":"m 281 800 b 215 804 247 789 231 786 l 176 850 b 179 903 154 876 154 889 l 372 1019 b 464 1017 404 1039 436 1047 l 538 939 b 531 883 561 911 564 896 l 281 800 m 358 -21 b 38 294 126 -21 38 113 l 38 426 b 365 743 38 635 153 743 b 689 439 597 743 689 606 l 689 363 b 617 290 689 318 671 290 l 296 290 l 296 264 b 369 174 296 199 317 174 b 461 218 407 174 442 179 b 519 236 475 246 482 250 l 635 194 b 661 117 674 181 681 156 b 358 -21 615 25 518 -21 m 433 458 l 433 476 b 361 560 433 536 411 560 b 296 476 314 560 296 536 l 296 458 "},"ê":{"ha":721,"x_min":0,"x_max":0,"o":"m 125 799 b 104 846 81 799 82 824 l 246 988 b 353 1029 283 1025 293 1029 l 390 1029 b 489 988 439 1029 451 1025 l 632 846 b 611 799 654 824 656 799 l 494 799 b 401 828 439 799 422 801 l 361 878 l 318 829 b 228 799 294 801 279 799 l 125 799 m 358 -21 b 38 294 126 -21 38 113 l 38 426 b 365 743 38 635 153 743 b 689 439 597 743 689 606 l 689 363 b 617 290 689 318 671 290 l 296 290 l 296 264 b 369 174 296 199 317 174 b 461 218 407 174 442 179 b 519 236 475 246 482 250 l 635 194 b 661 117 674 181 681 156 b 358 -21 615 25 518 -21 m 433 458 l 433 476 b 361 560 433 536 411 560 b 296 476 314 560 296 536 l 296 458 "},"ë":{"ha":721,"x_min":0,"x_max":0,"o":"m 206 801 b 106 901 128 801 106 828 l 106 919 b 206 1018 106 994 128 1018 l 217 1018 b 318 919 293 1018 318 994 l 318 901 b 217 801 318 828 293 801 l 206 801 m 506 801 b 403 901 428 801 403 828 l 403 919 b 506 1018 403 994 428 1018 l 515 1018 b 615 919 592 1018 615 994 l 615 901 b 515 801 615 828 592 801 l 506 801 m 358 -21 b 38 294 126 -21 38 113 l 38 426 b 365 743 38 635 153 743 b 689 439 597 743 689 606 l 689 363 b 617 290 689 318 671 290 l 296 290 l 296 264 b 369 174 296 199 317 174 b 461 218 407 174 442 179 b 519 236 475 246 482 250 l 635 194 b 661 117 674 181 681 156 b 358 -21 615 25 518 -21 m 433 458 l 433 476 b 361 560 433 536 411 560 b 296 476 314 560 296 536 l 296 458 "},"ì":{"ha":374,"x_min":0,"x_max":0,"o":"m 22 883 b 15 939 -11 896 -8 911 l 89 1017 b 181 1019 117 1047 149 1039 l 374 903 b 376 850 399 889 399 876 l 338 804 b 272 800 322 786 306 789 m 110 0 b 57 53 71 0 57 14 l 57 669 b 110 722 57 708 71 722 l 263 722 b 315 669 303 722 315 708 l 315 53 b 263 0 315 14 303 0 l 110 0 "},"í":{"ha":374,"x_min":0,"x_max":0,"o":"m 107 800 b 42 804 74 789 57 786 l 3 850 b 6 903 -19 876 -19 889 l 199 1019 b 290 1017 231 1039 263 1047 l 364 939 b 357 883 388 911 390 896 l 107 800 m 110 0 b 57 53 71 0 57 14 l 57 669 b 110 722 57 708 71 722 l 263 722 b 315 669 303 722 315 708 l 315 53 b 263 0 315 14 303 0 l 110 0 "},"î":{"ha":374,"x_min":0,"x_max":0,"o":"m -37 796 b -60 843 -82 796 -79 821 l 71 982 b 176 1021 106 1018 118 1021 l 213 1021 b 310 982 261 1021 274 1018 l 440 843 b 419 796 461 821 464 796 l 308 796 b 217 825 254 796 235 799 l 185 874 l 149 825 b 61 796 129 797 111 796 l -37 796 m 110 0 b 57 53 71 0 57 14 l 57 669 b 110 722 57 708 71 722 l 263 722 b 315 669 303 722 315 708 l 315 53 b 263 0 315 14 303 0 l 110 0 "},"ï":{"ha":374,"x_min":0,"x_max":0,"o":"m 39 801 b -61 901 -39 801 -61 828 l -61 919 b 39 1018 -61 994 -39 1018 l 50 1018 b 151 919 126 1018 151 994 l 151 901 b 50 801 151 828 126 801 l 39 801 m 326 801 b 224 901 249 801 224 828 l 224 919 b 326 1018 224 994 249 1018 l 336 1018 b 436 919 413 1018 436 994 l 436 901 b 336 801 436 828 413 801 l 326 801 m 110 0 b 57 53 71 0 57 14 l 57 669 b 110 722 57 708 71 722 l 263 722 b 315 669 303 722 315 708 l 315 53 b 263 0 315 14 303 0 l 110 0 "},"ð":{"ha":739,"x_min":0,"x_max":0,"o":"m 364 -21 b 38 274 150 -21 38 85 l 38 404 b 332 681 38 585 154 681 b 467 643 393 681 436 667 b 419 767 463 707 447 738 l 385 725 b 350 724 371 708 365 713 l 308 753 b 303 788 294 763 290 771 l 322 814 b 178 822 303 819 286 822 b 122 878 135 822 124 836 l 121 976 b 176 1033 121 1018 135 1033 b 485 996 311 1033 407 1024 l 532 1053 b 568 1057 544 1068 553 1069 l 610 1021 b 614 983 628 1006 626 997 l 572 938 b 690 535 653 860 690 728 l 690 283 b 364 -21 690 94 578 -21 m 364 203 b 432 276 413 203 432 228 l 432 404 b 364 479 432 453 413 479 b 297 404 318 479 297 453 l 297 276 b 364 203 297 228 318 203 "},"ñ":{"ha":739,"x_min":0,"x_max":0,"o":"m 153 813 b 121 844 129 813 121 822 b 253 1015 121 975 172 1015 b 442 957 360 1015 396 957 b 463 988 454 957 463 967 b 489 1015 463 1007 468 1015 l 572 1015 b 606 983 599 1015 606 1004 b 469 813 606 853 557 813 b 285 869 367 813 331 869 b 264 839 272 869 264 861 b 238 813 264 819 257 813 l 153 813 m 106 0 b 56 53 69 0 56 14 l 56 608 b 110 692 56 654 67 674 b 389 743 168 715 254 743 b 689 443 593 743 689 632 l 689 53 b 638 0 689 14 675 0 l 482 0 b 429 53 444 0 429 14 l 429 433 b 364 510 429 488 408 510 b 318 504 346 510 332 508 b 314 499 315 503 314 501 l 314 53 b 264 0 314 14 303 0 l 106 0 "},"ò":{"ha":729,"x_min":0,"x_max":0,"o":"m 200 883 b 193 939 167 896 169 911 l 267 1017 b 358 1019 294 1047 326 1039 l 551 903 b 554 850 576 889 576 876 l 515 804 b 450 800 500 786 483 789 m 365 -21 b 39 283 153 -21 39 94 l 39 439 b 365 743 39 628 153 743 b 692 439 579 743 692 628 l 692 283 b 365 -21 692 94 579 -21 m 365 203 b 433 276 413 203 433 226 l 433 446 b 365 521 433 497 413 521 b 297 446 318 521 297 497 l 297 276 b 365 203 297 226 318 203 "},"ó":{"ha":729,"x_min":0,"x_max":0,"o":"m 285 800 b 219 804 251 789 235 786 l 181 850 b 183 903 158 876 158 889 l 376 1019 b 468 1017 408 1039 440 1047 l 542 939 b 535 883 565 911 568 896 l 285 800 m 365 -21 b 39 283 153 -21 39 94 l 39 439 b 365 743 39 628 153 743 b 692 439 579 743 692 628 l 692 283 b 365 -21 692 94 579 -21 m 365 203 b 433 276 413 203 433 226 l 433 446 b 365 521 433 497 413 521 b 297 446 318 521 297 497 l 297 276 b 365 203 297 226 318 203 "},"ô":{"ha":729,"x_min":0,"x_max":0,"o":"m 129 799 b 108 846 85 799 86 824 l 250 988 b 357 1029 288 1025 297 1029 l 394 1029 b 493 988 443 1029 456 1025 l 636 846 b 615 799 658 824 660 799 l 499 799 b 406 828 443 799 426 801 l 365 878 l 322 829 b 232 799 299 801 283 799 l 129 799 m 365 -21 b 39 283 153 -21 39 94 l 39 439 b 365 743 39 628 153 743 b 692 439 579 743 692 628 l 692 283 b 365 -21 692 94 579 -21 m 365 203 b 433 276 413 203 433 226 l 433 446 b 365 521 433 497 413 521 b 297 446 318 521 297 497 l 297 276 b 365 203 297 226 318 203 "},"õ":{"ha":729,"x_min":0,"x_max":0,"o":"m 149 813 b 117 844 125 813 117 822 b 249 1015 117 975 168 1015 b 438 957 356 1015 392 957 b 458 988 450 957 458 967 b 485 1015 458 1007 464 1015 l 568 1015 b 601 983 594 1015 601 1004 b 465 813 601 853 553 813 b 281 869 363 813 326 869 b 260 839 268 869 260 861 b 233 813 260 819 253 813 l 149 813 m 365 -21 b 39 283 153 -21 39 94 l 39 439 b 365 743 39 628 153 743 b 692 439 579 743 692 628 l 692 283 b 365 -21 692 94 579 -21 m 365 203 b 433 276 413 203 433 226 l 433 446 b 365 521 433 497 413 521 b 297 446 318 521 297 497 l 297 276 b 365 203 297 226 318 203 "},"ö":{"ha":729,"x_min":0,"x_max":0,"o":"m 210 801 b 110 901 132 801 110 828 l 110 919 b 210 1018 110 994 132 1018 l 221 1018 b 322 919 297 1018 322 994 l 322 901 b 221 801 322 828 297 801 l 210 801 m 510 801 b 407 901 432 801 407 828 l 407 919 b 510 1018 407 994 432 1018 l 519 1018 b 619 919 596 1018 619 994 l 619 901 b 519 801 619 828 596 801 l 510 801 m 365 -21 b 39 283 153 -21 39 94 l 39 439 b 365 743 39 628 153 743 b 692 439 579 743 692 628 l 692 283 b 365 -21 692 94 579 -21 m 365 203 b 433 276 413 203 433 226 l 433 446 b 365 521 433 497 413 521 b 297 446 318 521 297 497 l 297 276 b 365 203 297 226 318 203 "},"÷":{"ha":715,"x_min":0,"x_max":0,"o":"m 338 615 b 232 721 257 615 232 642 l 232 736 b 338 840 232 815 257 840 l 379 840 b 485 736 460 840 485 815 l 485 721 b 379 615 485 642 460 615 l 338 615 m 96 335 b 38 393 53 335 38 349 l 38 511 b 96 571 38 556 53 571 l 618 571 b 678 511 663 571 678 556 l 678 393 b 618 335 678 349 663 335 l 96 335 m 338 64 b 232 169 257 64 232 90 l 232 185 b 338 289 232 264 257 289 l 379 289 b 485 185 460 289 485 264 l 485 169 b 379 64 485 90 460 64 l 338 64 "},"ø":{"ha":729,"x_min":0,"x_max":0,"o":"m 81 -58 b 68 -32 61 -58 58 -47 l 122 60 b 39 283 68 113 39 189 l 39 439 b 365 743 39 628 153 743 b 513 719 421 743 471 735 l 533 756 b 578 775 544 775 554 775 l 658 775 b 671 749 678 775 681 764 l 615 656 b 692 439 665 603 692 529 l 692 283 b 365 -21 692 94 579 -21 b 228 -1 314 -21 268 -14 l 206 -39 b 160 -58 194 -57 186 -58 l 81 -58 m 401 514 b 365 521 392 518 379 521 b 297 446 318 521 297 497 l 297 369 l 297 338 m 365 203 b 433 276 413 203 433 226 l 433 336 l 433 361 l 342 206 b 365 203 349 204 357 203 "},"ù":{"ha":739,"x_min":0,"x_max":0,"o":"m 204 883 b 197 939 171 896 174 911 l 271 1017 b 363 1019 299 1047 331 1039 l 556 903 b 558 850 581 889 581 876 l 519 804 b 454 800 504 786 488 789 m 351 -21 b 51 279 147 -21 51 90 l 51 669 b 103 722 51 708 65 722 l 258 722 b 311 669 296 722 311 708 l 311 289 b 376 213 311 235 332 213 b 422 218 394 213 408 214 b 426 224 425 219 426 221 l 426 669 b 476 722 426 708 438 722 l 635 722 b 685 669 671 722 685 708 l 685 114 b 631 31 685 68 674 49 b 351 -21 572 7 486 -21 "},"ú":{"ha":739,"x_min":0,"x_max":0,"o":"m 289 800 b 224 804 256 789 239 786 l 185 850 b 188 903 163 876 163 889 l 381 1019 b 472 1017 413 1039 444 1047 l 546 939 b 539 883 569 911 572 896 l 289 800 m 351 -21 b 51 279 147 -21 51 90 l 51 669 b 103 722 51 708 65 722 l 258 722 b 311 669 296 722 311 708 l 311 289 b 376 213 311 235 332 213 b 422 218 394 213 408 214 b 426 224 425 219 426 221 l 426 669 b 476 722 426 708 438 722 l 635 722 b 685 669 671 722 685 708 l 685 114 b 631 31 685 68 674 49 b 351 -21 572 7 486 -21 "},"û":{"ha":739,"x_min":0,"x_max":0,"o":"m 133 799 b 113 846 89 799 90 824 l 254 988 b 361 1029 292 1025 301 1029 l 399 1029 b 497 988 447 1029 460 1025 l 640 846 b 619 799 663 824 664 799 l 503 799 b 410 828 447 799 431 801 l 369 878 l 326 829 b 236 799 303 801 288 799 l 133 799 m 351 -21 b 51 279 147 -21 51 90 l 51 669 b 103 722 51 708 65 722 l 258 722 b 311 669 296 722 311 708 l 311 289 b 376 213 311 235 332 213 b 422 218 394 213 408 214 b 426 224 425 219 426 221 l 426 669 b 476 722 426 708 438 722 l 635 722 b 685 669 671 722 685 708 l 685 114 b 631 31 685 68 674 49 b 351 -21 572 7 486 -21 "},"ü":{"ha":739,"x_min":0,"x_max":0,"o":"m 214 801 b 114 901 136 801 114 828 l 114 919 b 214 1018 114 994 136 1018 l 225 1018 b 326 919 301 1018 326 994 l 326 901 b 225 801 326 828 301 801 l 214 801 m 514 801 b 411 901 436 801 411 828 l 411 919 b 514 1018 411 994 436 1018 l 524 1018 b 624 919 600 1018 624 994 l 624 901 b 524 801 624 828 600 801 l 514 801 m 351 -21 b 51 279 147 -21 51 90 l 51 669 b 103 722 51 708 65 722 l 258 722 b 311 669 296 722 311 708 l 311 289 b 376 213 311 235 332 213 b 422 218 394 213 408 214 b 426 224 425 219 426 221 l 426 669 b 476 722 426 708 438 722 l 635 722 b 685 669 671 722 685 708 l 685 114 b 631 31 685 68 674 49 b 351 -21 572 7 486 -21 "},"ý":{"ha":743,"x_min":0,"x_max":0,"o":"m 289 800 b 224 804 256 789 239 786 l 185 850 b 188 903 163 876 163 889 l 381 1019 b 472 1017 413 1039 444 1047 l 546 939 b 539 883 569 911 572 896 l 289 800 m 374 -319 b 72 -182 224 -319 133 -274 b 99 -104 47 -144 65 -119 l 224 -44 b 293 -65 263 -26 278 -37 b 364 -107 307 -92 332 -107 b 425 -28 411 -107 425 -79 l 425 26 b 350 21 404 22 358 21 b 50 321 146 21 50 132 l 50 669 b 103 722 50 708 64 722 l 256 722 b 308 669 294 722 308 708 l 308 331 b 376 254 308 276 326 254 b 426 260 390 254 411 256 l 426 669 b 476 722 426 708 439 722 l 635 722 b 685 669 669 722 685 708 l 685 1 b 374 -319 685 -183 604 -319 "},"þ":{"ha":729,"x_min":0,"x_max":0,"o":"m 108 -304 b 56 -251 69 -304 56 -292 l 56 974 b 108 1028 56 1014 69 1028 l 263 1028 b 315 974 301 1028 315 1014 l 315 739 b 389 743 342 742 357 743 b 690 443 589 743 690 632 l 690 293 b 385 -21 690 89 581 -21 b 314 -14 356 -21 342 -19 l 314 -251 b 261 -304 314 -292 301 -304 l 108 -304 m 364 203 b 432 275 404 203 432 224 l 432 453 b 371 518 432 497 403 518 b 315 513 346 518 333 517 l 315 208 b 364 203 333 204 343 203 "},"ÿ":{"ha":743,"x_min":0,"x_max":0,"o":"m 214 801 b 114 901 136 801 114 828 l 114 919 b 214 1018 114 994 136 1018 l 225 1018 b 326 919 301 1018 326 994 l 326 901 b 225 801 326 828 301 801 l 214 801 m 514 801 b 411 901 436 801 411 828 l 411 919 b 514 1018 411 994 436 1018 l 524 1018 b 624 919 600 1018 624 994 l 624 901 b 524 801 624 828 600 801 l 514 801 m 374 -319 b 72 -182 224 -319 133 -274 b 99 -104 47 -144 65 -119 l 224 -44 b 293 -65 263 -26 278 -37 b 364 -107 307 -92 332 -107 b 425 -28 411 -107 425 -79 l 425 26 b 350 21 404 22 358 21 b 50 321 146 21 50 132 l 50 669 b 103 722 50 708 64 722 l 256 722 b 308 669 294 722 308 708 l 308 331 b 376 254 308 276 326 254 b 426 260 390 254 411 256 l 426 669 b 476 722 426 708 439 722 l 635 722 b 685 669 669 722 685 708 l 685 1 b 374 -319 685 -183 604 -319 "},"Ā":{"ha":900,"x_min":0,"x_max":0,"o":"m 279 1081 b 229 1131 240 1081 229 1090 l 229 1189 b 279 1239 229 1229 244 1239 l 618 1239 b 668 1189 657 1239 668 1229 l 668 1131 b 618 1081 668 1090 657 1081 l 279 1081 m 39 0 b 6 57 1 0 -7 19 l 290 938 b 360 986 303 978 321 986 l 538 986 b 606 940 575 986 594 976 l 894 57 b 856 0 907 19 894 0 l 700 0 b 599 58 629 0 608 15 l 574 160 l 317 160 l 289 58 b 193 0 278 15 260 0 l 39 0 m 521 378 l 481 539 b 451 733 464 608 454 690 l 440 733 b 413 540 438 690 429 607 l 374 378 "},"ā":{"ha":700,"x_min":0,"x_max":0,"o":"m 176 828 b 126 878 138 828 126 838 l 126 936 b 176 986 126 976 142 986 l 515 986 b 565 936 554 986 565 976 l 565 878 b 515 828 565 838 554 828 l 176 828 m 343 -21 b 29 210 119 -21 29 44 b 343 440 29 375 119 440 b 394 439 357 440 378 440 l 394 482 b 340 546 394 533 371 546 b 268 499 308 546 285 524 b 193 481 251 474 240 463 l 88 521 b 60 594 53 533 40 554 b 353 743 107 690 201 743 b 651 457 565 743 651 642 l 651 101 b 601 18 651 50 640 35 b 343 -21 549 -6 464 -21 m 340 156 b 388 158 358 156 372 156 b 394 167 393 160 394 161 l 394 267 b 343 268 376 268 357 268 b 282 211 301 268 282 250 b 340 156 282 174 300 156 "},"Ă":{"ha":900,"x_min":0,"x_max":0,"o":"m 449 1047 b 204 1194 326 1047 239 1100 b 228 1243 194 1221 201 1232 l 319 1278 b 372 1261 350 1289 358 1285 b 449 1215 389 1231 413 1215 b 524 1261 483 1215 506 1231 b 574 1279 538 1285 544 1288 l 671 1243 b 694 1194 697 1233 704 1221 b 449 1047 658 1100 572 1047 m 39 0 b 6 57 1 0 -7 19 l 290 938 b 360 986 303 978 321 986 l 538 986 b 606 940 575 986 594 976 l 894 57 b 856 0 907 19 894 0 l 700 0 b 599 58 629 0 608 15 l 574 160 l 317 160 l 289 58 b 193 0 278 15 260 0 l 39 0 m 521 378 l 481 539 b 451 733 464 608 454 690 l 440 733 b 413 540 438 690 429 607 l 374 378 "},"ă":{"ha":700,"x_min":0,"x_max":0,"o":"m 346 797 b 101 944 224 797 136 849 b 125 993 92 971 99 982 l 217 1028 b 269 1011 247 1039 256 1033 b 346 965 286 979 310 965 b 421 1011 381 965 403 979 b 471 1028 435 1033 442 1038 l 568 993 b 592 944 594 982 601 971 b 346 797 556 849 469 797 m 343 -21 b 29 210 119 -21 29 44 b 343 440 29 375 119 440 b 394 439 357 440 378 440 l 394 482 b 340 546 394 533 371 546 b 268 499 308 546 285 524 b 193 481 251 474 240 463 l 88 521 b 60 594 53 533 40 554 b 353 743 107 690 201 743 b 651 457 565 743 651 642 l 651 101 b 601 18 651 50 640 35 b 343 -21 549 -6 464 -21 m 340 156 b 388 158 358 156 372 156 b 394 167 393 160 394 161 l 394 267 b 343 268 376 268 357 268 b 282 211 301 268 282 250 b 340 156 282 174 300 156 "},"Ą":{"ha":900,"x_min":0,"x_max":0,"o":"m 753 -342 b 604 -249 688 -342 619 -326 b 711 0 588 -164 639 -75 b 599 58 632 0 610 11 l 574 160 l 317 160 l 289 58 b 193 0 278 15 260 0 l 39 0 b 6 57 1 0 -7 19 l 290 938 b 360 986 303 978 321 986 l 538 986 b 606 940 575 986 594 976 l 894 57 b 892 11 901 36 900 21 b 801 -161 819 -68 799 -131 b 828 -186 804 -176 814 -186 b 853 -178 836 -186 844 -183 b 886 -186 868 -168 879 -172 l 914 -251 b 907 -293 922 -272 921 -283 b 753 -342 868 -324 808 -342 m 521 378 l 481 539 b 451 733 464 608 454 690 l 440 733 b 413 540 438 690 429 607 l 374 378 "},"ą":{"ha":700,"x_min":0,"x_max":0,"o":"m 497 -342 b 349 -249 432 -342 364 -326 b 439 -17 333 -171 375 -87 b 343 -21 410 -19 378 -21 b 29 210 119 -21 29 44 b 343 440 29 375 119 440 b 394 439 357 440 378 440 l 394 482 b 340 546 394 533 371 546 b 268 499 308 546 285 524 b 193 481 251 474 240 463 l 88 521 b 60 594 53 533 40 554 b 353 743 107 690 201 743 b 651 457 565 743 651 642 l 651 101 b 633 33 651 68 646 47 b 546 -161 543 -60 543 -131 b 572 -186 549 -176 558 -186 b 597 -178 581 -186 589 -183 b 631 -186 613 -168 624 -172 l 658 -251 b 651 -293 667 -272 665 -283 b 497 -342 613 -324 553 -342 m 340 156 b 388 158 358 156 372 156 b 394 167 393 160 394 161 l 394 267 b 343 268 376 268 357 268 b 282 211 301 268 282 250 b 340 156 282 174 300 156 "},"Ć":{"ha":849,"x_min":0,"x_max":0,"o":"m 365 1051 b 301 1058 332 1042 317 1039 l 264 1104 b 267 1157 242 1131 243 1143 l 463 1269 b 554 1265 494 1288 526 1296 l 625 1185 b 618 1129 650 1157 651 1142 l 365 1051 m 444 -21 b 46 368 189 -21 46 128 l 46 618 b 444 1007 46 858 189 1007 b 819 763 646 1007 767 917 b 783 688 833 722 822 700 l 636 642 b 567 679 594 629 581 636 b 446 764 546 742 506 764 b 321 619 358 764 321 722 l 321 367 b 447 222 321 264 358 222 b 567 307 507 222 547 247 b 638 346 581 350 597 358 l 788 299 b 824 224 826 286 838 264 b 444 -21 769 68 646 -21 "},"ć":{"ha":682,"x_min":0,"x_max":0,"o":"m 276 800 b 211 804 243 789 226 786 l 172 850 b 175 903 150 876 150 889 l 368 1019 b 460 1017 400 1039 432 1047 l 533 939 b 526 883 557 911 560 896 l 276 800 m 349 -21 b 39 286 132 -21 39 96 l 39 438 b 363 743 39 625 138 743 b 653 550 528 743 618 657 b 619 476 667 508 658 486 l 485 440 b 414 479 444 429 428 438 b 351 526 400 521 376 526 b 297 451 314 526 297 499 l 297 271 b 349 196 297 224 311 196 b 418 250 376 196 404 208 b 488 286 433 292 447 299 l 619 246 b 654 171 658 233 672 214 b 349 -21 607 50 515 -21 "},"Ĉ":{"ha":849,"x_min":0,"x_max":0,"o":"m 206 1047 b 183 1094 160 1047 163 1072 l 325 1236 b 432 1278 363 1274 374 1278 l 476 1278 b 575 1236 526 1278 538 1274 l 718 1094 b 697 1047 740 1072 742 1047 l 581 1047 b 488 1076 525 1047 508 1050 l 449 1126 l 404 1078 b 314 1047 382 1050 367 1047 l 206 1047 m 444 -21 b 46 368 189 -21 46 128 l 46 618 b 444 1007 46 858 189 1007 b 819 763 646 1007 767 917 b 783 688 833 722 822 700 l 636 642 b 567 679 594 629 581 636 b 446 764 546 742 506 764 b 321 619 358 764 321 722 l 321 367 b 447 222 321 264 358 222 b 567 307 507 222 547 247 b 638 346 581 350 597 358 l 788 299 b 824 224 826 286 838 264 b 444 -21 769 68 646 -21 "},"ĉ":{"ha":682,"x_min":0,"x_max":0,"o":"m 121 799 b 100 846 76 799 78 824 l 242 988 b 349 1029 279 1025 289 1029 l 386 1029 b 485 988 435 1029 447 1025 l 628 846 b 607 799 650 824 651 799 l 490 799 b 397 828 435 799 418 801 l 357 878 l 314 829 b 224 799 290 801 275 799 l 121 799 m 349 -21 b 39 286 132 -21 39 96 l 39 438 b 363 743 39 625 138 743 b 653 550 528 743 618 657 b 619 476 667 508 658 486 l 485 440 b 414 479 444 429 428 438 b 351 526 400 521 376 526 b 297 451 314 526 297 499 l 297 271 b 349 196 297 224 311 196 b 418 250 376 196 404 208 b 488 286 433 292 447 299 l 619 246 b 654 171 658 233 672 214 b 349 -21 607 50 515 -21 "},"Ċ":{"ha":849,"x_min":0,"x_max":0,"o":"m 444 1051 b 340 1156 364 1051 340 1075 l 340 1167 b 444 1271 340 1247 364 1271 l 453 1271 b 557 1167 533 1271 557 1247 l 557 1156 b 453 1051 557 1075 533 1051 l 444 1051 m 444 -21 b 46 368 189 -21 46 128 l 46 618 b 444 1007 46 858 189 1007 b 819 763 646 1007 767 917 b 783 688 833 722 822 700 l 636 642 b 567 679 594 629 581 636 b 446 764 546 742 506 764 b 321 619 358 764 321 722 l 321 367 b 447 222 321 264 358 222 b 567 307 507 222 547 247 b 638 346 581 350 597 358 l 788 299 b 824 224 826 286 838 264 b 444 -21 769 68 646 -21 "},"ċ":{"ha":682,"x_min":0,"x_max":0,"o":"m 321 803 b 218 904 243 803 218 826 l 218 919 b 321 1021 218 997 242 1021 l 390 1021 b 493 919 469 1021 493 997 l 493 904 b 390 803 493 826 469 803 l 321 803 m 349 -21 b 39 286 132 -21 39 96 l 39 438 b 363 743 39 625 138 743 b 653 550 528 743 618 657 b 619 476 667 508 658 486 l 485 440 b 414 479 444 429 428 438 b 351 526 400 521 376 526 b 297 451 314 526 297 499 l 297 271 b 349 196 297 224 311 196 b 418 250 376 196 404 208 b 488 286 433 292 447 299 l 619 246 b 654 171 658 233 672 214 b 349 -21 607 50 515 -21 "},"Č":{"ha":849,"x_min":0,"x_max":0,"o":"m 429 1047 b 328 1088 376 1047 365 1050 l 188 1229 b 204 1278 165 1251 158 1278 l 321 1278 b 411 1247 375 1278 390 1274 l 454 1200 l 494 1247 b 586 1278 518 1274 535 1278 l 692 1278 b 710 1229 738 1278 732 1251 l 571 1088 b 467 1047 533 1050 522 1047 l 429 1047 m 444 -21 b 46 368 189 -21 46 128 l 46 618 b 444 1007 46 858 189 1007 b 819 763 646 1007 767 917 b 783 688 833 722 822 700 l 636 642 b 567 679 594 629 581 636 b 446 764 546 742 506 764 b 321 619 358 764 321 722 l 321 367 b 447 222 321 264 358 222 b 567 307 507 222 547 247 b 638 346 581 350 597 358 l 788 299 b 824 224 826 286 838 264 b 444 -21 769 68 646 -21 "},"č":{"ha":682,"x_min":0,"x_max":0,"o":"m 338 796 b 236 838 285 796 274 800 l 96 979 b 113 1026 74 1001 67 1026 l 229 1026 b 319 997 283 1026 299 1022 l 363 949 l 403 996 b 494 1026 426 1022 443 1026 l 600 1026 b 618 979 646 1026 640 1001 l 479 838 b 375 796 442 799 431 796 l 338 796 m 349 -21 b 39 286 132 -21 39 96 l 39 438 b 363 743 39 625 138 743 b 653 550 528 743 618 657 b 619 476 667 508 658 486 l 485 440 b 414 479 444 429 428 438 b 351 526 400 521 376 526 b 297 451 314 526 297 499 l 297 271 b 349 196 297 224 311 196 b 418 250 376 196 404 208 b 488 286 433 292 447 299 l 619 246 b 654 171 658 233 672 214 b 349 -21 607 50 515 -21 "},"Ď":{"ha":894,"x_min":0,"x_max":0,"o":"m 400 1047 b 299 1088 347 1047 336 1050 l 158 1229 b 175 1278 136 1251 129 1278 l 292 1278 b 382 1247 346 1278 361 1274 l 425 1200 l 465 1247 b 557 1278 489 1274 506 1278 l 663 1278 b 681 1229 708 1278 703 1251 l 542 1088 b 438 1047 504 1050 493 1047 l 400 1047 m 124 0 b 69 58 85 0 69 15 l 69 928 b 124 986 69 971 85 986 l 443 986 b 849 597 704 986 849 838 l 849 389 b 443 0 849 150 704 0 l 124 0 m 422 243 b 574 393 539 243 574 294 l 574 593 b 422 743 574 692 539 743 l 344 743 l 344 243 "},"ď":{"ha":863,"x_min":0,"x_max":0,"o":"m 360 -21 b 39 294 146 -21 39 88 l 39 444 b 339 743 39 640 139 743 b 414 735 363 743 392 739 l 414 975 b 463 1028 414 1015 425 1028 l 622 1028 b 672 975 658 1028 672 1015 l 672 108 b 622 26 672 61 665 49 b 360 -21 575 3 479 -21 m 758 707 b 724 746 726 707 719 715 l 747 969 b 814 1028 753 1015 768 1028 l 910 1028 b 956 969 958 1028 968 1010 l 892 754 b 825 707 881 717 864 707 l 758 707 m 361 204 b 407 210 382 204 392 206 b 413 218 411 211 413 214 l 413 511 b 361 519 394 517 381 519 b 297 450 317 519 297 496 l 297 281 b 361 204 297 231 317 204 "},"Đ":{"ha":922,"x_min":0,"x_max":0,"o":"m 151 0 b 97 58 113 0 97 15 l 97 411 l 47 411 b 13 447 21 411 13 418 l 13 553 b 47 589 13 581 24 589 l 97 589 l 97 928 b 151 986 97 971 113 986 l 471 986 b 876 597 732 986 876 838 l 876 389 b 471 0 876 150 732 0 l 151 0 m 450 243 b 601 393 567 243 601 294 l 601 593 b 450 743 601 692 567 743 l 372 743 l 372 589 l 458 589 b 492 553 485 589 492 581 l 492 447 b 458 411 492 418 485 411 l 372 411 l 372 243 "},"đ":{"ha":714,"x_min":0,"x_max":0,"o":"m 360 -21 b 39 294 146 -21 39 88 l 39 444 b 339 743 39 640 139 743 b 414 735 363 743 392 739 l 414 808 l 293 808 b 260 846 267 808 260 815 l 260 911 b 293 947 260 939 269 947 l 413 947 l 413 975 b 467 1028 413 1014 426 1028 l 618 1028 b 672 975 658 1028 672 1014 l 672 947 l 718 947 b 751 911 744 947 751 939 l 751 846 b 718 808 751 815 744 808 l 672 808 l 672 108 b 622 26 672 61 665 49 b 360 -21 575 3 479 -21 m 361 204 b 407 210 382 204 392 206 b 413 218 411 211 413 214 l 413 511 b 361 519 394 517 381 519 b 297 450 317 519 297 496 l 297 281 b 361 204 297 231 317 204 "},"Ē":{"ha":778,"x_min":0,"x_max":0,"o":"m 251 1081 b 201 1131 213 1081 201 1090 l 201 1189 b 251 1239 201 1229 217 1239 l 590 1239 b 640 1189 629 1239 640 1229 l 640 1131 b 590 1081 640 1090 629 1081 l 251 1081 m 128 0 b 69 58 85 0 69 15 l 69 928 b 128 986 69 971 85 986 l 672 986 b 731 928 717 986 731 971 l 731 803 b 672 743 731 758 717 743 l 344 743 l 344 619 l 599 619 b 657 561 643 619 657 604 l 657 436 b 599 376 657 392 643 376 l 344 376 l 344 243 l 683 243 b 743 185 728 243 743 229 l 743 58 b 683 0 743 15 728 0 l 128 0 "},"ē":{"ha":721,"x_min":0,"x_max":0,"o":"m 192 828 b 142 878 153 828 142 838 l 142 936 b 192 986 142 976 157 986 l 531 986 b 581 936 569 986 581 976 l 581 878 b 531 828 581 838 569 828 l 192 828 m 358 -21 b 38 294 126 -21 38 113 l 38 426 b 365 743 38 635 153 743 b 689 439 597 743 689 606 l 689 363 b 617 290 689 318 671 290 l 296 290 l 296 264 b 369 174 296 199 317 174 b 461 218 407 174 442 179 b 519 236 475 246 482 250 l 635 194 b 661 117 674 181 681 156 b 358 -21 615 25 518 -21 m 433 458 l 433 476 b 361 560 433 536 411 560 b 296 476 314 560 296 536 l 296 458 "},"Ĕ":{"ha":778,"x_min":0,"x_max":0,"o":"m 421 1047 b 176 1194 299 1047 211 1100 b 200 1243 167 1221 174 1232 l 292 1278 b 344 1261 322 1289 331 1285 b 421 1215 361 1231 385 1215 b 496 1261 456 1215 478 1231 b 546 1279 510 1285 517 1288 l 643 1243 b 667 1194 669 1233 676 1221 b 421 1047 631 1100 544 1047 m 128 0 b 69 58 85 0 69 15 l 69 928 b 128 986 69 971 85 986 l 672 986 b 731 928 717 986 731 971 l 731 803 b 672 743 731 758 717 743 l 344 743 l 344 619 l 599 619 b 657 561 643 619 657 604 l 657 436 b 599 376 657 392 643 376 l 344 376 l 344 243 l 683 243 b 743 185 728 243 743 229 l 743 58 b 683 0 743 15 728 0 l 128 0 "},"ĕ":{"ha":721,"x_min":0,"x_max":0,"o":"m 361 797 b 117 944 239 797 151 849 b 140 993 107 971 114 982 l 232 1028 b 285 1011 263 1039 271 1033 b 361 965 301 979 325 965 b 436 1011 396 965 418 979 b 486 1028 450 1033 457 1038 l 583 993 b 607 944 610 982 617 971 b 361 797 571 849 485 797 m 358 -21 b 38 294 126 -21 38 113 l 38 426 b 365 743 38 635 153 743 b 689 439 597 743 689 606 l 689 363 b 617 290 689 318 671 290 l 296 290 l 296 264 b 369 174 296 199 317 174 b 461 218 407 174 442 179 b 519 236 475 246 482 250 l 635 194 b 661 117 674 181 681 156 b 358 -21 615 25 518 -21 m 433 458 l 433 476 b 361 560 433 536 411 560 b 296 476 314 560 296 536 l 296 458 "},"Ė":{"ha":778,"x_min":0,"x_max":0,"o":"m 417 1051 b 313 1156 336 1051 313 1075 l 313 1167 b 417 1271 313 1247 336 1271 l 425 1271 b 529 1167 506 1271 529 1247 l 529 1156 b 425 1051 529 1075 506 1051 l 417 1051 m 128 0 b 69 58 85 0 69 15 l 69 928 b 128 986 69 971 85 986 l 672 986 b 731 928 717 986 731 971 l 731 803 b 672 743 731 758 717 743 l 344 743 l 344 619 l 599 619 b 657 561 643 619 657 604 l 657 436 b 599 376 657 392 643 376 l 344 376 l 344 243 l 683 243 b 743 185 728 243 743 229 l 743 58 b 683 0 743 15 728 0 l 128 0 "},"ė":{"ha":721,"x_min":0,"x_max":0,"o":"m 325 803 b 222 904 247 803 222 826 l 222 919 b 325 1021 222 997 246 1021 l 394 1021 b 497 919 474 1021 497 997 l 497 904 b 394 803 497 826 474 803 l 325 803 m 358 -21 b 38 294 126 -21 38 113 l 38 426 b 365 743 38 635 153 743 b 689 439 597 743 689 606 l 689 363 b 617 290 689 318 671 290 l 296 290 l 296 264 b 369 174 296 199 317 174 b 461 218 407 174 442 179 b 519 236 475 246 482 250 l 635 194 b 661 117 674 181 681 156 b 358 -21 615 25 518 -21 m 433 458 l 433 476 b 361 560 433 536 411 560 b 296 476 314 560 296 536 l 296 458 "},"Ę":{"ha":778,"x_min":0,"x_max":0,"o":"m 581 -342 b 433 -246 514 -342 449 -321 b 540 0 415 -164 467 -69 l 128 0 b 69 58 85 0 69 15 l 69 928 b 128 986 69 971 85 986 l 672 986 b 731 928 717 986 731 971 l 731 803 b 672 743 731 758 717 743 l 344 743 l 344 619 l 599 619 b 657 561 643 619 657 604 l 657 436 b 599 376 657 392 643 376 l 344 376 l 344 243 l 683 243 b 743 185 728 243 743 229 l 743 58 b 729 13 743 36 738 24 b 632 -161 685 -39 625 -97 b 658 -186 635 -176 643 -186 b 681 -178 665 -186 672 -183 b 714 -186 696 -168 708 -172 l 742 -251 b 735 -293 751 -272 749 -283 b 581 -342 694 -325 638 -342 "},"ę":{"ha":719,"x_min":0,"x_max":0,"o":"m 458 -342 b 310 -249 393 -342 325 -326 b 400 -19 294 -171 335 -90 b 358 -21 388 -21 372 -21 b 38 294 126 -21 38 113 l 38 426 b 365 743 38 635 153 743 b 689 439 597 743 689 606 l 689 363 b 617 290 689 318 671 290 l 296 290 l 296 264 b 369 174 296 199 317 174 b 461 218 407 174 442 179 b 519 236 475 246 482 250 l 635 194 b 661 117 674 181 681 156 b 604 44 647 89 628 64 b 508 -161 506 -61 504 -131 b 533 -186 511 -176 519 -186 b 560 -178 542 -186 550 -183 b 592 -186 574 -168 586 -172 l 621 -251 b 613 -293 629 -272 626 -283 b 458 -342 574 -324 514 -342 m 433 458 l 433 476 b 361 560 433 536 411 560 b 296 476 314 560 296 536 l 296 458 "},"Ě":{"ha":778,"x_min":0,"x_max":0,"o":"m 401 1047 b 300 1088 349 1047 338 1050 l 160 1229 b 176 1278 138 1251 131 1278 l 293 1278 b 383 1247 347 1278 363 1274 l 426 1200 l 467 1247 b 558 1278 490 1274 507 1278 l 664 1278 b 682 1229 710 1278 704 1251 l 543 1088 b 439 1047 506 1050 494 1047 l 401 1047 m 128 0 b 69 58 85 0 69 15 l 69 928 b 128 986 69 971 85 986 l 672 986 b 731 928 717 986 731 971 l 731 803 b 672 743 731 758 717 743 l 344 743 l 344 619 l 599 619 b 657 561 643 619 657 604 l 657 436 b 599 376 657 392 643 376 l 344 376 l 344 243 l 683 243 b 743 185 728 243 743 229 l 743 58 b 683 0 743 15 728 0 l 128 0 "},"ě":{"ha":721,"x_min":0,"x_max":0,"o":"m 342 796 b 240 838 289 796 278 800 l 100 979 b 117 1026 78 1001 71 1026 l 233 1026 b 324 997 288 1026 303 1022 l 367 949 l 407 996 b 499 1026 431 1022 447 1026 l 604 1026 b 622 979 650 1026 644 1001 l 483 838 b 379 796 446 799 435 796 l 342 796 m 358 -21 b 38 294 126 -21 38 113 l 38 426 b 365 743 38 635 153 743 b 689 439 597 743 689 606 l 689 363 b 617 290 689 318 671 290 l 296 290 l 296 264 b 369 174 296 199 317 174 b 461 218 407 174 442 179 b 519 236 475 246 482 250 l 635 194 b 661 117 674 181 681 156 b 358 -21 615 25 518 -21 m 433 458 l 433 476 b 361 560 433 536 411 560 b 296 476 314 560 296 536 l 296 458 "},"Ĝ":{"ha":890,"x_min":0,"x_max":0,"o":"m 206 1061 b 183 1108 160 1061 163 1086 l 325 1250 b 432 1292 363 1288 374 1292 l 476 1292 b 575 1250 526 1292 538 1288 l 718 1108 b 697 1061 740 1086 742 1061 l 581 1061 b 488 1090 525 1061 508 1064 l 449 1140 l 404 1092 b 314 1061 382 1064 367 1061 l 206 1061 m 447 -21 b 46 368 192 -21 46 128 l 46 618 b 447 1007 46 858 192 1007 b 833 764 649 1007 779 919 b 797 689 847 724 836 701 l 644 642 b 574 679 604 629 589 636 b 450 764 553 742 513 764 b 321 619 350 764 321 717 l 321 367 b 457 222 321 269 357 222 b 579 317 543 222 579 257 l 579 344 l 464 344 b 410 403 422 344 410 358 l 410 507 b 464 567 410 551 422 567 l 793 567 b 850 507 835 567 850 551 l 850 324 b 447 -21 850 128 710 -21 "},"ĝ":{"ha":724,"x_min":0,"x_max":0,"o":"m 128 799 b 107 846 83 799 85 824 l 249 988 b 356 1029 286 1025 296 1029 l 393 1029 b 492 988 442 1029 454 1025 l 635 846 b 614 799 657 824 658 799 l 497 799 b 404 828 442 799 425 801 l 364 878 l 321 829 b 231 799 297 801 282 799 l 128 799 m 357 -322 b 60 -179 206 -322 118 -271 b 88 -100 36 -142 50 -117 l 211 -44 b 276 -61 249 -28 264 -37 b 346 -107 292 -87 307 -107 b 410 -28 393 -107 410 -79 l 410 28 b 332 19 386 24 356 19 b 38 318 135 19 38 129 l 38 436 b 354 743 38 639 144 743 b 611 700 474 743 563 725 b 668 615 653 679 668 661 l 668 -7 b 357 -322 668 -192 589 -322 m 354 243 b 410 250 383 243 393 244 l 410 504 b 404 511 410 508 408 510 b 360 519 394 515 382 519 b 297 447 315 519 297 500 l 297 313 b 354 243 297 263 319 243 "},"Ğ":{"ha":890,"x_min":0,"x_max":0,"o":"m 449 1061 b 204 1208 326 1061 239 1114 b 228 1257 194 1235 201 1246 l 319 1292 b 372 1275 350 1303 358 1299 b 449 1229 389 1244 413 1229 b 524 1275 483 1229 506 1244 b 574 1293 538 1299 544 1301 l 671 1257 b 694 1208 697 1247 704 1235 b 449 1061 658 1114 572 1061 m 447 -21 b 46 368 192 -21 46 128 l 46 618 b 447 1007 46 858 192 1007 b 833 764 649 1007 779 919 b 797 689 847 724 836 701 l 644 642 b 574 679 604 629 589 636 b 450 764 553 742 513 764 b 321 619 350 764 321 717 l 321 367 b 457 222 321 269 357 222 b 579 317 543 222 579 257 l 579 344 l 464 344 b 410 403 422 344 410 358 l 410 507 b 464 567 410 551 422 567 l 793 567 b 850 507 835 567 850 551 l 850 324 b 447 -21 850 128 710 -21 "},"ğ":{"ha":724,"x_min":0,"x_max":0,"o":"m 364 797 b 119 944 242 797 154 849 b 143 993 110 971 117 982 l 235 1028 b 288 1011 265 1039 274 1033 b 364 965 304 979 328 965 b 439 1011 399 965 421 979 b 489 1028 453 1033 460 1038 l 586 993 b 610 944 613 982 619 971 b 364 797 574 849 488 797 m 357 -322 b 60 -179 206 -322 118 -271 b 88 -100 36 -142 50 -117 l 211 -44 b 276 -61 249 -28 264 -37 b 346 -107 292 -87 307 -107 b 410 -28 393 -107 410 -79 l 410 28 b 332 19 386 24 356 19 b 38 318 135 19 38 129 l 38 436 b 354 743 38 639 144 743 b 611 700 474 743 563 725 b 668 615 653 679 668 661 l 668 -7 b 357 -322 668 -192 589 -322 m 354 243 b 410 250 383 243 393 244 l 410 504 b 404 511 410 508 408 510 b 360 519 394 515 382 519 b 297 447 315 519 297 500 l 297 313 b 354 243 297 263 319 243 "},"Ġ":{"ha":890,"x_min":0,"x_max":0,"o":"m 444 1065 b 340 1169 364 1065 340 1089 l 340 1181 b 444 1285 340 1261 364 1285 l 453 1285 b 557 1181 533 1285 557 1261 l 557 1169 b 453 1065 557 1089 533 1065 l 444 1065 m 447 -21 b 46 368 192 -21 46 128 l 46 618 b 447 1007 46 858 192 1007 b 833 764 649 1007 779 919 b 797 689 847 724 836 701 l 644 642 b 574 679 604 629 589 636 b 450 764 553 742 513 764 b 321 619 350 764 321 717 l 321 367 b 457 222 321 269 357 222 b 579 317 543 222 579 257 l 579 344 l 464 344 b 410 403 422 344 410 358 l 410 507 b 464 567 410 551 422 567 l 793 567 b 850 507 835 567 850 551 l 850 324 b 447 -21 850 128 710 -21 "},"ġ":{"ha":724,"x_min":0,"x_max":0,"o":"m 328 803 b 225 904 250 803 225 826 l 225 919 b 328 1021 225 997 249 1021 l 397 1021 b 500 919 476 1021 500 997 l 500 904 b 397 803 500 826 476 803 l 328 803 m 357 -322 b 60 -179 206 -322 118 -271 b 88 -100 36 -142 50 -117 l 211 -44 b 276 -61 249 -28 264 -37 b 346 -107 292 -87 307 -107 b 410 -28 393 -107 410 -79 l 410 28 b 332 19 386 24 356 19 b 38 318 135 19 38 129 l 38 436 b 354 743 38 639 144 743 b 611 700 474 743 563 725 b 668 615 653 679 668 661 l 668 -7 b 357 -322 668 -192 589 -322 m 354 243 b 410 250 383 243 393 244 l 410 504 b 404 511 410 508 408 510 b 360 519 394 515 382 519 b 297 447 315 519 297 500 l 297 313 b 354 243 297 263 319 243 "},"Ģ":{"ha":890,"x_min":0,"x_max":0,"o":"m 447 -21 b 46 368 192 -21 46 128 l 46 618 b 447 1007 46 858 192 1007 b 833 764 649 1007 779 919 b 797 689 847 724 836 701 l 644 642 b 574 679 604 629 589 636 b 450 764 553 742 513 764 b 321 619 350 764 321 717 l 321 367 b 457 222 321 269 357 222 b 579 317 543 222 579 257 l 579 344 l 464 344 b 410 403 422 344 410 358 l 410 507 b 464 567 410 551 422 567 l 793 567 b 850 507 835 567 850 551 l 850 324 b 447 -21 850 128 710 -21 m 361 -361 b 325 -319 332 -361 321 -350 l 347 -125 b 408 -67 351 -83 367 -67 l 533 -67 b 581 -125 582 -67 593 -89 l 513 -315 b 450 -361 501 -347 486 -361 l 361 -361 "},"ģ":{"ha":724,"x_min":0,"x_max":0,"o":"m 314 792 b 268 854 264 792 251 814 l 321 985 b 393 1033 336 1024 351 1033 l 474 1033 b 510 993 507 1033 514 1024 l 492 854 b 424 792 485 806 471 792 l 314 792 m 357 -322 b 60 -179 206 -322 118 -271 b 88 -100 36 -142 50 -117 l 211 -44 b 276 -61 249 -28 264 -37 b 346 -107 292 -87 307 -107 b 410 -28 393 -107 410 -79 l 410 28 b 332 19 386 24 356 19 b 38 318 135 19 38 129 l 38 436 b 354 743 38 639 144 743 b 611 700 474 743 563 725 b 668 615 653 679 668 661 l 668 -7 b 357 -322 668 -192 589 -322 m 354 243 b 410 250 383 243 393 244 l 410 504 b 404 511 410 508 408 510 b 360 519 394 515 382 519 b 297 447 315 519 297 500 l 297 313 b 354 243 297 263 319 243 "},"Ĥ":{"ha":914,"x_min":0,"x_max":0,"o":"m 211 1047 b 189 1094 165 1047 168 1072 l 331 1236 b 438 1278 368 1274 379 1278 l 482 1278 b 581 1236 532 1278 543 1274 l 724 1094 b 703 1047 746 1072 747 1047 l 586 1047 b 493 1076 531 1047 514 1050 l 454 1126 l 410 1078 b 319 1047 388 1050 372 1047 l 211 1047 m 128 0 b 69 58 85 0 69 15 l 69 926 b 128 986 69 971 85 986 l 286 986 b 344 926 329 986 344 971 l 344 621 l 569 621 l 569 926 b 628 986 569 971 583 986 l 785 986 b 844 926 829 986 844 971 l 844 58 b 785 0 844 15 829 0 l 628 0 b 569 58 583 0 569 15 l 569 378 l 344 378 l 344 58 b 286 0 344 15 329 0 l 128 0 "},"ĥ":{"ha":743,"x_min":0,"x_max":0,"o":"m -51 1072 b -74 1119 -97 1072 -94 1097 l 68 1261 b 175 1303 106 1299 117 1303 l 219 1303 b 318 1261 269 1303 281 1299 l 461 1119 b 440 1072 483 1097 485 1072 l 324 1072 b 231 1101 268 1072 251 1075 l 192 1151 l 147 1103 b 57 1072 125 1075 110 1072 l -51 1072 m 108 0 b 58 53 72 0 58 14 l 58 975 b 108 1028 58 1014 72 1028 l 264 1028 b 314 975 303 1028 314 1014 l 317 736 b 403 743 346 742 368 743 b 693 456 613 743 693 640 l 693 53 b 640 0 693 14 678 0 l 486 0 b 435 53 449 0 435 14 l 435 433 b 367 511 435 486 417 511 b 317 504 342 511 333 508 l 317 53 b 267 0 317 14 306 0 l 108 0 "},"Ħ":{"ha":960,"x_min":0,"x_max":0,"o":"m 150 0 b 92 58 106 0 92 15 l 92 725 l 40 725 b 7 761 14 725 7 732 l 7 836 b 40 872 7 864 18 872 l 92 872 l 92 926 b 150 986 92 971 106 986 l 307 986 b 367 926 351 986 367 971 l 367 872 l 592 872 l 592 926 b 651 986 592 971 607 986 l 808 986 b 867 926 853 986 867 971 l 867 872 l 919 872 b 953 836 946 872 953 864 l 953 761 b 919 725 953 732 946 725 l 867 725 l 867 58 b 808 0 867 15 853 0 l 651 0 b 592 58 607 0 592 15 l 592 378 l 367 378 l 367 58 b 307 0 367 15 351 0 l 150 0 m 593 621 l 593 725 l 367 725 l 367 621 "},"ħ":{"ha":743,"x_min":0,"x_max":0,"o":"m 108 0 b 58 53 72 0 58 14 l 58 807 l 19 807 b -15 844 -7 807 -15 814 l -15 907 b 19 943 -15 935 -4 943 l 58 943 l 58 975 b 108 1028 58 1014 72 1028 l 264 1028 b 314 975 303 1028 314 1014 l 314 943 l 444 943 b 478 907 471 943 478 935 l 478 844 b 444 807 478 814 471 807 l 315 807 l 317 736 b 403 743 346 742 368 743 b 693 456 613 743 693 640 l 693 53 b 640 0 693 14 678 0 l 486 0 b 435 53 449 0 435 14 l 435 433 b 367 511 435 486 417 511 b 317 504 342 511 333 508 l 317 53 b 267 0 317 14 306 0 l 108 0 "},"Ĩ":{"ha":415,"x_min":0,"x_max":0,"o":"m -8 1060 b -40 1092 -32 1060 -40 1071 b 92 1263 -40 1224 11 1263 b 281 1206 199 1263 235 1206 b 301 1236 293 1206 301 1214 b 328 1263 301 1256 307 1263 l 411 1263 b 444 1231 438 1263 444 1253 b 308 1060 444 1101 396 1060 b 124 1118 206 1060 169 1118 b 103 1088 111 1118 103 1108 b 76 1060 103 1068 96 1060 l -8 1060 m 125 0 b 69 56 83 0 69 14 l 69 931 b 125 986 69 972 83 986 l 289 986 b 344 931 331 986 344 972 l 344 56 b 289 0 344 14 331 0 l 125 0 "},"ĩ":{"ha":374,"x_min":0,"x_max":0,"o":"m 4 817 b -24 850 -17 817 -24 828 b 88 1025 -24 985 22 1025 b 238 967 174 1025 201 967 b 257 997 249 967 257 975 b 279 1025 257 1017 263 1025 l 349 1025 b 375 992 369 1025 375 1014 b 263 817 375 857 335 817 b 115 872 179 817 153 872 b 97 844 106 872 97 868 b 75 817 97 825 92 817 l 4 817 m 110 0 b 57 53 71 0 57 14 l 57 669 b 110 722 57 708 71 722 l 263 722 b 315 669 303 722 315 708 l 315 53 b 263 0 315 14 303 0 l 110 0 "},"Ī":{"ha":415,"x_min":0,"x_max":0,"o":"m 39 1081 b -11 1131 0 1081 -11 1090 l -11 1189 b 39 1239 -11 1229 4 1239 l 378 1239 b 428 1189 417 1239 428 1229 l 428 1131 b 378 1081 428 1090 417 1081 l 39 1081 m 125 0 b 69 56 83 0 69 14 l 69 931 b 125 986 69 972 83 986 l 289 986 b 344 931 331 986 344 972 l 344 56 b 289 0 344 14 331 0 l 125 0 "},"ī":{"ha":374,"x_min":0,"x_max":0,"o":"m 74 828 b 24 878 35 828 24 838 l 24 936 b 74 986 24 976 39 986 l 301 986 b 351 936 340 986 351 976 l 351 878 b 301 828 351 838 340 828 l 74 828 m 110 0 b 57 53 71 0 57 14 l 57 669 b 110 722 57 708 71 722 l 263 722 b 315 669 303 722 315 708 l 315 53 b 263 0 315 14 303 0 l 110 0 "},"Ĭ":{"ha":415,"x_min":0,"x_max":0,"o":"m 208 1047 b -36 1194 86 1047 -1 1100 b -12 1243 -46 1221 -39 1232 l 79 1278 b 132 1261 110 1289 118 1285 b 208 1215 149 1231 172 1215 b 283 1261 243 1215 265 1231 b 333 1279 297 1285 304 1288 l 431 1243 b 454 1194 457 1233 464 1221 b 208 1047 418 1100 332 1047 m 125 0 b 69 56 83 0 69 14 l 69 931 b 125 986 69 972 83 986 l 289 986 b 344 931 331 986 344 972 l 344 56 b 289 0 344 14 331 0 l 125 0 "},"ĭ":{"ha":374,"x_min":0,"x_max":0,"o":"m 188 797 b -51 944 65 797 -15 849 b -28 993 -61 971 -54 982 l 64 1028 b 117 1011 94 1039 103 1033 b 188 967 135 978 153 967 b 257 1011 222 967 239 978 b 307 1028 271 1033 279 1038 l 404 993 b 428 944 431 982 439 971 b 188 797 392 849 311 797 m 110 0 b 57 53 71 0 57 14 l 57 669 b 110 722 57 708 71 722 l 263 722 b 315 669 303 722 315 708 l 315 53 b 263 0 315 14 303 0 l 110 0 "},"Į":{"ha":415,"x_min":0,"x_max":0,"o":"m 197 -342 b 49 -249 132 -342 64 -326 b 149 0 32 -165 76 -74 b 69 63 82 0 69 18 l 69 931 b 125 986 69 972 83 986 l 289 986 b 344 931 331 986 344 972 l 344 56 b 326 6 344 31 339 17 b 246 -161 254 -69 243 -131 b 272 -186 249 -176 258 -186 b 297 -178 281 -186 289 -183 b 331 -186 313 -168 324 -172 l 358 -251 b 351 -293 367 -272 365 -283 b 197 -342 313 -324 253 -342 "},"į":{"ha":374,"x_min":0,"x_max":0,"o":"m 151 794 b 49 897 74 794 49 819 l 49 913 b 151 1015 49 990 74 1015 l 221 1015 b 324 913 300 1015 324 990 l 324 897 b 221 794 324 819 300 794 l 151 794 m 182 -342 b 33 -249 117 -342 49 -326 b 125 0 17 -167 57 -78 b 58 60 71 0 58 17 l 58 669 b 111 722 58 708 71 722 l 264 722 b 317 669 304 722 317 708 l 317 53 b 303 10 317 32 314 18 b 231 -161 232 -75 228 -131 b 257 -186 233 -176 243 -186 b 281 -179 265 -186 272 -185 b 314 -187 296 -169 308 -172 l 340 -251 b 333 -293 349 -272 347 -283 b 182 -342 294 -324 238 -342 "},"İ":{"ha":415,"x_min":0,"x_max":0,"o":"m 204 1051 b 100 1156 124 1051 100 1075 l 100 1167 b 204 1271 100 1247 124 1271 l 213 1271 b 317 1167 293 1271 317 1247 l 317 1156 b 213 1051 317 1075 293 1051 l 204 1051 m 125 0 b 69 56 83 0 69 14 l 69 931 b 125 986 69 972 83 986 l 289 986 b 344 931 331 986 344 972 l 344 56 b 289 0 344 14 331 0 l 125 0 "},"ı":{"ha":374,"x_min":0,"x_max":0,"o":"m 110 0 b 57 53 71 0 57 14 l 57 669 b 110 722 57 708 71 722 l 263 722 b 315 669 303 722 315 708 l 315 53 b 263 0 315 14 303 0 l 110 0 "},"Ĳ":{"ha":1188,"x_min":0,"x_max":0,"o":"m 125 0 b 69 56 83 0 69 14 l 69 931 b 125 986 69 972 83 986 l 289 986 b 344 931 331 986 344 972 l 344 56 b 289 0 344 14 331 0 l 125 0 m 765 -21 b 424 214 583 -21 479 67 b 457 286 408 254 421 274 l 608 338 b 683 303 647 351 668 344 b 775 222 703 247 733 222 b 849 342 829 222 849 261 l 849 928 b 904 986 849 971 863 986 l 1071 986 b 1124 928 1113 986 1124 971 l 1124 343 b 765 -21 1124 93 1011 -21 "},"ĳ":{"ha":750,"x_min":0,"x_max":0,"o":"m 151 803 b 49 904 74 803 49 826 l 49 919 b 151 1021 49 997 72 1021 l 221 1021 b 324 919 300 1021 324 997 l 324 904 b 221 803 324 826 300 803 l 151 803 m 526 803 b 424 904 449 803 424 826 l 424 919 b 526 1021 424 997 447 1021 l 596 1021 b 699 919 675 1021 699 997 l 699 904 b 596 803 699 826 675 803 l 526 803 m 110 0 b 57 53 71 0 57 14 l 57 669 b 110 722 57 708 71 722 l 263 722 b 315 669 303 722 315 708 l 315 53 b 263 0 315 14 303 0 l 110 0 m 367 -319 b 313 -265 326 -319 313 -306 l 313 -147 b 367 -92 313 -106 326 -92 b 432 3 435 -92 432 -57 l 432 669 b 488 722 432 708 446 722 l 636 722 b 692 669 678 722 692 708 l 692 -14 b 367 -319 692 -226 601 -319 "},"Ĵ":{"ha":772,"x_min":0,"x_max":0,"o":"m 319 1047 b 297 1094 274 1047 276 1072 l 439 1236 b 546 1278 476 1274 488 1278 l 590 1278 b 689 1236 640 1278 651 1274 l 832 1094 b 811 1047 854 1072 856 1047 l 694 1047 b 601 1076 639 1047 622 1050 l 563 1126 l 518 1078 b 428 1047 496 1050 481 1047 l 319 1047 m 350 -21 b 8 214 168 -21 64 67 b 42 286 -7 254 6 274 l 193 338 b 268 303 232 351 253 344 b 360 222 288 247 318 222 b 433 342 414 222 433 261 l 433 928 b 489 986 433 971 447 986 l 656 986 b 708 928 697 986 708 971 l 708 343 b 350 -21 708 93 596 -21 "},"ĵ":{"ha":375,"x_min":0,"x_max":0,"o":"m -44 796 b -65 843 -87 796 -86 821 l 74 982 b 178 1021 110 1017 121 1021 l 215 1021 b 313 982 263 1021 276 1019 l 442 843 b 421 796 463 819 465 796 l 317 796 b 226 825 263 796 246 800 l 186 874 l 144 825 b 57 796 122 800 107 796 l -44 796 m -8 -319 b -62 -265 -49 -319 -62 -306 l -62 -147 b -8 -92 -62 -106 -49 -92 b 57 3 60 -92 57 -57 l 57 669 b 113 722 57 708 71 722 l 261 722 b 317 669 303 722 317 708 l 317 -14 b -8 -319 317 -226 226 -319 "},"Ķ":{"ha":868,"x_min":0,"x_max":0,"o":"m 128 0 b 69 58 85 0 69 15 l 69 928 b 128 986 69 971 85 986 l 286 986 b 344 928 329 986 344 971 l 344 618 l 367 618 l 390 618 l 543 935 b 644 986 564 979 574 986 l 801 986 b 835 925 843 986 854 961 l 619 522 b 694 414 656 499 672 463 l 854 68 b 818 0 871 31 864 0 l 675 0 b 561 58 601 0 582 8 l 456 306 b 363 375 436 351 415 375 l 344 375 l 344 58 b 286 0 344 15 329 0 l 128 0 m 368 -361 b 332 -319 339 -361 328 -350 l 354 -125 b 415 -67 358 -83 374 -67 l 540 -67 b 588 -125 589 -67 600 -89 l 519 -315 b 457 -361 508 -347 493 -361 l 368 -361 "},"ķ":{"ha":732,"x_min":0,"x_max":0,"o":"m 111 0 b 58 54 69 0 58 14 l 58 974 b 111 1028 58 1014 69 1028 l 264 1028 b 315 974 303 1028 315 1014 l 317 472 l 335 472 l 340 472 l 435 672 b 531 722 456 715 472 722 l 653 722 b 697 654 707 722 719 697 l 561 390 b 597 329 574 374 586 354 l 707 71 b 665 0 728 21 721 0 l 525 0 b 439 53 475 0 454 10 l 381 215 b 328 261 369 247 358 261 l 315 261 l 315 54 b 264 0 315 14 303 0 l 111 0 m 256 -361 b 219 -319 226 -361 215 -350 l 242 -125 b 303 -67 246 -83 261 -67 l 428 -67 b 475 -125 476 -67 488 -89 l 407 -315 b 344 -361 396 -347 381 -361 l 256 -361 "},"ĸ":{"ha":735,"x_min":0,"x_max":0,"o":"m 113 0 b 57 56 71 0 57 14 l 57 668 b 113 722 57 708 71 722 l 258 722 b 314 668 301 722 314 708 l 314 514 l 411 675 b 510 722 435 715 453 722 l 667 722 b 701 661 722 722 726 697 l 528 407 l 708 68 b 665 0 732 24 722 0 l 538 0 b 429 50 471 0 450 6 l 353 210 l 314 163 l 314 56 b 258 0 314 14 301 0 l 113 0 "},"Ĺ":{"ha":718,"x_min":0,"x_max":0,"o":"m 125 1051 b 61 1058 92 1042 76 1039 l 24 1104 b 26 1157 1 1131 3 1143 l 222 1269 b 314 1265 254 1288 286 1296 l 385 1185 b 378 1129 410 1157 411 1142 l 125 1051 m 128 0 b 69 58 85 0 69 15 l 69 928 b 128 986 69 971 85 986 l 286 986 b 344 928 329 986 344 971 l 344 243 l 643 243 b 703 185 688 243 703 229 l 703 58 b 643 0 703 15 688 0 l 128 0 "},"ĺ":{"ha":378,"x_min":0,"x_max":0,"o":"m 106 1075 b 42 1082 72 1065 57 1063 l 4 1128 b 7 1181 -18 1154 -17 1167 l 203 1293 b 294 1289 235 1311 267 1319 l 365 1208 b 358 1153 390 1181 392 1165 l 106 1075 m 113 0 b 60 53 74 0 60 14 l 60 975 b 113 1028 60 1014 74 1028 l 265 1028 b 318 975 306 1028 318 1014 l 318 53 b 265 0 318 14 306 0 l 113 0 "},"Ļ":{"ha":718,"x_min":0,"x_max":0,"o":"m 128 0 b 69 58 85 0 69 15 l 69 928 b 128 986 69 971 85 986 l 286 986 b 344 928 329 986 344 971 l 344 243 l 643 243 b 703 185 688 243 703 229 l 703 58 b 643 0 703 15 688 0 l 128 0 m 293 -361 b 257 -319 264 -361 253 -350 l 279 -125 b 340 -67 283 -83 299 -67 l 465 -67 b 513 -125 514 -67 525 -89 l 444 -315 b 382 -361 433 -347 418 -361 l 293 -361 "},"ļ":{"ha":378,"x_min":0,"x_max":0,"o":"m 113 0 b 60 53 74 0 60 14 l 60 975 b 113 1028 60 1014 74 1028 l 265 1028 b 318 975 306 1028 318 1014 l 318 53 b 265 0 318 14 306 0 l 113 0 m 78 -361 b 42 -319 49 -361 38 -350 l 64 -125 b 125 -67 68 -83 83 -67 l 250 -67 b 297 -125 299 -67 310 -89 l 229 -315 b 167 -361 218 -347 203 -361 l 78 -361 "},"Ľ":{"ha":719,"x_min":0,"x_max":0,"o":"m 126 0 b 68 58 83 0 68 15 l 68 928 b 126 986 68 971 83 986 l 285 986 b 343 928 328 986 343 971 l 343 243 l 642 243 b 701 185 686 243 701 229 l 701 58 b 642 0 701 15 686 0 l 126 0 m 508 665 b 476 701 479 665 474 674 l 501 932 b 564 986 507 974 521 986 l 664 986 b 711 932 714 986 722 968 l 640 713 b 576 665 628 675 615 665 l 508 665 "},"ľ":{"ha":469,"x_min":0,"x_max":0,"o":"m 113 0 b 60 53 74 0 60 14 l 60 975 b 113 1028 60 1014 74 1028 l 265 1028 b 318 975 306 1028 318 1014 l 318 53 b 265 0 318 14 306 0 l 113 0 m 400 728 b 368 763 371 728 365 735 l 389 974 b 451 1028 394 1015 408 1028 l 575 1028 b 622 974 625 1028 636 1008 l 546 775 b 482 728 532 738 521 728 l 400 728 "},"Ŀ":{"ha":718,"x_min":0,"x_max":0,"o":"m 128 0 b 69 58 85 0 69 15 l 69 928 b 128 986 69 971 85 986 l 286 986 b 344 928 329 986 344 971 l 344 243 l 643 243 b 703 185 688 243 703 229 l 703 58 b 643 0 703 15 688 0 l 128 0 m 507 442 b 408 539 432 442 408 465 l 408 590 b 507 689 408 664 432 689 l 554 689 b 653 590 628 689 653 664 l 653 539 b 554 442 653 465 628 442 l 507 442 "},"ŀ":{"ha":665,"x_min":0,"x_max":0,"o":"m 113 0 b 60 53 74 0 60 14 l 60 975 b 113 1028 60 1014 74 1028 l 265 1028 b 318 975 306 1028 318 1014 l 318 53 b 265 0 318 14 306 0 l 113 0 m 497 388 b 388 496 414 388 388 414 l 388 553 b 497 663 388 635 414 663 l 550 663 b 660 553 632 663 660 635 l 660 496 b 550 388 660 414 632 388 l 497 388 "},"Ł":{"ha":764,"x_min":0,"x_max":0,"o":"m 174 0 b 115 58 131 0 115 15 l 115 344 l 82 328 b 25 344 51 313 38 321 l -8 415 b 8 465 -19 438 -12 456 l 115 517 l 115 928 b 174 986 115 971 131 986 l 332 986 b 390 928 375 986 390 971 l 390 639 l 494 686 b 553 668 526 701 540 692 l 586 599 b 568 549 597 575 590 558 l 390 468 l 390 243 l 689 243 b 749 185 733 243 749 229 l 749 58 b 689 0 749 15 733 0 l 174 0 "},"ł":{"ha":496,"x_min":0,"x_max":0,"o":"m 171 0 b 118 53 131 0 118 14 l 118 358 l 94 346 b 36 360 64 329 49 336 l 0 419 b 15 471 -11 442 -6 460 l 118 525 l 118 975 b 171 1028 118 1014 131 1028 l 324 1028 b 376 975 364 1028 376 1014 l 376 663 l 403 679 b 460 665 431 697 446 688 l 494 606 b 481 554 507 583 501 565 l 376 497 l 376 53 b 324 0 376 14 364 0 l 171 0 "},"Ń":{"ha":926,"x_min":0,"x_max":0,"o":"m 385 1051 b 321 1058 351 1042 336 1039 l 283 1104 b 286 1157 261 1131 263 1143 l 482 1269 b 574 1265 514 1288 546 1296 l 644 1185 b 638 1129 669 1157 671 1142 l 385 1051 m 125 0 b 69 58 85 0 69 15 l 69 928 b 125 986 69 971 85 986 l 308 986 b 361 958 336 986 351 978 l 538 621 b 646 349 590 519 608 454 l 658 349 b 593 700 624 478 593 560 l 593 928 b 650 986 593 971 607 986 l 800 986 b 857 928 842 986 857 971 l 857 58 b 800 0 857 15 842 0 l 631 0 b 576 29 600 0 588 8 l 410 354 b 300 643 358 456 343 511 l 289 643 b 331 285 317 525 331 439 l 331 58 b 275 0 331 15 318 0 l 125 0 "},"ń":{"ha":739,"x_min":0,"x_max":0,"o":"m 289 800 b 224 804 256 789 239 786 l 185 850 b 188 903 163 876 163 889 l 381 1019 b 472 1017 413 1039 444 1047 l 546 939 b 539 883 569 911 572 896 l 289 800 m 106 0 b 56 53 69 0 56 14 l 56 608 b 110 692 56 654 67 674 b 389 743 168 715 254 743 b 689 443 593 743 689 632 l 689 53 b 638 0 689 14 675 0 l 482 0 b 429 53 444 0 429 14 l 429 433 b 364 510 429 488 408 510 b 318 504 346 510 332 508 b 314 499 315 503 314 501 l 314 53 b 264 0 314 14 303 0 l 106 0 "},"Ņ":{"ha":926,"x_min":0,"x_max":0,"o":"m 125 0 b 69 58 85 0 69 15 l 69 928 b 125 986 69 971 85 986 l 308 986 b 361 958 336 986 351 978 l 538 621 b 646 349 590 519 608 454 l 658 349 b 593 700 624 478 593 560 l 593 928 b 650 986 593 971 607 986 l 800 986 b 857 928 842 986 857 971 l 857 58 b 800 0 857 15 842 0 l 631 0 b 576 29 600 0 588 8 l 410 354 b 300 643 358 456 343 511 l 289 643 b 331 285 317 525 331 439 l 331 58 b 275 0 331 15 318 0 l 125 0 m 367 -361 b 331 -319 338 -361 326 -350 l 353 -125 b 414 -67 357 -83 372 -67 l 539 -67 b 586 -125 588 -67 599 -89 l 518 -315 b 456 -361 507 -347 492 -361 l 367 -361 "},"ņ":{"ha":739,"x_min":0,"x_max":0,"o":"m 106 0 b 56 53 69 0 56 14 l 56 608 b 110 692 56 654 67 674 b 389 743 168 715 254 743 b 689 443 593 743 689 632 l 689 53 b 638 0 689 14 675 0 l 482 0 b 429 53 444 0 429 14 l 429 433 b 364 510 429 488 408 510 b 318 504 346 510 332 508 b 314 499 315 503 314 501 l 314 53 b 264 0 314 14 303 0 l 106 0 m 258 -361 b 222 -319 229 -361 218 -350 l 244 -125 b 306 -67 249 -83 264 -67 l 431 -67 b 478 -125 479 -67 490 -89 l 410 -315 b 347 -361 399 -347 383 -361 l 258 -361 "},"Ň":{"ha":926,"x_min":0,"x_max":0,"o":"m 449 1047 b 347 1088 396 1047 385 1050 l 207 1229 b 224 1278 185 1251 178 1278 l 340 1278 b 431 1247 394 1278 410 1274 l 474 1200 l 514 1247 b 606 1278 538 1274 554 1278 l 711 1278 b 729 1229 757 1278 751 1251 l 590 1088 b 486 1047 553 1050 542 1047 l 449 1047 m 125 0 b 69 58 85 0 69 15 l 69 928 b 125 986 69 971 85 986 l 308 986 b 361 958 336 986 351 978 l 538 621 b 646 349 590 519 608 454 l 658 349 b 593 700 624 478 593 560 l 593 928 b 650 986 593 971 607 986 l 800 986 b 857 928 842 986 857 971 l 857 58 b 800 0 857 15 842 0 l 631 0 b 576 29 600 0 588 8 l 410 354 b 300 643 358 456 343 511 l 289 643 b 331 285 317 525 331 439 l 331 58 b 275 0 331 15 318 0 l 125 0 "},"ň":{"ha":739,"x_min":0,"x_max":0,"o":"m 350 796 b 249 838 297 796 286 800 l 108 979 b 125 1026 86 1001 79 1026 l 242 1026 b 332 997 296 1026 311 1022 l 375 949 l 415 996 b 507 1026 439 1022 456 1026 l 613 1026 b 631 979 658 1026 653 1001 l 492 838 b 388 796 454 799 443 796 l 350 796 m 106 0 b 56 53 69 0 56 14 l 56 608 b 110 692 56 654 67 674 b 389 743 168 715 254 743 b 689 443 593 743 689 632 l 689 53 b 638 0 689 14 675 0 l 482 0 b 429 53 444 0 429 14 l 429 433 b 364 510 429 488 408 510 b 318 504 346 510 332 508 b 314 499 315 503 314 501 l 314 53 b 264 0 314 14 303 0 l 106 0 "},"ŉ":{"ha":739,"x_min":0,"x_max":0,"o":"m 38 749 b 13 783 8 749 3 758 l 85 981 b 151 1028 99 1018 108 1028 l 286 1028 b 319 974 332 1028 340 1007 l 201 783 b 132 749 182 751 169 749 l 38 749 m 106 0 b 56 53 69 0 56 14 l 56 608 b 110 692 56 654 67 674 b 389 743 168 715 254 743 b 689 443 593 743 689 632 l 689 53 b 638 0 689 14 675 0 l 482 0 b 429 53 444 0 429 14 l 429 433 b 364 510 429 488 408 510 b 318 504 346 510 332 508 b 314 499 315 503 314 501 l 314 53 b 264 0 314 14 303 0 l 106 0 "},"Ŋ":{"ha":926,"x_min":0,"x_max":0,"o":"m 526 -319 b 472 -265 485 -319 472 -306 l 472 -147 b 526 -92 472 -106 485 -92 b 594 -14 578 -92 594 -69 l 594 0 l 410 354 b 300 643 357 456 343 511 l 289 643 b 331 285 317 525 331 439 l 331 58 b 275 0 331 15 318 0 l 125 0 b 69 58 85 0 69 15 l 69 928 b 125 986 69 971 85 986 l 308 986 b 361 958 336 986 351 978 l 538 621 b 646 349 590 519 608 454 l 658 349 b 593 700 624 478 593 560 l 593 928 b 650 986 593 971 607 986 l 800 986 b 857 928 842 986 857 971 l 857 -14 b 526 -319 857 -226 772 -319 "},"ŋ":{"ha":774,"x_min":0,"x_max":0,"o":"m 368 -319 b 315 -265 328 -319 315 -307 l 315 -149 b 368 -96 315 -108 328 -96 b 429 -3 422 -96 429 -61 l 429 433 b 364 510 429 488 408 510 b 318 504 346 510 332 508 b 314 499 315 503 314 501 l 314 53 b 264 0 314 14 303 0 l 106 0 b 56 53 69 0 56 14 l 56 608 b 110 692 56 654 67 674 b 389 743 168 715 254 743 b 689 443 593 743 689 632 l 689 -19 b 368 -319 689 -229 596 -319 "},"Ō":{"ha":897,"x_min":0,"x_max":0,"o":"m 281 1094 b 231 1144 242 1094 231 1104 l 231 1203 b 281 1253 231 1243 246 1253 l 619 1253 b 669 1203 658 1253 669 1243 l 669 1144 b 619 1094 669 1104 658 1094 l 281 1094 m 447 -21 b 46 368 189 -21 46 128 l 46 618 b 447 1007 46 858 189 1007 b 850 618 707 1007 850 858 l 850 368 b 447 -21 850 128 707 -21 m 447 222 b 575 356 531 222 575 268 l 575 631 b 447 764 575 718 531 764 b 321 631 365 764 321 718 l 321 356 b 447 222 321 268 365 222 "},"ō":{"ha":729,"x_min":0,"x_max":0,"o":"m 196 828 b 146 878 157 828 146 838 l 146 936 b 196 986 146 976 161 986 l 535 986 b 585 936 574 986 585 976 l 585 878 b 535 828 585 838 574 828 l 196 828 m 365 -21 b 39 283 153 -21 39 94 l 39 439 b 365 743 39 628 153 743 b 692 439 579 743 692 628 l 692 283 b 365 -21 692 94 579 -21 m 365 203 b 433 276 413 203 433 226 l 433 446 b 365 521 433 497 413 521 b 297 446 318 521 297 497 l 297 276 b 365 203 297 226 318 203 "},"Ŏ":{"ha":897,"x_min":0,"x_max":0,"o":"m 450 1061 b 206 1208 328 1061 240 1114 b 229 1257 196 1235 203 1246 l 321 1292 b 374 1275 351 1303 360 1299 b 450 1229 390 1244 414 1229 b 525 1275 485 1229 507 1244 b 575 1293 539 1299 546 1301 l 672 1257 b 696 1208 699 1247 706 1235 b 450 1061 660 1114 574 1061 m 447 -21 b 46 368 189 -21 46 128 l 46 618 b 447 1007 46 858 189 1007 b 850 618 707 1007 850 858 l 850 368 b 447 -21 850 128 707 -21 m 447 222 b 575 356 531 222 575 268 l 575 631 b 447 764 575 718 531 764 b 321 631 365 764 321 718 l 321 356 b 447 222 321 268 365 222 "},"ŏ":{"ha":729,"x_min":0,"x_max":0,"o":"m 365 797 b 121 944 243 797 156 849 b 144 993 111 971 118 982 l 236 1028 b 289 1011 267 1039 275 1033 b 365 965 306 979 329 965 b 440 1011 400 965 422 979 b 490 1028 454 1033 461 1038 l 588 993 b 611 944 614 982 621 971 b 365 797 575 849 489 797 m 365 -21 b 39 283 153 -21 39 94 l 39 439 b 365 743 39 628 153 743 b 692 439 579 743 692 628 l 692 283 b 365 -21 692 94 579 -21 m 365 203 b 433 276 413 203 433 226 l 433 446 b 365 521 433 497 413 521 b 297 446 318 521 297 497 l 297 276 b 365 203 297 226 318 203 "},"Ő":{"ha":897,"x_min":0,"x_max":0,"o":"m 213 1075 b 196 1128 178 1082 178 1104 l 293 1260 b 385 1296 318 1293 343 1304 l 478 1275 b 493 1217 514 1267 519 1240 l 336 1085 b 274 1064 310 1063 299 1057 m 481 1074 b 464 1126 446 1081 446 1104 l 569 1260 b 661 1293 594 1292 619 1304 l 757 1268 b 772 1208 794 1257 800 1231 l 603 1081 b 542 1060 578 1060 567 1054 m 447 -21 b 46 368 189 -21 46 128 l 46 618 b 447 1007 46 858 189 1007 b 850 618 707 1007 850 858 l 850 368 b 447 -21 850 128 707 -21 m 447 222 b 575 356 531 222 575 268 l 575 631 b 447 764 575 718 531 764 b 321 631 365 764 321 718 l 321 356 b 447 222 321 268 365 222 "},"ő":{"ha":729,"x_min":0,"x_max":0,"o":"m 128 806 b 111 858 93 814 93 835 l 208 990 b 300 1026 233 1024 258 1035 l 393 1007 b 408 947 429 997 435 972 l 251 815 b 189 794 225 794 214 788 m 396 804 b 379 858 361 811 361 835 l 485 990 b 576 1024 510 1024 535 1035 l 672 999 b 688 939 710 988 715 961 l 518 813 b 457 792 493 792 482 785 m 365 -21 b 39 283 153 -21 39 94 l 39 439 b 365 743 39 628 153 743 b 692 439 579 743 692 628 l 692 283 b 365 -21 692 94 579 -21 m 365 203 b 433 276 413 203 433 226 l 433 446 b 365 521 433 497 413 521 b 297 446 318 521 297 497 l 297 276 b 365 203 297 226 318 203 "},"Œ":{"ha":1128,"x_min":0,"x_max":0,"o":"m 450 -21 b 46 368 190 -21 46 128 l 46 618 b 450 1007 46 858 190 1007 b 603 986 508 1007 557 1000 l 1026 986 b 1083 928 1069 986 1083 971 l 1083 804 b 1026 744 1083 760 1069 744 l 767 744 l 767 614 l 957 614 b 1011 556 999 614 1011 599 l 1011 440 b 957 381 1011 396 999 381 l 767 381 l 767 240 l 1036 240 b 1093 182 1079 240 1093 226 l 1093 58 b 1036 0 1093 15 1079 0 l 615 0 b 450 -21 564 -17 513 -21 m 450 217 b 524 225 479 217 499 218 l 524 760 b 450 769 503 767 479 769 b 318 631 364 769 318 721 l 318 356 b 450 217 318 265 364 217 "},"œ":{"ha":1046,"x_min":0,"x_max":0,"o":"m 351 -21 b 39 283 140 -21 39 94 l 39 439 b 351 743 39 628 140 743 b 525 686 422 743 475 722 b 700 743 571 722 628 743 b 1017 439 928 743 1017 606 l 1017 363 b 943 290 1017 318 997 290 l 631 290 l 631 264 b 701 175 631 200 650 175 b 789 217 744 175 776 192 b 867 236 804 246 818 257 l 958 196 b 986 115 996 179 1007 156 b 699 -21 939 24 847 -21 b 525 38 632 -21 572 1 b 351 -21 475 0 418 -21 m 771 458 l 771 476 b 703 558 771 532 750 558 b 635 476 656 558 635 532 l 635 458 m 351 200 b 411 272 392 200 411 222 l 411 450 b 351 522 411 500 392 522 b 296 450 314 522 296 500 l 296 272 b 351 200 296 222 314 200 "},"Ŕ":{"ha":871,"x_min":0,"x_max":0,"o":"m 358 1051 b 294 1058 325 1042 310 1039 l 257 1104 b 260 1157 235 1131 236 1143 l 456 1269 b 547 1265 488 1288 519 1296 l 618 1185 b 611 1129 643 1157 644 1142 l 358 1051 m 128 0 b 69 58 85 0 69 15 l 69 928 b 128 986 69 971 85 986 l 478 986 b 822 654 688 986 822 869 b 674 383 822 518 764 436 b 711 319 686 365 700 342 l 836 68 b 800 0 856 31 846 0 l 642 0 b 531 67 574 0 551 18 l 449 257 b 358 328 428 304 407 328 l 344 328 l 344 58 b 286 0 344 15 329 0 l 128 0 m 456 560 b 547 653 515 560 547 596 b 456 743 547 708 515 743 l 344 743 l 344 560 "},"ŕ":{"ha":503,"x_min":0,"x_max":0,"o":"m 181 800 b 115 804 147 789 131 786 l 76 850 b 79 903 54 876 54 889 l 272 1019 b 364 1017 304 1039 336 1047 l 438 939 b 431 883 461 911 464 896 l 181 800 m 108 0 b 56 53 69 0 56 14 l 56 594 b 113 678 56 640 67 660 b 367 722 165 699 232 722 l 440 722 b 493 669 479 722 493 708 l 493 551 b 440 497 493 511 479 497 l 385 497 b 322 490 361 497 340 496 b 314 481 315 489 314 485 l 314 53 b 261 0 314 14 301 0 l 108 0 "},"Ŗ":{"ha":871,"x_min":0,"x_max":0,"o":"m 128 0 b 69 58 85 0 69 15 l 69 928 b 128 986 69 971 85 986 l 478 986 b 822 654 688 986 822 869 b 674 383 822 518 764 436 b 711 319 686 365 700 342 l 836 68 b 800 0 856 31 846 0 l 642 0 b 531 67 574 0 551 18 l 449 257 b 358 328 428 304 407 328 l 344 328 l 344 58 b 286 0 344 15 329 0 l 128 0 m 456 560 b 547 653 515 560 547 596 b 456 743 547 708 515 743 l 344 743 l 344 560 m 376 -361 b 340 -319 347 -361 336 -350 l 363 -125 b 424 -67 367 -83 382 -67 l 549 -67 b 596 -125 597 -67 608 -89 l 528 -315 b 465 -361 517 -347 501 -361 l 376 -361 "},"ŗ":{"ha":503,"x_min":0,"x_max":0,"o":"m 108 0 b 56 53 69 0 56 14 l 56 594 b 113 678 56 640 67 660 b 367 722 165 699 232 722 l 440 722 b 493 669 479 722 493 708 l 493 551 b 440 497 493 511 479 497 l 385 497 b 322 490 361 497 340 496 b 314 481 315 489 314 485 l 314 53 b 261 0 314 14 301 0 l 108 0 m 86 -361 b 50 -319 57 -361 46 -350 l 72 -125 b 133 -67 76 -83 92 -67 l 258 -67 b 306 -125 307 -67 318 -89 l 238 -315 b 175 -361 226 -347 211 -361 l 86 -361 "},"Ř":{"ha":871,"x_min":0,"x_max":0,"o":"m 422 1047 b 321 1088 369 1047 358 1050 l 181 1229 b 197 1278 158 1251 151 1278 l 314 1278 b 404 1247 368 1278 383 1274 l 447 1200 l 488 1247 b 579 1278 511 1274 528 1278 l 685 1278 b 703 1229 731 1278 725 1251 l 564 1088 b 460 1047 526 1050 515 1047 l 422 1047 m 128 0 b 69 58 85 0 69 15 l 69 928 b 128 986 69 971 85 986 l 478 986 b 822 654 688 986 822 869 b 674 383 822 518 764 436 b 711 319 686 365 700 342 l 836 68 b 800 0 856 31 846 0 l 642 0 b 531 67 574 0 551 18 l 449 257 b 358 328 428 304 407 328 l 344 328 l 344 58 b 286 0 344 15 329 0 l 128 0 m 456 560 b 547 653 515 560 547 596 b 456 743 547 708 515 743 l 344 743 l 344 560 "},"ř":{"ha":503,"x_min":0,"x_max":0,"o":"m 242 796 b 140 838 189 796 178 800 l 0 979 b 17 1026 -22 1001 -29 1026 l 133 1026 b 224 997 188 1026 203 1022 l 267 949 l 307 996 b 399 1026 331 1022 347 1026 l 504 1026 b 522 979 550 1026 544 1001 l 383 838 b 279 796 346 799 335 796 l 242 796 m 108 0 b 56 53 69 0 56 14 l 56 594 b 113 678 56 640 67 660 b 367 722 165 699 232 722 l 440 722 b 493 669 479 722 493 708 l 493 551 b 440 497 493 511 479 497 l 385 497 b 322 490 361 497 340 496 b 314 481 315 489 314 485 l 314 53 b 261 0 314 14 301 0 l 108 0 "},"Ś":{"ha":849,"x_min":0,"x_max":0,"o":"m 342 1065 b 278 1072 308 1056 293 1053 l 240 1118 b 243 1171 218 1144 219 1157 l 439 1283 b 531 1279 471 1301 503 1310 l 601 1199 b 594 1143 626 1171 628 1156 l 342 1065 m 417 -21 b 36 194 233 -21 85 50 b 69 269 22 236 31 256 l 208 318 b 288 286 249 332 268 329 b 417 214 308 239 354 214 b 540 293 499 214 540 233 b 400 376 540 347 482 365 b 39 696 254 396 39 435 b 425 1007 39 879 181 1007 b 790 811 614 1007 726 943 b 757 733 810 771 797 749 l 618 679 b 547 710 582 665 567 669 b 425 776 522 763 467 776 b 318 704 351 776 318 754 b 479 618 318 635 392 629 b 821 294 624 600 821 557 b 417 -21 821 90 654 -21 "},"ś":{"ha":682,"x_min":0,"x_max":0,"o":"m 246 800 b 181 804 213 789 196 786 l 142 850 b 144 903 119 876 119 889 l 338 1019 b 429 1017 369 1039 401 1047 l 503 939 b 496 883 526 911 529 896 l 246 800 m 353 -21 b 35 143 185 -21 72 36 b 67 215 21 181 31 203 l 178 256 b 244 233 222 272 232 258 b 339 190 260 207 282 190 b 418 233 397 190 418 203 b 297 283 418 269 394 278 b 32 510 114 294 32 356 b 328 743 32 658 150 743 b 619 592 488 743 576 682 b 593 515 638 556 636 532 l 483 472 b 415 492 440 456 433 465 b 340 532 400 514 382 532 b 268 493 283 532 268 519 b 364 446 268 464 285 451 b 656 225 603 429 654 350 b 353 -21 654 71 542 -21 "},"Ŝ":{"ha":849,"x_min":0,"x_max":0,"o":"m 182 1061 b 160 1108 136 1061 139 1086 l 301 1250 b 408 1292 339 1288 350 1292 l 453 1292 b 551 1250 503 1292 514 1288 l 694 1108 b 674 1061 717 1086 718 1061 l 557 1061 b 464 1090 501 1061 485 1064 l 425 1140 l 381 1092 b 290 1061 358 1064 343 1061 l 182 1061 m 417 -21 b 36 194 233 -21 85 50 b 69 269 22 236 31 256 l 208 318 b 288 286 249 332 268 329 b 417 214 308 239 354 214 b 540 293 499 214 540 233 b 400 376 540 347 482 365 b 39 696 254 396 39 435 b 425 1007 39 879 181 1007 b 790 811 614 1007 726 943 b 757 733 810 771 797 749 l 618 679 b 547 710 582 665 567 669 b 425 776 522 763 467 776 b 318 704 351 776 318 754 b 479 618 318 635 392 629 b 821 294 624 600 821 557 b 417 -21 821 90 654 -21 "},"ŝ":{"ha":682,"x_min":0,"x_max":0,"o":"m 90 799 b 69 846 46 799 47 824 l 211 988 b 318 1029 249 1025 258 1029 l 356 1029 b 454 988 404 1029 417 1025 l 597 846 b 576 799 619 824 621 799 l 460 799 b 367 828 404 799 388 801 l 326 878 l 283 829 b 193 799 260 801 244 799 l 90 799 m 353 -21 b 35 143 185 -21 72 36 b 67 215 21 181 31 203 l 178 256 b 244 233 222 272 232 258 b 339 190 260 207 282 190 b 418 233 397 190 418 203 b 297 283 418 269 394 278 b 32 510 114 294 32 356 b 328 743 32 658 150 743 b 619 592 488 743 576 682 b 593 515 638 556 636 532 l 483 472 b 415 492 440 456 433 465 b 340 532 400 514 382 532 b 268 493 283 532 268 519 b 364 446 268 464 285 451 b 656 225 603 429 654 350 b 353 -21 654 71 542 -21 "},"Ş":{"ha":849,"x_min":0,"x_max":0,"o":"m 418 -340 b 314 -325 385 -340 349 -337 b 278 -282 285 -314 278 -303 l 276 -224 b 321 -201 276 -197 289 -185 b 397 -222 344 -214 364 -222 b 444 -190 432 -222 444 -208 b 386 -160 444 -169 432 -161 l 358 -160 b 339 -118 332 -160 326 -147 l 383 -19 b 36 194 215 -12 82 58 b 69 269 22 236 31 256 l 208 318 b 288 286 249 332 268 329 b 417 214 308 239 354 214 b 540 293 499 214 540 233 b 400 376 540 347 482 365 b 39 696 254 396 39 435 b 425 1007 39 879 181 1007 b 790 811 614 1007 726 943 b 757 733 810 771 797 749 l 618 679 b 547 710 582 665 567 669 b 425 776 522 763 467 776 b 318 704 351 776 318 754 b 479 618 318 635 392 629 b 821 294 624 600 821 557 b 519 -14 821 121 700 15 l 499 -64 l 513 -64 b 626 -201 590 -65 635 -126 b 418 -340 614 -311 515 -340 "},"ş":{"ha":682,"x_min":0,"x_max":0,"o":"m 324 -339 b 221 -325 290 -339 256 -336 b 186 -283 193 -314 186 -303 l 185 -228 b 228 -206 185 -203 197 -190 b 303 -225 251 -218 271 -225 b 349 -194 336 -225 349 -212 b 292 -165 349 -175 336 -167 l 267 -165 b 246 -126 246 -165 236 -151 l 290 -18 b 35 143 157 -6 67 50 b 67 215 21 181 31 203 l 178 256 b 244 233 222 272 232 258 b 339 190 260 207 282 190 b 418 233 397 190 418 203 b 297 283 418 269 394 278 b 32 510 114 294 32 356 b 328 743 32 658 150 743 b 619 592 488 743 576 682 b 593 515 638 556 636 532 l 483 472 b 415 492 440 456 433 465 b 340 532 400 514 382 532 b 268 493 283 532 268 519 b 364 446 268 464 285 451 b 656 225 603 429 654 350 b 421 -17 654 90 568 3 l 401 -74 l 415 -74 b 526 -206 492 -75 535 -133 b 324 -339 514 -311 418 -339 "},"Š":{"ha":849,"x_min":0,"x_max":0,"o":"m 406 1061 b 304 1101 353 1061 342 1064 l 164 1243 b 181 1292 142 1265 135 1292 l 297 1292 b 388 1261 351 1292 367 1288 l 431 1214 l 471 1261 b 563 1292 494 1288 511 1292 l 668 1292 b 686 1243 714 1292 708 1265 l 547 1101 b 443 1061 510 1064 499 1061 l 406 1061 m 417 -21 b 36 194 233 -21 85 50 b 69 269 22 236 31 256 l 208 318 b 288 286 249 332 268 329 b 417 214 308 239 354 214 b 540 293 499 214 540 233 b 400 376 540 347 482 365 b 39 696 254 396 39 435 b 425 1007 39 879 181 1007 b 790 811 614 1007 726 943 b 757 733 810 771 797 749 l 618 679 b 547 710 582 665 567 669 b 425 776 522 763 467 776 b 318 704 351 776 318 754 b 479 618 318 635 392 629 b 821 294 624 600 821 557 b 417 -21 821 90 654 -21 "},"š":{"ha":682,"x_min":0,"x_max":0,"o":"m 307 796 b 206 838 254 796 243 800 l 65 979 b 82 1026 43 1001 36 1026 l 199 1026 b 289 997 253 1026 268 1022 l 332 949 l 372 996 b 464 1026 396 1022 413 1026 l 569 1026 b 588 979 615 1026 610 1001 l 449 838 b 344 796 411 799 400 796 l 307 796 m 353 -21 b 35 143 185 -21 72 36 b 67 215 21 181 31 203 l 178 256 b 244 233 222 272 232 258 b 339 190 260 207 282 190 b 418 233 397 190 418 203 b 297 283 418 269 394 278 b 32 510 114 294 32 356 b 328 743 32 658 150 743 b 619 592 488 743 576 682 b 593 515 638 556 636 532 l 483 472 b 415 492 440 456 433 465 b 340 532 400 514 382 532 b 268 493 283 532 268 519 b 364 446 268 464 285 451 b 656 225 603 429 654 350 b 353 -21 654 71 542 -21 "},"Ţ":{"ha":799,"x_min":0,"x_max":0,"o":"m 321 0 b 263 58 278 0 263 15 l 263 743 l 75 743 b 17 803 32 743 17 758 l 17 928 b 75 986 17 971 32 986 l 725 986 b 783 928 768 986 783 971 l 783 803 b 725 743 783 758 768 743 l 538 743 l 538 58 b 479 0 538 15 522 0 l 321 0 m 289 -361 b 253 -319 260 -361 249 -350 l 275 -125 b 336 -67 279 -83 294 -67 l 461 -67 b 508 -125 510 -67 521 -89 l 440 -315 b 378 -361 429 -347 414 -361 l 289 -361 "},"ţ":{"ha":513,"x_min":0,"x_max":0,"o":"m 372 -64 b 488 -201 451 -65 496 -126 b 278 -340 475 -311 375 -340 b 175 -325 246 -340 210 -337 b 138 -282 146 -314 138 -303 l 138 -224 b 181 -201 138 -197 150 -185 b 258 -222 206 -214 225 -222 b 306 -190 293 -222 306 -208 b 247 -160 306 -169 293 -161 l 218 -160 b 200 -118 192 -160 188 -147 l 260 19 b 104 310 146 56 104 142 l 104 511 l 63 511 b 10 565 22 511 10 525 l 10 669 b 63 722 10 708 22 722 l 104 722 l 104 836 b 158 889 104 875 118 889 l 310 889 b 364 836 350 889 364 875 l 364 722 l 432 722 b 485 669 472 722 485 708 l 485 565 b 432 511 485 525 472 511 l 364 511 l 364 328 b 431 231 364 251 372 231 b 485 176 472 231 485 218 l 485 57 b 428 0 485 15 469 0 b 386 1 413 0 399 0 l 360 -64 l 372 -64 "},"Ť":{"ha":799,"x_min":0,"x_max":0,"o":"m 381 1047 b 279 1088 328 1047 317 1050 l 139 1229 b 156 1278 117 1251 110 1278 l 272 1278 b 363 1247 326 1278 342 1274 l 406 1200 l 446 1247 b 538 1278 469 1274 486 1278 l 643 1278 b 661 1229 689 1278 683 1251 l 522 1088 b 418 1047 485 1050 474 1047 l 381 1047 m 321 0 b 263 58 278 0 263 15 l 263 743 l 75 743 b 17 803 32 743 17 758 l 17 928 b 75 986 17 971 32 986 l 725 986 b 783 928 768 986 783 971 l 783 803 b 725 743 783 758 768 743 l 538 743 l 538 58 b 479 0 538 15 522 0 l 321 0 "},"ť":{"ha":517,"x_min":0,"x_max":0,"o":"m 453 771 b 418 810 421 771 417 779 l 429 983 b 496 1042 432 1029 450 1042 l 599 1042 b 644 983 647 1042 656 1024 l 597 818 b 528 771 586 781 567 771 l 453 771 m 428 0 b 104 310 185 0 104 76 l 104 511 l 63 511 b 10 565 22 511 10 525 l 10 669 b 63 722 10 708 22 722 l 104 722 l 104 836 b 158 889 104 875 118 889 l 310 889 b 364 836 350 889 364 875 l 364 722 l 432 722 b 485 669 472 722 485 708 l 485 565 b 432 511 485 525 472 511 l 364 511 l 364 328 b 431 231 364 251 372 231 b 485 176 472 231 485 218 l 485 57 b 428 0 485 15 469 0 "},"Ŧ":{"ha":801,"x_min":0,"x_max":0,"o":"m 322 0 b 264 58 279 0 264 15 l 264 350 l 150 350 b 115 388 124 350 115 357 l 115 481 b 150 517 115 508 126 517 l 264 517 l 264 743 l 75 743 b 17 803 32 743 17 758 l 17 928 b 75 986 17 971 32 986 l 726 986 b 785 928 769 986 785 971 l 785 803 b 726 743 785 758 769 743 l 539 743 l 539 517 l 653 517 b 686 481 679 517 686 508 l 686 388 b 653 350 686 357 679 350 l 539 350 l 539 58 b 481 0 539 15 524 0 l 322 0 "},"ŧ":{"ha":513,"x_min":0,"x_max":0,"o":"m 428 0 b 104 297 185 0 104 76 l 104 314 l 61 314 b 28 351 35 314 28 321 l 28 415 b 61 451 28 443 38 451 l 104 451 l 104 511 l 63 511 b 10 565 22 511 10 525 l 10 669 b 63 722 10 708 22 722 l 104 722 l 104 836 b 158 889 104 875 118 889 l 310 889 b 364 836 350 889 364 875 l 364 722 l 432 722 b 485 669 472 722 485 708 l 485 565 b 432 511 485 525 472 511 l 364 511 l 364 451 l 431 451 b 464 415 457 451 464 443 l 464 351 b 431 314 464 321 457 314 l 364 314 l 364 301 b 431 231 364 247 376 231 b 485 176 472 231 485 218 l 485 57 b 428 0 485 15 469 0 "},"Ũ":{"ha":915,"x_min":0,"x_max":0,"o":"m 240 1060 b 208 1092 217 1060 208 1071 b 340 1263 208 1224 260 1263 b 529 1206 447 1263 483 1206 b 550 1236 542 1206 550 1214 b 576 1263 550 1256 556 1263 l 660 1263 b 693 1231 686 1263 693 1253 b 557 1060 693 1101 644 1060 b 372 1118 454 1060 418 1118 b 351 1088 360 1118 351 1108 b 325 1060 351 1068 344 1060 l 240 1060 m 457 -21 b 63 363 199 -21 63 129 l 63 928 b 117 986 63 971 78 986 l 283 986 b 338 928 322 986 338 971 l 338 350 b 457 222 338 268 376 222 b 579 350 540 222 579 268 l 579 928 b 633 986 579 971 592 986 l 797 986 b 854 928 839 986 854 971 l 854 363 b 457 -21 854 129 717 -21 "},"ũ":{"ha":739,"x_min":0,"x_max":0,"o":"m 153 813 b 121 844 129 813 121 822 b 253 1015 121 975 172 1015 b 442 957 360 1015 396 957 b 463 988 454 957 463 967 b 489 1015 463 1007 468 1015 l 572 1015 b 606 983 599 1015 606 1004 b 469 813 606 853 557 813 b 285 869 367 813 331 869 b 264 839 272 869 264 861 b 238 813 264 819 257 813 l 153 813 m 351 -21 b 51 279 147 -21 51 90 l 51 669 b 103 722 51 708 65 722 l 258 722 b 311 669 296 722 311 708 l 311 289 b 376 213 311 235 332 213 b 422 218 394 213 408 214 b 426 224 425 219 426 221 l 426 669 b 476 722 426 708 438 722 l 635 722 b 685 669 671 722 685 708 l 685 114 b 631 31 685 68 674 49 b 351 -21 572 7 486 -21 "},"Ū":{"ha":915,"x_min":0,"x_max":0,"o":"m 288 1081 b 238 1131 249 1081 238 1090 l 238 1189 b 288 1239 238 1229 253 1239 l 626 1239 b 676 1189 665 1239 676 1229 l 676 1131 b 626 1081 676 1090 665 1081 l 288 1081 m 457 -21 b 63 363 199 -21 63 129 l 63 928 b 117 986 63 971 78 986 l 283 986 b 338 928 322 986 338 971 l 338 350 b 457 222 338 268 376 222 b 579 350 540 222 579 268 l 579 928 b 633 986 579 971 592 986 l 797 986 b 854 928 839 986 854 971 l 854 363 b 457 -21 854 129 717 -21 "},"ū":{"ha":739,"x_min":0,"x_max":0,"o":"m 200 828 b 150 878 161 828 150 838 l 150 936 b 200 986 150 976 165 986 l 539 986 b 589 936 578 986 589 976 l 589 878 b 539 828 589 838 578 828 l 200 828 m 351 -21 b 51 279 147 -21 51 90 l 51 669 b 103 722 51 708 65 722 l 258 722 b 311 669 296 722 311 708 l 311 289 b 376 213 311 235 332 213 b 422 218 394 213 408 214 b 426 224 425 219 426 221 l 426 669 b 476 722 426 708 438 722 l 635 722 b 685 669 671 722 685 708 l 685 114 b 631 31 685 68 674 49 b 351 -21 572 7 486 -21 "},"Ŭ":{"ha":915,"x_min":0,"x_max":0,"o":"m 457 1047 b 213 1194 335 1047 247 1100 b 236 1243 203 1221 210 1232 l 328 1278 b 381 1261 358 1289 367 1285 b 457 1215 397 1231 421 1215 b 532 1261 492 1215 514 1231 b 582 1279 546 1285 553 1288 l 679 1243 b 703 1194 706 1233 713 1221 b 457 1047 667 1100 581 1047 m 457 -21 b 63 363 199 -21 63 129 l 63 928 b 117 986 63 971 78 986 l 283 986 b 338 928 322 986 338 971 l 338 350 b 457 222 338 268 376 222 b 579 350 540 222 579 268 l 579 928 b 633 986 579 971 592 986 l 797 986 b 854 928 839 986 854 971 l 854 363 b 457 -21 854 129 717 -21 "},"ŭ":{"ha":739,"x_min":0,"x_max":0,"o":"m 369 797 b 125 944 247 797 160 849 b 149 993 115 971 122 982 l 240 1028 b 293 1011 271 1039 279 1033 b 369 965 310 979 333 965 b 444 1011 404 965 426 979 b 494 1028 458 1033 465 1038 l 592 993 b 615 944 618 982 625 971 b 369 797 579 849 493 797 m 351 -21 b 51 279 147 -21 51 90 l 51 669 b 103 722 51 708 65 722 l 258 722 b 311 669 296 722 311 708 l 311 289 b 376 213 311 235 332 213 b 422 218 394 213 408 214 b 426 224 425 219 426 221 l 426 669 b 476 722 426 708 438 722 l 635 722 b 685 669 671 722 685 708 l 685 114 b 631 31 685 68 674 49 b 351 -21 572 7 486 -21 "},"Ů":{"ha":915,"x_min":0,"x_max":0,"o":"m 458 1036 b 278 1197 354 1036 278 1096 b 458 1360 278 1300 354 1360 b 636 1197 563 1360 636 1297 b 458 1036 636 1097 563 1036 m 458 1149 b 507 1197 486 1149 507 1168 b 458 1247 507 1228 486 1247 b 406 1197 426 1247 406 1228 b 458 1149 406 1169 426 1149 m 457 -21 b 63 363 199 -21 63 129 l 63 928 b 117 986 63 971 78 986 l 283 986 b 338 928 322 986 338 971 l 338 350 b 457 222 338 268 376 222 b 579 350 540 222 579 268 l 579 928 b 633 986 579 971 592 986 l 797 986 b 854 928 839 986 854 971 l 854 363 b 457 -21 854 129 717 -21 "},"ů":{"ha":739,"x_min":0,"x_max":0,"o":"m 371 754 b 190 914 267 754 190 813 b 371 1078 190 1018 267 1078 b 549 914 475 1078 549 1014 b 371 754 549 814 475 754 m 371 864 b 422 914 400 864 422 883 b 371 967 422 946 400 967 b 315 914 338 967 315 946 b 371 864 315 885 338 864 m 351 -21 b 51 279 147 -21 51 90 l 51 669 b 103 722 51 708 65 722 l 258 722 b 311 669 296 722 311 708 l 311 289 b 376 213 311 235 332 213 b 422 218 394 213 408 214 b 426 224 425 219 426 221 l 426 669 b 476 722 426 708 438 722 l 635 722 b 685 669 671 722 685 708 l 685 114 b 631 31 685 68 674 49 b 351 -21 572 7 486 -21 "},"Ű":{"ha":915,"x_min":0,"x_max":0,"o":"m 219 1061 b 203 1114 185 1068 185 1090 l 300 1246 b 392 1282 325 1279 350 1290 l 485 1261 b 500 1203 521 1253 526 1226 l 343 1071 b 281 1050 317 1049 306 1043 m 488 1060 b 471 1113 453 1067 453 1090 l 576 1246 b 668 1279 601 1278 626 1290 l 764 1254 b 779 1194 801 1243 807 1217 l 610 1067 b 549 1046 585 1046 574 1040 m 457 -21 b 63 363 199 -21 63 129 l 63 928 b 117 986 63 971 78 986 l 283 986 b 338 928 322 986 338 971 l 338 350 b 457 222 338 268 376 222 b 579 350 540 222 579 268 l 579 928 b 633 986 579 971 592 986 l 797 986 b 854 928 839 986 854 971 l 854 363 b 457 -21 854 129 717 -21 "},"ű":{"ha":739,"x_min":0,"x_max":0,"o":"m 132 806 b 115 858 97 814 97 835 l 213 990 b 304 1026 238 1024 263 1035 l 397 1007 b 413 947 433 997 439 972 l 256 815 b 193 794 229 794 218 788 m 400 804 b 383 858 365 811 365 835 l 489 990 b 581 1024 514 1024 539 1035 l 676 999 b 692 939 714 988 719 961 l 522 813 b 461 792 497 792 486 785 m 351 -21 b 51 279 147 -21 51 90 l 51 669 b 103 722 51 708 65 722 l 258 722 b 311 669 296 722 311 708 l 311 289 b 376 213 311 235 332 213 b 422 218 394 213 408 214 b 426 224 425 219 426 221 l 426 669 b 476 722 426 708 438 722 l 635 722 b 685 669 671 722 685 708 l 685 114 b 631 31 685 68 674 49 b 351 -21 572 7 486 -21 "},"Ų":{"ha":915,"x_min":0,"x_max":0,"o":"m 547 -342 b 399 -249 482 -342 414 -326 b 490 -19 383 -172 422 -94 b 457 -21 479 -21 468 -21 b 63 363 199 -21 63 129 l 63 928 b 117 986 63 971 78 986 l 283 986 b 338 928 322 986 338 971 l 338 350 b 457 222 338 268 376 222 b 579 350 540 222 579 268 l 579 928 b 633 986 579 971 592 986 l 797 986 b 854 928 839 986 854 971 l 854 363 b 719 54 854 228 808 121 b 596 -161 615 -46 593 -131 b 622 -186 599 -176 608 -186 b 647 -178 631 -186 639 -183 b 681 -186 663 -168 674 -172 l 708 -251 b 701 -293 717 -272 715 -283 b 547 -342 663 -324 603 -342 "},"ų":{"ha":739,"x_min":0,"x_max":0,"o":"m 528 -342 b 379 -249 463 -342 394 -326 b 475 -12 364 -169 408 -85 b 351 -21 439 -18 399 -21 b 51 279 147 -21 51 90 l 51 669 b 103 722 51 708 65 722 l 258 722 b 311 669 296 722 311 708 l 311 289 b 376 213 311 235 332 213 b 422 218 394 213 408 214 b 426 224 425 219 426 221 l 426 669 b 476 722 426 708 438 722 l 635 722 b 685 669 671 722 685 708 l 685 114 b 664 46 685 83 678 63 b 576 -161 588 -47 574 -132 b 603 -186 578 -176 589 -186 b 628 -178 611 -186 619 -183 b 661 -186 643 -168 654 -172 l 689 -251 b 682 -293 697 -272 696 -283 b 528 -342 643 -324 583 -342 "},"Ŵ":{"ha":1247,"x_min":0,"x_max":0,"o":"m 385 1047 b 363 1094 339 1047 342 1072 l 504 1236 b 611 1278 542 1274 553 1278 l 656 1278 b 754 1236 706 1278 717 1274 l 897 1094 b 876 1047 919 1072 921 1047 l 760 1047 b 667 1076 704 1047 688 1050 l 628 1126 l 583 1078 b 493 1047 561 1050 546 1047 l 385 1047 m 294 0 b 225 46 258 0 233 8 l 19 929 b 53 986 10 968 13 986 l 235 986 b 308 935 282 986 301 978 l 363 571 b 378 325 372 499 379 364 l 389 325 b 408 571 388 367 393 496 l 483 935 b 558 986 492 979 515 986 l 701 986 b 775 935 744 986 767 978 l 842 571 b 865 325 856 492 865 367 l 876 325 b 892 571 876 364 879 494 l 946 935 b 1014 986 951 978 968 986 l 1189 986 b 1229 929 1231 986 1239 968 l 1019 49 b 951 0 1010 8 989 0 l 776 0 b 707 46 738 0 714 10 l 650 369 b 628 619 635 457 626 540 l 615 619 b 588 369 611 540 604 460 l 531 49 b 463 0 522 8 500 0 l 294 0 "},"ŵ":{"ha":1026,"x_min":0,"x_max":0,"o":"m 281 799 b 260 846 236 799 238 824 l 401 988 b 508 1029 439 1025 449 1029 l 546 1029 b 644 988 594 1029 607 1025 l 788 846 b 767 799 810 824 811 799 l 650 799 b 557 828 594 799 578 801 l 517 878 l 474 829 b 383 799 450 801 435 799 l 281 799 m 238 0 b 167 47 199 0 175 11 l 18 661 b 60 722 6 710 14 722 l 201 722 b 281 669 261 722 272 714 l 314 485 b 328 268 324 433 328 331 l 338 268 b 356 485 340 329 347 431 l 381 668 b 464 722 386 714 403 722 l 568 722 b 650 669 628 722 643 714 l 678 485 b 694 268 685 429 692 328 l 706 268 b 719 485 706 328 710 426 l 749 668 b 829 722 756 713 768 722 l 965 722 b 1010 661 1014 722 1021 710 l 864 47 b 796 0 856 11 833 0 l 642 0 b 572 47 603 0 578 10 l 543 233 b 517 431 533 296 522 382 l 508 431 b 479 233 503 382 490 296 l 444 47 b 378 0 438 10 414 0 l 238 0 "},"Ŷ":{"ha":882,"x_min":0,"x_max":0,"o":"m 201 1047 b 179 1094 156 1047 158 1072 l 321 1236 b 428 1278 358 1274 369 1278 l 472 1278 b 571 1236 522 1278 533 1274 l 714 1094 b 693 1047 736 1072 738 1047 l 576 1047 b 483 1076 521 1047 504 1050 l 444 1126 l 400 1078 b 310 1047 378 1050 363 1047 l 201 1047 m 360 0 b 306 58 318 0 306 15 l 306 374 l 11 928 b 40 986 -6 960 -1 986 l 221 986 b 322 933 288 986 301 982 l 443 646 l 567 932 b 668 986 589 983 603 986 l 843 986 b 871 928 885 986 888 960 l 581 374 l 581 58 b 525 0 581 15 567 0 l 360 0 "},"ŷ":{"ha":743,"x_min":0,"x_max":0,"o":"m 133 799 b 113 846 89 799 90 824 l 254 988 b 361 1029 292 1025 301 1029 l 399 1029 b 497 988 447 1029 460 1025 l 640 846 b 619 799 663 824 664 799 l 503 799 b 410 828 447 799 431 801 l 369 878 l 326 829 b 236 799 303 801 288 799 l 133 799 m 374 -319 b 72 -182 224 -319 133 -274 b 99 -104 47 -144 65 -119 l 224 -44 b 293 -65 263 -26 278 -37 b 364 -107 307 -92 332 -107 b 425 -28 411 -107 425 -79 l 425 26 b 350 21 404 22 358 21 b 50 321 146 21 50 132 l 50 669 b 103 722 50 708 64 722 l 256 722 b 308 669 294 722 308 708 l 308 331 b 376 254 308 276 326 254 b 426 260 390 254 411 256 l 426 669 b 476 722 426 708 439 722 l 635 722 b 685 669 669 722 685 708 l 685 1 b 374 -319 685 -183 604 -319 "},"Ÿ":{"ha":882,"x_min":0,"x_max":0,"o":"m 289 1054 b 189 1153 211 1054 189 1079 l 189 1171 b 289 1269 189 1246 211 1269 l 300 1269 b 401 1171 376 1269 401 1246 l 401 1153 b 300 1054 401 1079 376 1054 l 289 1054 m 589 1054 b 486 1153 511 1054 486 1079 l 486 1171 b 589 1269 486 1246 511 1269 l 599 1269 b 699 1171 675 1269 699 1246 l 699 1153 b 599 1054 699 1079 675 1054 l 589 1054 m 360 0 b 306 58 318 0 306 15 l 306 374 l 11 928 b 40 986 -6 960 -1 986 l 221 986 b 322 933 288 986 301 982 l 443 646 l 567 932 b 668 986 589 983 603 986 l 843 986 b 871 928 885 986 888 960 l 581 374 l 581 58 b 525 0 581 15 567 0 l 360 0 "},"Ź":{"ha":803,"x_min":0,"x_max":0,"o":"m 325 1051 b 261 1058 292 1042 276 1039 l 224 1104 b 226 1157 201 1131 203 1143 l 422 1269 b 514 1265 454 1288 486 1296 l 585 1185 b 578 1129 610 1157 611 1142 l 325 1051 m 90 0 b 36 58 51 0 36 15 l 36 143 b 54 201 36 167 42 183 l 410 743 l 97 743 b 43 803 57 743 43 758 l 43 928 b 97 986 43 971 57 986 l 704 986 b 758 928 747 986 758 971 l 758 844 b 743 783 758 818 756 801 l 386 243 l 711 243 b 765 185 753 243 765 229 l 765 58 b 711 0 765 15 753 0 l 90 0 "},"ź":{"ha":656,"x_min":0,"x_max":0,"o":"m 249 800 b 183 804 215 789 199 786 l 144 850 b 147 903 122 876 122 889 l 340 1019 b 432 1017 372 1039 404 1047 l 506 939 b 499 883 529 911 532 896 l 249 800 m 83 0 b 35 53 49 0 35 14 l 35 161 b 54 218 35 192 39 199 l 292 503 l 93 503 b 44 554 56 503 44 515 l 44 669 b 93 722 44 708 56 722 l 563 722 b 614 669 599 722 614 708 l 614 561 b 583 494 614 531 606 519 l 343 219 l 572 219 b 621 168 610 219 621 207 l 621 53 b 572 0 621 14 610 0 l 83 0 "},"Ż":{"ha":803,"x_min":0,"x_max":0,"o":"m 404 1051 b 300 1156 324 1051 300 1075 l 300 1167 b 404 1271 300 1247 324 1271 l 413 1271 b 517 1167 493 1271 517 1247 l 517 1156 b 413 1051 517 1075 493 1051 l 404 1051 m 90 0 b 36 58 51 0 36 15 l 36 143 b 54 201 36 167 42 183 l 410 743 l 97 743 b 43 803 57 743 43 758 l 43 928 b 97 986 43 971 57 986 l 704 986 b 758 928 747 986 758 971 l 758 844 b 743 783 758 818 756 801 l 386 243 l 711 243 b 765 185 753 243 765 229 l 765 58 b 711 0 765 15 753 0 l 90 0 "},"ż":{"ha":656,"x_min":0,"x_max":0,"o":"m 293 803 b 190 904 215 803 190 826 l 190 919 b 293 1021 190 997 214 1021 l 363 1021 b 465 919 442 1021 465 997 l 465 904 b 363 803 465 826 442 803 l 293 803 m 83 0 b 35 53 49 0 35 14 l 35 161 b 54 218 35 192 39 199 l 292 503 l 93 503 b 44 554 56 503 44 515 l 44 669 b 93 722 44 708 56 722 l 563 722 b 614 669 599 722 614 708 l 614 561 b 583 494 614 531 606 519 l 343 219 l 572 219 b 621 168 610 219 621 207 l 621 53 b 572 0 621 14 610 0 l 83 0 "},"Ž":{"ha":803,"x_min":0,"x_max":0,"o":"m 389 1047 b 288 1088 336 1047 325 1050 l 147 1229 b 164 1278 125 1251 118 1278 l 281 1278 b 371 1247 335 1278 350 1274 l 414 1200 l 454 1247 b 546 1278 478 1274 494 1278 l 651 1278 b 669 1229 697 1278 692 1251 l 531 1088 b 426 1047 493 1050 482 1047 l 389 1047 m 90 0 b 36 58 51 0 36 15 l 36 143 b 54 201 36 167 42 183 l 410 743 l 97 743 b 43 803 57 743 43 758 l 43 928 b 97 986 43 971 57 986 l 704 986 b 758 928 747 986 758 971 l 758 844 b 743 783 758 818 756 801 l 386 243 l 711 243 b 765 185 753 243 765 229 l 765 58 b 711 0 765 15 753 0 l 90 0 "},"ž":{"ha":656,"x_min":0,"x_max":0,"o":"m 310 796 b 208 838 257 796 246 800 l 68 979 b 85 1026 46 1001 39 1026 l 201 1026 b 292 997 256 1026 271 1022 l 335 949 l 375 996 b 467 1026 399 1022 415 1026 l 572 1026 b 590 979 618 1026 613 1001 l 451 838 b 347 796 414 799 403 796 l 310 796 m 83 0 b 35 53 49 0 35 14 l 35 161 b 54 218 35 192 39 199 l 292 503 l 93 503 b 44 554 56 503 44 515 l 44 669 b 93 722 44 708 56 722 l 563 722 b 614 669 599 722 614 708 l 614 561 b 583 494 614 531 606 519 l 343 219 l 572 219 b 621 168 610 219 621 207 l 621 53 b 572 0 621 14 610 0 l 83 0 "},"ſ":{"ha":446,"x_min":0,"x_max":0,"o":"m 172 0 b 118 53 131 0 118 14 l 118 511 l 72 511 b 19 565 33 511 19 525 l 19 669 b 72 722 19 708 33 722 l 118 722 l 118 726 b 440 1028 118 936 208 1028 b 496 974 482 1028 496 1014 l 496 872 b 440 817 496 831 482 817 b 374 722 388 817 374 782 l 374 53 b 319 0 374 14 361 0 l 172 0 "},"ƒ":{"ha":592,"x_min":0,"x_max":0,"o":"m 22 -306 b -28 -251 -14 -306 -28 -292 l -28 -133 b 22 -78 -28 -92 -14 -78 b 114 29 89 -78 108 -42 l 143 371 l 81 371 b 31 424 43 371 31 383 l 31 535 b 81 589 31 575 43 589 l 168 589 l 176 700 b 521 1028 193 915 297 1028 b 571 974 557 1028 571 1014 l 571 856 b 521 800 571 814 557 800 b 431 693 454 800 438 769 l 421 589 l 501 589 b 553 535 539 589 553 575 l 553 424 b 501 371 553 383 539 371 l 399 371 l 368 22 b 22 -306 349 -193 231 -306 "},"Ǻ":{"ha":900,"x_min":0,"x_max":0,"o":"m 376 1243 b 317 1247 344 1236 331 1235 l 281 1283 b 294 1328 260 1303 272 1318 l 469 1406 b 556 1404 500 1419 529 1426 l 619 1342 b 611 1301 642 1321 643 1308 l 376 1243 m 39 0 b 6 57 1 0 -7 19 l 290 939 b 244 1047 261 965 244 1006 b 447 1222 244 1163 331 1222 b 646 1047 564 1222 646 1158 b 606 942 646 1008 632 969 l 894 57 b 856 0 907 19 894 0 l 700 0 b 599 58 629 0 608 15 l 574 160 l 317 160 l 289 58 b 193 0 278 15 260 0 l 39 0 m 449 986 b 503 1043 479 986 503 1008 b 449 1100 503 1078 479 1100 b 388 1043 411 1100 388 1078 b 449 986 388 1011 411 986 m 521 378 l 481 539 b 451 733 464 608 454 690 l 440 733 b 413 540 438 690 429 607 l 374 378 "},"ǻ":{"ha":700,"x_min":0,"x_max":0,"o":"m 264 1099 b 199 1103 231 1088 214 1085 l 160 1149 b 163 1201 138 1175 138 1188 l 356 1318 b 447 1315 388 1338 419 1346 l 521 1238 b 514 1182 544 1210 547 1194 l 264 1099 m 347 765 b 167 925 243 765 167 824 b 347 1089 167 1029 243 1089 b 525 925 451 1089 525 1025 b 347 765 525 825 451 765 m 347 875 b 399 925 376 875 399 894 b 347 978 399 957 376 978 b 292 925 314 978 292 957 b 347 875 292 896 314 875 m 343 -21 b 29 210 119 -21 29 44 b 343 440 29 375 119 440 b 394 439 357 440 378 440 l 394 482 b 340 546 394 533 371 546 b 268 499 308 546 285 524 b 193 481 251 474 240 463 l 88 521 b 60 594 53 533 40 554 b 353 743 107 690 201 743 b 651 457 565 743 651 642 l 651 101 b 601 18 651 50 640 35 b 343 -21 549 -6 464 -21 m 340 156 b 388 158 358 156 372 156 b 394 167 393 160 394 161 l 394 267 b 343 268 376 268 357 268 b 282 211 301 268 282 250 b 340 156 282 174 300 156 "},"Ǽ":{"ha":1188,"x_min":0,"x_max":0,"o":"m 763 1051 b 699 1058 729 1042 714 1039 l 661 1104 b 664 1157 639 1131 640 1143 l 860 1269 b 951 1265 892 1288 924 1296 l 1022 1185 b 1015 1129 1047 1157 1049 1142 l 763 1051 m 35 0 b -1 57 -8 0 -22 24 l 542 938 b 611 986 563 974 572 986 l 1086 986 b 1142 928 1129 986 1142 971 l 1142 803 b 1086 743 1142 758 1129 743 l 847 743 l 847 619 l 1017 619 b 1071 561 1058 619 1071 604 l 1071 436 b 1017 376 1071 392 1058 376 l 847 376 l 847 243 l 1097 243 b 1154 185 1139 243 1154 229 l 1154 58 b 1097 0 1154 15 1139 0 l 658 0 b 600 58 615 0 600 15 l 600 146 l 338 146 l 290 53 b 186 0 269 14 257 0 l 35 0 m 600 356 l 597 596 l 475 356 "},"ǽ":{"ha":1013,"x_min":0,"x_max":0,"o":"m 414 800 b 349 804 381 789 364 786 l 310 850 b 313 903 288 876 288 889 l 506 1019 b 597 1017 538 1039 569 1047 l 671 939 b 664 883 694 911 697 896 l 414 800 m 326 -21 b 31 210 110 -21 31 42 b 331 442 31 379 108 442 l 379 440 l 379 483 b 324 546 379 522 371 546 b 257 499 290 546 271 526 b 192 483 244 474 235 467 l 92 522 b 64 596 56 536 44 556 b 331 743 111 692 183 743 b 499 690 394 743 456 724 b 674 743 546 726 606 743 b 981 451 900 743 981 618 l 981 363 b 910 290 981 318 964 290 l 600 290 l 600 257 b 671 174 600 200 622 174 b 760 221 718 174 744 190 b 831 239 772 247 788 258 l 925 194 b 951 115 960 178 972 154 b 667 -21 903 24 815 -21 b 511 28 610 -21 558 -4 b 326 -21 461 -4 415 -21 m 739 458 l 739 476 b 674 560 739 536 721 560 b 607 476 626 560 607 536 l 607 458 m 326 156 b 381 161 342 156 367 158 l 381 207 l 381 265 b 329 267 371 267 340 267 b 278 211 293 267 278 251 b 326 156 278 171 292 156 "},"Ǿ":{"ha":897,"x_min":0,"x_max":0,"o":"m 390 1065 b 326 1072 357 1056 342 1053 l 289 1118 b 292 1171 267 1144 268 1157 l 488 1283 b 579 1279 519 1301 551 1310 l 650 1199 b 643 1143 675 1171 676 1156 l 390 1065 m 47 -58 b 36 -32 29 -58 26 -46 l 124 113 b 46 368 72 178 46 264 l 46 618 b 447 1007 46 858 189 1007 b 640 972 522 1007 586 994 l 672 1024 b 719 1046 686 1044 693 1046 l 853 1046 b 865 1021 869 1046 874 1035 l 774 871 b 850 618 824 806 850 721 l 850 368 b 447 -21 850 128 707 -21 b 257 14 374 -21 310 -8 l 226 -36 b 176 -58 213 -57 210 -58 l 47 -58 m 517 749 b 447 764 497 758 475 764 b 321 631 365 764 321 718 l 321 446 l 321 424 m 447 222 b 575 356 531 222 575 268 l 575 533 l 575 556 l 382 235 b 447 222 400 226 422 222 "},"ǿ":{"ha":729,"x_min":0,"x_max":0,"o":"m 289 800 b 224 804 256 789 239 786 l 185 850 b 188 903 163 876 163 889 l 381 1019 b 472 1017 413 1039 444 1047 l 546 939 b 539 883 569 911 572 896 l 289 800 m 81 -58 b 68 -32 61 -58 58 -47 l 122 60 b 39 283 68 113 39 189 l 39 439 b 365 743 39 628 153 743 b 513 719 421 743 471 735 l 533 756 b 578 775 544 775 554 775 l 658 775 b 671 749 678 775 681 764 l 615 656 b 692 439 665 603 692 529 l 692 283 b 365 -21 692 94 579 -21 b 228 -1 314 -21 268 -14 l 206 -39 b 160 -58 194 -57 186 -58 l 81 -58 m 401 514 b 365 521 392 518 379 521 b 297 446 318 521 297 497 l 297 369 l 297 338 m 365 203 b 433 276 413 203 433 226 l 433 336 l 433 361 l 342 206 b 365 203 349 204 357 203 "},"Ș":{"ha":849,"x_min":0,"x_max":0,"o":"m 417 -21 b 36 194 233 -21 85 50 b 69 269 22 236 31 256 l 208 318 b 288 286 249 332 268 329 b 417 214 308 239 354 214 b 540 293 499 214 540 233 b 400 376 540 347 482 365 b 39 696 254 396 39 435 b 425 1007 39 879 181 1007 b 790 811 614 1007 726 943 b 757 733 810 771 797 749 l 618 679 b 547 710 582 665 567 669 b 425 776 522 763 467 776 b 318 704 351 776 318 754 b 479 618 318 635 392 629 b 821 294 624 600 821 557 b 417 -21 821 90 654 -21 m 340 -361 b 304 -319 311 -361 300 -350 l 326 -125 b 388 -67 331 -83 346 -67 l 513 -67 b 560 -125 561 -67 572 -89 l 492 -315 b 429 -361 481 -347 465 -361 l 340 -361 "},"ș":{"ha":682,"x_min":0,"x_max":0,"o":"m 353 -21 b 35 143 185 -21 72 36 b 67 215 21 181 31 203 l 178 256 b 244 233 222 272 232 258 b 339 190 260 207 282 190 b 418 233 397 190 418 203 b 297 283 418 269 394 278 b 32 510 114 294 32 356 b 328 743 32 658 150 743 b 619 592 488 743 576 682 b 593 515 638 556 636 532 l 483 472 b 415 492 440 456 433 465 b 340 532 400 514 382 532 b 268 493 283 532 268 519 b 364 446 268 464 285 451 b 656 225 603 429 654 350 b 353 -21 654 71 542 -21 m 231 -361 b 194 -319 201 -361 190 -350 l 217 -125 b 278 -67 221 -83 236 -67 l 403 -67 b 450 -125 451 -67 463 -89 l 382 -315 b 319 -361 371 -347 356 -361 l 231 -361 "},"ț":{"ha":513,"x_min":0,"x_max":0,"o":"m 428 0 b 104 310 185 0 104 76 l 104 511 l 63 511 b 10 565 22 511 10 525 l 10 669 b 63 722 10 708 22 722 l 104 722 l 104 836 b 158 889 104 875 118 889 l 310 889 b 364 836 350 889 364 875 l 364 722 l 432 722 b 485 669 472 722 485 708 l 485 565 b 432 511 485 525 472 511 l 364 511 l 364 328 b 431 231 364 251 372 231 b 485 176 472 231 485 218 l 485 57 b 428 0 485 15 469 0 m 201 -361 b 165 -319 172 -361 161 -350 l 188 -125 b 249 -67 192 -83 207 -67 l 374 -67 b 421 -125 422 -67 433 -89 l 353 -315 b 290 -361 342 -347 326 -361 l 201 -361 "},"ȷ":{"ha":376,"x_min":0,"x_max":0,"o":"m -7 -319 b -61 -265 -47 -319 -61 -306 l -61 -147 b -7 -92 -61 -106 -47 -92 b 58 3 61 -92 58 -57 l 58 669 b 114 722 58 708 72 722 l 263 722 b 318 669 304 722 318 708 l 318 -14 b -7 -319 318 -226 228 -319 "},"ˆ":{"ha":557,"x_min":0,"x_max":0,"o":"m 32 797 b 11 844 -12 797 -11 822 l 153 986 b 260 1028 190 1024 200 1028 l 297 1028 b 396 986 346 1028 358 1024 l 539 844 b 518 797 561 822 563 797 l 401 797 b 308 826 346 797 329 800 l 268 876 l 225 828 b 135 797 201 800 186 797 l 32 797 "},"ˇ":{"ha":582,"x_min":0,"x_max":0,"o":"m 269 796 b 168 838 217 796 206 800 l 28 979 b 44 1026 6 1001 -1 1026 l 161 1026 b 251 997 215 1026 231 1022 l 294 949 l 335 996 b 426 1026 358 1022 375 1026 l 532 1026 b 550 979 578 1026 572 1001 l 411 838 b 307 796 374 799 363 796 l 269 796 "},"˘":{"ha":399,"x_min":0,"x_max":0,"o":"m 192 797 b -53 944 69 797 -18 849 b -29 993 -62 971 -56 982 l 63 1028 b 115 1011 93 1039 101 1033 b 192 965 132 979 156 965 b 267 1011 226 965 249 979 b 317 1028 281 1033 288 1038 l 414 993 b 438 944 440 982 447 971 b 192 797 401 849 315 797 "},"˙":{"ha":306,"x_min":0,"x_max":0,"o":"m 149 803 b 44 907 68 803 44 826 l 44 918 b 149 1022 44 999 68 1022 l 157 1022 b 261 918 238 1022 261 999 l 261 907 b 157 803 261 826 238 803 l 149 803 "},"˚":{"ha":333,"x_min":0,"x_max":0,"o":"m 168 754 b -12 914 64 754 -12 813 b 168 1078 -12 1018 64 1078 b 346 914 272 1078 346 1014 b 168 754 346 814 272 754 m 168 864 b 219 914 197 864 219 883 b 168 967 219 946 197 967 b 113 914 135 967 113 946 b 168 864 113 885 135 864 "},"˛":{"ha":350,"x_min":0,"x_max":0,"o":"m 167 -342 b 18 -249 101 -342 33 -326 b 126 1 1 -164 53 -74 l 299 6 b 215 -161 226 -74 213 -131 b 242 -186 218 -176 228 -186 b 267 -178 250 -186 258 -183 b 300 -186 282 -168 293 -172 l 328 -251 b 321 -293 336 -272 335 -283 b 167 -342 282 -324 222 -342 "},"˜":{"ha":424,"x_min":0,"x_max":0,"o":"m 0 813 b -32 844 -24 813 -32 822 b 100 1015 -32 975 19 1015 b 289 957 207 1015 243 957 b 310 988 301 957 310 967 b 336 1015 310 1007 315 1015 l 419 1015 b 453 983 446 1015 453 1004 b 317 813 453 853 404 813 b 132 869 214 813 178 869 b 111 839 119 869 111 861 b 85 813 111 819 104 813 l 0 813 "},"˝":{"ha":549,"x_min":0,"x_max":0,"o":"m 39 806 b 22 858 4 814 4 835 l 119 990 b 211 1026 144 1024 169 1035 l 304 1007 b 319 947 340 997 346 972 l 163 815 b 100 794 136 794 125 788 m 307 804 b 290 858 272 811 272 835 l 396 990 b 488 1024 421 1024 446 1035 l 583 999 b 599 939 621 988 626 961 l 429 813 b 368 792 404 792 393 785 "},"̀":{"ha":0,"x_min":0,"x_max":0,"o":"m -340 883 b -347 939 -374 896 -371 911 l -274 1017 b -182 1019 -246 1047 -214 1039 l 11 903 b 14 850 36 889 36 876 l -25 804 b -90 800 -40 786 -57 789 "},"́":{"ha":0,"x_min":0,"x_max":0,"o":"m -244 800 b -310 804 -278 789 -294 786 l -349 850 b -346 903 -371 876 -371 889 l -153 1019 b -61 1017 -121 1039 -89 1047 l 13 939 b 6 883 36 911 39 896 l -244 800 "},"̂":{"ha":0,"x_min":0,"x_max":0,"o":"m -525 797 b -546 844 -569 797 -568 822 l -404 986 b -297 1028 -367 1024 -357 1028 l -260 1028 b -161 986 -211 1028 -199 1024 l -18 844 b -39 797 4 822 6 797 l -156 797 b -249 826 -211 797 -228 800 l -289 876 l -332 828 b -422 797 -356 800 -371 797 l -525 797 "},"̃":{"ha":0,"x_min":0,"x_max":0,"o":"m -424 813 b -456 844 -447 813 -456 822 b -324 1015 -456 975 -404 1015 b -135 957 -217 1015 -181 957 b -114 988 -122 957 -114 967 b -87 1015 -114 1007 -108 1015 l -4 1015 b 29 983 22 1015 29 1004 b -107 813 29 853 -19 813 b -292 869 -210 813 -246 869 b -312 839 -304 869 -312 861 b -339 813 -312 819 -319 813 l -424 813 "},"̄":{"ha":0,"x_min":0,"x_max":0,"o":"m -411 828 b -461 878 -450 828 -461 838 l -461 936 b -411 986 -461 976 -446 986 l -72 986 b -22 936 -33 986 -22 976 l -22 878 b -72 828 -22 838 -33 828 l -411 828 "},"̆":{"ha":0,"x_min":0,"x_max":0,"o":"m -207 797 b -451 944 -329 797 -417 849 b -428 993 -461 971 -454 982 l -336 1028 b -283 1011 -306 1039 -297 1033 b -207 965 -267 979 -243 965 b -132 1011 -172 965 -150 979 b -82 1028 -118 1033 -111 1038 l 15 993 b 39 944 42 982 49 971 b -207 797 3 849 -83 797 "},"̇":{"ha":0,"x_min":0,"x_max":0,"o":"m -189 803 b -292 904 -267 803 -292 826 l -292 919 b -189 1021 -292 997 -268 1021 l -119 1021 b -17 919 -40 1021 -17 997 l -17 904 b -119 803 -17 826 -40 803 l -189 803 "},"̈":{"ha":0,"x_min":0,"x_max":0,"o":"m -464 801 b -564 901 -542 801 -564 828 l -564 919 b -464 1018 -564 994 -542 1018 l -453 1018 b -351 919 -376 1018 -351 994 l -351 901 b -453 801 -351 828 -376 801 l -464 801 m -164 801 b -267 901 -242 801 -267 828 l -267 919 b -164 1018 -267 994 -242 1018 l -154 1018 b -54 919 -78 1018 -54 994 l -54 901 b -154 801 -54 828 -78 801 l -164 801 "},"̊":{"ha":0,"x_min":0,"x_max":0,"o":"m -165 754 b -346 914 -269 754 -346 813 b -165 1078 -346 1018 -269 1078 b 13 914 -61 1078 13 1014 b -165 754 13 814 -61 754 m -165 864 b -114 914 -136 864 -114 883 b -165 967 -114 946 -136 967 b -221 914 -199 967 -221 946 b -165 864 -221 885 -199 864 "},"̋":{"ha":0,"x_min":0,"x_max":0,"o":"m -510 806 b -526 858 -544 814 -544 835 l -429 990 b -337 1026 -404 1024 -379 1035 l -244 1007 b -229 947 -208 997 -203 972 l -386 815 b -449 794 -412 794 -424 788 m -242 804 b -258 858 -276 811 -276 835 l -153 990 b -61 1024 -128 1024 -103 1035 l 35 999 b 50 939 72 988 78 961 l -119 813 b -181 792 -144 792 -156 785 "},"̌":{"ha":0,"x_min":0,"x_max":0,"o":"m -312 796 b -414 838 -365 796 -376 800 l -554 979 b -537 1026 -576 1001 -583 1026 l -421 1026 b -331 997 -367 1026 -351 1022 l -287 949 l -247 996 b -156 1026 -224 1022 -207 1026 l -50 1026 b -32 979 -4 1026 -10 1001 l -171 838 b -275 796 -208 799 -219 796 l -312 796 "},"̧":{"ha":0,"x_min":0,"x_max":0,"o":"m -203 -340 b -306 -325 -235 -340 -271 -337 b -343 -282 -335 -314 -343 -303 l -343 -224 b -300 -201 -343 -197 -331 -185 b -222 -222 -275 -214 -256 -222 b -175 -190 -187 -222 -175 -208 b -233 -160 -175 -169 -187 -161 l -262 -160 b -281 -118 -289 -160 -294 -147 l -229 0 l -96 0 l -121 -64 l -108 -64 b 7 -201 -29 -65 15 -126 b -203 -340 -6 -311 -106 -340 "},"̨":{"ha":0,"x_min":0,"x_max":0,"o":"m -183 -342 b -332 -249 -249 -342 -317 -326 b -224 1 -349 -164 -297 -74 l -51 6 b -135 -161 -124 -74 -137 -131 b -108 -186 -132 -176 -122 -186 b -83 -178 -100 -186 -92 -183 b -50 -186 -68 -168 -57 -172 l -22 -251 b -29 -293 -14 -272 -15 -283 b -183 -342 -68 -324 -128 -342 "},"π":{"ha":888,"x_min":0,"x_max":0,"o":"m 635 -1 b 564 26 596 -17 581 -12 b 525 231 531 103 525 154 l 525 497 l 426 497 l 426 53 b 374 0 426 14 413 0 l 218 0 b 167 53 181 0 167 14 l 167 497 b 118 481 153 496 149 494 b 51 503 86 467 68 468 l 0 613 b 24 682 -17 649 -12 665 b 228 722 89 711 136 722 l 810 722 b 858 669 849 722 858 710 l 858 551 b 810 497 858 511 849 497 l 783 497 l 783 246 b 804 133 783 196 783 176 b 776 57 822 96 815 72 l 635 -1 "},"Ё":{"ha":778,"x_min":0,"x_max":0,"o":"m 265 1054 b 165 1153 188 1054 165 1079 l 165 1171 b 265 1269 165 1246 188 1269 l 276 1269 b 378 1171 353 1269 378 1246 l 378 1153 b 276 1054 378 1079 353 1054 l 265 1054 m 565 1054 b 463 1153 488 1054 463 1079 l 463 1171 b 565 1269 463 1246 488 1269 l 575 1269 b 675 1171 651 1269 675 1246 l 675 1153 b 575 1054 675 1079 651 1054 l 565 1054 m 128 0 b 69 58 85 0 69 15 l 69 928 b 128 986 69 971 85 986 l 672 986 b 731 928 717 986 731 971 l 731 803 b 672 743 731 758 717 743 l 344 743 l 344 619 l 599 619 b 657 561 643 619 657 604 l 657 436 b 599 376 657 392 643 376 l 344 376 l 344 243 l 683 243 b 743 185 728 243 743 229 l 743 58 b 683 0 743 15 728 0 l 128 0 "},"А":{"ha":900,"x_min":0,"x_max":0,"o":"m 39 0 b 6 57 1 0 -7 19 l 290 938 b 360 986 303 978 321 986 l 538 986 b 606 940 575 986 594 976 l 894 57 b 856 0 907 19 894 0 l 700 0 b 599 58 629 0 608 15 l 574 160 l 317 160 l 289 58 b 193 0 278 15 260 0 l 39 0 m 521 378 l 481 539 b 451 733 464 608 454 690 l 440 733 b 413 540 438 690 429 607 l 374 378 "},"Б":{"ha":836,"x_min":0,"x_max":0,"o":"m 126 0 b 69 56 86 0 69 14 l 69 926 b 128 986 69 971 85 986 l 685 986 b 744 926 729 986 744 971 l 744 818 b 685 760 744 774 729 760 l 344 760 l 344 635 l 475 635 b 807 318 679 635 807 517 b 482 0 807 122 679 0 l 126 0 m 432 226 b 532 319 497 226 532 258 b 432 411 532 379 497 411 l 344 411 l 344 226 "},"В":{"ha":858,"x_min":0,"x_max":0,"o":"m 124 0 b 69 58 85 0 69 15 l 69 926 b 124 986 69 971 85 986 l 493 986 b 792 724 672 986 792 888 b 692 518 792 631 765 574 l 692 514 b 828 275 775 474 828 396 b 504 0 828 103 710 0 l 124 0 m 440 607 b 519 685 488 607 519 631 b 440 764 519 739 488 764 l 344 764 l 344 607 m 469 225 b 550 310 515 225 550 251 b 469 392 550 369 515 392 l 344 392 l 344 225 "},"Г":{"ha":699,"x_min":0,"x_max":0,"o":"m 128 0 b 69 58 85 0 69 15 l 69 928 b 128 986 69 971 85 986 l 624 986 b 682 928 668 986 682 971 l 682 803 b 624 743 682 758 668 743 l 344 743 l 344 58 b 286 0 344 15 329 0 l 128 0 "},"Д":{"ha":1013,"x_min":0,"x_max":0,"o":"m 82 -212 b 24 -154 39 -212 24 -197 l 24 186 b 82 243 24 229 39 243 l 100 243 b 211 611 171 303 211 390 l 211 928 b 271 986 211 971 226 986 l 822 986 b 882 928 867 986 882 971 l 882 243 l 932 243 b 990 186 976 243 990 229 l 990 -154 b 932 -212 990 -197 976 -212 l 782 -212 b 722 -154 738 -212 722 -197 l 722 0 l 292 0 l 292 -154 b 233 -212 292 -197 276 -212 l 82 -212 m 608 243 l 608 743 l 475 743 l 475 613 b 410 243 475 443 450 328 "},"Е":{"ha":778,"x_min":0,"x_max":0,"o":"m 128 0 b 69 58 85 0 69 15 l 69 928 b 128 986 69 971 85 986 l 672 986 b 731 928 717 986 731 971 l 731 803 b 672 743 731 758 717 743 l 344 743 l 344 619 l 599 619 b 657 561 643 619 657 604 l 657 436 b 599 376 657 392 643 376 l 344 376 l 344 243 l 683 243 b 743 185 728 243 743 229 l 743 58 b 683 0 743 15 728 0 l 128 0 "},"Ж":{"ha":1275,"x_min":0,"x_max":0,"o":"m 53 0 b 17 68 7 0 -1 29 l 178 422 b 240 515 196 461 217 490 l 32 925 b 64 986 14 961 22 986 l 225 986 b 336 935 296 986 315 981 l 478 619 l 489 619 l 500 619 l 500 928 b 558 986 500 971 514 986 l 717 986 b 775 928 761 986 775 971 l 775 619 l 788 619 l 797 619 l 939 935 b 1050 986 960 981 979 986 l 1211 986 b 1243 925 1253 986 1261 961 l 1035 515 b 1097 422 1058 490 1079 461 l 1258 68 b 1222 0 1276 29 1268 0 l 1072 0 b 950 58 999 0 969 8 l 847 319 b 786 378 829 367 814 378 l 775 378 l 775 58 b 717 0 775 15 761 0 l 558 0 b 500 58 514 0 500 15 l 500 378 l 489 378 b 428 319 461 378 446 367 l 325 58 b 203 0 306 8 276 0 l 53 0 "},"З":{"ha":853,"x_min":0,"x_max":0,"o":"m 439 -21 b 31 222 235 -21 88 65 b 67 297 15 263 26 283 l 204 346 b 279 308 244 361 263 351 b 417 218 301 249 357 218 b 531 300 500 218 531 244 b 446 382 531 358 501 382 l 360 382 b 301 440 315 382 301 397 l 301 556 b 360 615 301 600 315 615 l 429 615 b 506 692 471 615 506 636 b 411 768 506 744 469 768 b 282 682 357 768 307 744 b 207 644 265 639 249 629 l 75 693 b 38 768 33 708 22 728 b 432 1007 94 924 225 1007 b 785 718 656 1007 785 910 b 675 517 785 619 747 557 b 818 281 790 464 818 381 b 439 -21 818 97 694 -21 "},"И":{"ha":926,"x_min":0,"x_max":0,"o":"m 128 0 b 69 58 85 0 69 15 l 69 928 b 128 986 69 971 85 986 l 286 986 b 344 928 329 986 344 971 l 344 694 b 297 351 344 543 328 492 l 307 351 b 417 640 349 492 361 536 l 588 960 b 644 988 597 979 613 988 l 799 988 b 857 928 843 988 857 972 l 857 58 b 799 0 857 15 843 0 l 642 0 b 583 60 597 0 583 15 l 583 293 b 631 638 583 439 597 493 l 621 638 b 513 351 578 494 568 456 l 340 28 b 283 0 329 7 314 0 l 128 0 "},"Й":{"ha":926,"x_min":0,"x_max":0,"o":"m 481 1039 b 203 1193 342 1039 242 1093 b 229 1244 192 1221 200 1233 l 333 1282 b 393 1264 368 1293 378 1288 b 481 1215 413 1231 439 1215 b 565 1264 519 1215 544 1231 b 622 1282 581 1288 589 1292 l 733 1244 b 760 1193 763 1233 771 1221 b 481 1039 718 1093 621 1039 m 128 0 b 69 58 85 0 69 15 l 69 928 b 128 986 69 971 85 986 l 286 986 b 344 928 329 986 344 971 l 344 694 b 297 351 344 543 328 492 l 307 351 b 417 640 349 492 361 536 l 588 960 b 644 988 597 979 613 988 l 799 988 b 857 928 843 988 857 972 l 857 58 b 799 0 857 15 843 0 l 642 0 b 583 60 597 0 583 15 l 583 293 b 631 638 583 439 597 493 l 621 638 b 513 351 578 494 568 456 l 340 28 b 283 0 329 7 314 0 l 128 0 "},"К":{"ha":868,"x_min":0,"x_max":0,"o":"m 128 0 b 69 58 85 0 69 15 l 69 928 b 128 986 69 971 85 986 l 286 986 b 344 928 329 986 344 971 l 344 618 l 367 618 l 390 618 l 543 935 b 644 986 564 979 574 986 l 801 986 b 835 925 843 986 854 961 l 619 522 b 694 414 656 499 672 463 l 854 68 b 818 0 871 31 864 0 l 675 0 b 561 58 601 0 582 8 l 456 306 b 363 375 436 351 415 375 l 344 375 l 344 58 b 286 0 344 15 329 0 l 128 0 "},"Л":{"ha":913,"x_min":0,"x_max":0,"o":"m 171 -10 b 92 18 132 -32 111 -21 l 11 160 b 40 240 -8 199 1 214 b 176 611 135 301 176 350 l 176 928 b 236 986 176 971 192 986 l 785 986 b 843 928 829 986 843 971 l 843 58 b 785 0 843 15 829 0 l 628 0 b 568 58 583 0 568 15 l 568 743 l 444 743 l 444 613 b 171 -10 444 208 332 78 "},"М":{"ha":1089,"x_min":0,"x_max":0,"o":"m 124 0 b 69 57 85 0 69 14 l 69 928 b 124 986 69 972 85 986 l 276 986 b 353 943 322 986 338 979 l 542 494 l 732 942 b 804 986 749 981 763 986 l 965 986 b 1019 928 1007 986 1019 972 l 1019 57 b 965 0 1019 14 1007 0 l 807 0 b 749 57 764 0 749 14 l 749 244 b 804 619 749 336 739 428 l 790 619 b 711 393 768 556 732 449 l 653 239 b 590 199 642 211 628 199 l 489 199 b 425 239 453 199 436 208 l 367 393 b 293 619 347 444 315 549 l 279 619 b 331 243 332 419 331 339 l 331 57 b 275 0 331 14 318 0 l 124 0 "},"Н":{"ha":914,"x_min":0,"x_max":0,"o":"m 128 0 b 69 58 85 0 69 15 l 69 926 b 128 986 69 971 85 986 l 286 986 b 344 926 329 986 344 971 l 344 621 l 569 621 l 569 926 b 628 986 569 971 583 986 l 785 986 b 844 926 829 986 844 971 l 844 58 b 785 0 844 15 829 0 l 628 0 b 569 58 583 0 569 15 l 569 378 l 344 378 l 344 58 b 286 0 344 15 329 0 l 128 0 "},"О":{"ha":897,"x_min":0,"x_max":0,"o":"m 447 -21 b 46 368 189 -21 46 128 l 46 618 b 447 1007 46 858 189 1007 b 850 618 707 1007 850 858 l 850 368 b 447 -21 850 128 707 -21 m 447 222 b 575 356 531 222 575 268 l 575 631 b 447 764 575 718 531 764 b 321 631 365 764 321 718 l 321 356 b 447 222 321 268 365 222 "},"П":{"ha":908,"x_min":0,"x_max":0,"o":"m 128 0 b 69 58 85 0 69 15 l 69 928 b 128 986 69 971 85 986 l 779 986 b 839 928 824 986 839 971 l 839 58 b 779 0 839 15 824 0 l 622 0 b 564 58 578 0 564 15 l 564 743 l 344 743 l 344 58 b 286 0 344 15 329 0 l 128 0 "},"Р":{"ha":851,"x_min":0,"x_max":0,"o":"m 128 0 b 69 58 85 0 69 15 l 69 928 b 128 986 69 971 85 986 l 467 986 b 822 639 682 986 822 860 b 468 296 822 419 685 296 l 344 296 l 344 58 b 286 0 344 15 329 0 l 128 0 m 443 539 b 547 640 508 539 547 579 b 443 743 547 699 510 743 l 344 743 l 344 539 "},"С":{"ha":849,"x_min":0,"x_max":0,"o":"m 444 -21 b 46 368 189 -21 46 128 l 46 618 b 444 1007 46 858 189 1007 b 819 763 646 1007 767 917 b 783 688 833 722 822 700 l 636 642 b 567 679 594 629 581 636 b 446 764 546 742 506 764 b 321 619 358 764 321 722 l 321 367 b 447 222 321 264 358 222 b 567 307 507 222 547 247 b 638 346 581 350 597 358 l 788 299 b 824 224 826 286 838 264 b 444 -21 769 68 646 -21 "},"Т":{"ha":799,"x_min":0,"x_max":0,"o":"m 321 0 b 263 58 278 0 263 15 l 263 743 l 75 743 b 17 803 32 743 17 758 l 17 928 b 75 986 17 971 32 986 l 725 986 b 783 928 768 986 783 971 l 783 803 b 725 743 783 758 768 743 l 538 743 l 538 58 b 479 0 538 15 522 0 l 321 0 "},"У":{"ha":829,"x_min":0,"x_max":0,"o":"m 203 0 b 174 58 163 0 158 22 l 267 293 l 4 928 b 36 986 -11 967 -6 986 l 201 986 b 308 935 267 986 293 983 l 417 618 l 531 935 b 629 986 549 982 567 986 l 789 986 b 818 928 829 986 833 967 l 475 51 b 379 0 457 8 440 0 l 203 0 "},"Ф":{"ha":1131,"x_min":0,"x_max":0,"o":"m 488 -29 b 428 29 443 -29 428 -15 l 428 90 l 411 90 b 22 458 156 90 22 217 l 22 533 b 411 903 22 776 156 903 l 428 903 l 428 963 b 488 1021 428 1006 443 1021 l 643 1021 b 703 963 688 1021 703 1006 l 703 903 l 719 903 b 1108 533 975 903 1108 776 l 1108 458 b 719 90 1108 217 975 90 l 703 90 l 703 29 b 643 -29 703 -15 688 -29 l 488 -29 m 433 326 l 433 667 l 421 667 b 297 544 340 667 297 625 l 297 449 b 421 326 297 368 340 326 m 710 326 b 833 449 790 326 833 368 l 833 544 b 710 667 833 625 790 667 l 697 667 l 697 326 "},"Х":{"ha":868,"x_min":0,"x_max":0,"o":"m 40 0 b 13 58 1 0 -8 24 l 269 503 l 26 931 b 53 986 8 963 17 986 l 229 986 b 329 936 297 986 310 979 l 432 707 l 539 936 b 635 986 560 982 578 986 l 815 986 b 842 931 854 986 860 961 l 599 503 l 857 58 b 826 0 876 26 868 0 l 647 0 b 539 53 576 0 561 4 l 431 294 l 321 53 b 207 0 300 6 293 0 l 40 0 "},"Ц":{"ha":960,"x_min":0,"x_max":0,"o":"m 735 -214 b 675 -154 690 -214 675 -199 l 676 0 l 128 0 b 69 58 85 0 69 15 l 69 928 b 128 986 69 971 85 986 l 286 986 b 344 928 329 986 344 971 l 344 243 l 561 243 l 561 928 b 619 986 561 971 576 986 l 778 986 b 836 928 821 986 836 971 l 836 243 l 878 243 b 936 186 922 243 936 229 l 936 -154 b 878 -214 936 -199 922 -214 l 735 -214 "},"Ч":{"ha":869,"x_min":0,"x_max":0,"o":"m 583 0 b 525 58 539 0 525 15 l 525 329 b 403 319 490 322 468 319 b 39 706 128 319 39 454 l 39 928 b 97 986 39 971 54 986 l 256 986 b 314 928 299 986 314 971 l 314 706 b 444 578 314 619 342 578 b 525 585 486 578 506 581 l 525 928 b 583 986 525 971 539 986 l 740 986 b 800 928 785 986 800 971 l 800 58 b 740 0 800 15 785 0 l 583 0 "},"Ш":{"ha":1261,"x_min":0,"x_max":0,"o":"m 128 0 b 69 58 85 0 69 15 l 69 928 b 128 986 69 971 85 986 l 286 986 b 344 928 329 986 344 971 l 344 243 l 494 243 l 494 928 b 553 986 494 971 508 986 l 707 986 b 767 928 751 986 767 971 l 767 243 l 917 243 l 917 928 b 975 986 917 971 931 986 l 1132 986 b 1192 928 1176 986 1192 971 l 1192 58 b 1132 0 1192 15 1176 0 l 128 0 "},"Щ":{"ha":1317,"x_min":0,"x_max":0,"o":"m 1090 -214 b 1032 -156 1047 -214 1032 -200 l 1032 0 l 128 0 b 69 58 85 0 69 15 l 69 928 b 128 986 69 971 85 986 l 286 986 b 344 928 329 986 344 971 l 344 243 l 494 243 l 494 928 b 553 986 494 971 508 986 l 707 986 b 767 928 751 986 767 971 l 767 243 l 917 243 l 917 928 b 975 986 917 971 931 986 l 1132 986 b 1192 928 1176 986 1192 971 l 1192 243 l 1233 243 b 1293 186 1278 243 1293 229 l 1293 -156 b 1233 -214 1293 -200 1278 -214 l 1090 -214 "},"Ъ":{"ha":1000,"x_min":0,"x_max":0,"o":"m 282 0 b 224 58 239 0 224 15 l 224 743 l 75 743 b 17 801 32 743 17 757 l 17 928 b 75 986 17 971 32 986 l 440 986 b 499 928 483 986 499 971 l 499 688 l 615 688 b 971 346 832 688 971 565 b 614 0 971 125 829 0 l 282 0 m 593 243 b 696 346 658 243 696 285 b 593 447 696 407 657 447 l 499 447 l 499 243 "},"Ы":{"ha":1243,"x_min":0,"x_max":0,"o":"m 128 0 b 69 58 85 0 69 15 l 69 928 b 128 986 69 971 85 986 l 286 986 b 344 928 329 986 344 971 l 344 688 l 461 688 b 817 346 678 688 817 565 b 460 0 817 125 675 0 l 128 0 m 953 0 b 897 56 911 0 897 14 l 897 931 b 953 986 897 972 911 986 l 1117 986 b 1172 931 1158 986 1172 972 l 1172 56 b 1117 0 1172 14 1158 0 l 953 0 m 439 243 b 542 346 504 243 542 285 b 439 447 542 407 503 447 l 344 447 l 344 243 "},"Ь":{"ha":846,"x_min":0,"x_max":0,"o":"m 128 0 b 69 58 85 0 69 15 l 69 928 b 128 986 69 971 85 986 l 286 986 b 344 928 329 986 344 971 l 344 688 l 461 688 b 817 346 678 688 817 565 b 460 0 817 125 675 0 l 128 0 m 439 243 b 542 346 504 243 542 285 b 439 447 542 407 503 447 l 344 447 l 344 243 "},"Э":{"ha":854,"x_min":0,"x_max":0,"o":"m 410 -21 b 31 224 208 -21 85 68 b 67 299 17 264 28 286 l 217 346 b 288 307 257 358 274 350 b 407 222 307 247 347 222 b 533 367 496 222 533 264 l 533 378 l 351 378 b 293 438 307 378 293 393 l 293 554 b 351 614 293 599 307 614 l 533 614 l 533 619 b 408 764 533 722 496 764 b 288 679 349 764 308 742 b 218 642 274 636 260 629 l 71 688 b 35 763 32 700 21 722 b 410 1007 88 917 208 1007 b 808 618 665 1007 808 858 l 808 368 b 410 -21 808 128 665 -21 "},"Ю":{"ha":1290,"x_min":0,"x_max":0,"o":"m 847 -21 b 453 350 603 -21 453 124 l 453 378 l 344 378 l 344 58 b 289 0 344 15 329 0 l 125 0 b 69 58 83 0 69 15 l 69 928 b 125 986 69 971 83 986 l 289 986 b 344 928 329 986 344 971 l 344 621 l 453 621 l 453 647 b 847 1007 453 871 606 1007 b 1242 618 1101 1007 1242 858 l 1242 368 b 847 -21 1242 128 1101 -21 m 849 222 b 968 354 926 222 968 268 l 968 632 b 849 764 968 718 926 764 b 724 632 765 764 724 718 l 724 354 b 849 222 724 268 765 222 "},"Я":{"ha":876,"x_min":0,"x_max":0,"o":"m 72 0 b 36 68 26 0 17 26 l 146 306 b 200 393 161 338 179 367 b 57 653 113 440 57 525 b 410 986 57 868 200 986 l 747 986 b 807 928 792 986 807 971 l 807 58 b 747 0 807 15 792 0 l 590 0 b 532 58 546 0 532 15 l 532 328 l 511 328 b 418 257 460 328 439 310 l 339 58 b 222 0 319 8 296 0 l 72 0 m 532 564 l 532 743 l 424 743 b 332 654 365 743 332 710 b 424 564 332 597 365 564 "},"а":{"ha":700,"x_min":0,"x_max":0,"o":"m 343 -21 b 29 210 119 -21 29 44 b 343 440 29 375 119 440 b 394 439 357 440 378 440 l 394 482 b 340 546 394 533 371 546 b 268 499 308 546 285 524 b 193 481 251 474 240 463 l 88 521 b 60 594 53 533 40 554 b 353 743 107 690 201 743 b 651 457 565 743 651 642 l 651 101 b 601 18 651 50 640 35 b 343 -21 549 -6 464 -21 m 340 156 b 388 158 358 156 372 156 b 394 167 393 160 394 161 l 394 267 b 343 268 376 268 357 268 b 282 211 301 268 282 250 b 340 156 282 174 300 156 "},"б":{"ha":740,"x_min":0,"x_max":0,"o":"m 376 -21 b 50 283 164 -21 50 94 l 50 551 b 435 1013 50 876 144 1013 l 478 1013 b 567 1029 515 1013 546 1021 b 639 993 608 1046 625 1035 l 675 890 b 646 815 689 850 683 831 b 499 793 604 799 567 793 l 440 793 b 308 679 343 793 308 764 l 308 667 b 435 701 328 685 394 701 b 703 401 603 701 703 590 l 703 281 b 376 -21 703 92 590 -21 m 376 203 b 443 276 424 203 443 228 l 443 404 b 376 479 443 453 424 479 b 308 404 329 479 308 453 l 308 276 b 376 203 308 228 329 203 "},"в":{"ha":714,"x_min":0,"x_max":0,"o":"m 110 0 b 57 53 71 0 57 14 l 57 669 b 110 722 57 708 71 722 l 421 722 b 654 517 571 722 654 643 b 596 378 654 457 632 410 b 685 208 650 342 685 283 b 438 0 685 78 588 0 l 110 0 m 357 450 b 410 500 390 450 410 468 b 357 550 410 532 390 550 l 310 550 l 310 450 m 368 171 b 428 229 407 171 428 194 b 368 283 428 263 407 283 l 310 283 l 310 171 "},"г":{"ha":539,"x_min":0,"x_max":0,"o":"m 110 0 b 57 53 71 0 57 14 l 57 669 b 110 722 57 708 71 722 l 471 722 b 524 669 510 722 524 708 l 524 549 b 471 494 524 508 510 494 l 315 494 l 315 53 b 263 0 315 14 301 0 l 110 0 "},"д":{"ha":825,"x_min":0,"x_max":0,"o":"m 81 -193 b 28 -140 42 -193 28 -179 l 28 157 b 81 211 28 199 42 211 l 90 211 b 154 436 121 239 154 294 l 154 669 b 207 722 154 708 167 722 l 664 722 b 718 669 704 722 718 708 l 718 211 l 753 211 b 804 157 792 211 804 199 l 804 -140 b 753 -193 804 -179 792 -193 l 621 -193 b 567 -140 581 -193 567 -179 l 567 -15 l 269 -15 l 269 -140 b 215 -193 269 -179 256 -193 l 81 -193 m 463 211 l 463 494 l 392 494 l 392 436 b 357 211 392 338 378 267 "},"е":{"ha":721,"x_min":0,"x_max":0,"o":"m 358 -21 b 38 294 126 -21 38 113 l 38 426 b 365 743 38 635 153 743 b 689 439 597 743 689 606 l 689 363 b 617 290 689 318 671 290 l 296 290 l 296 264 b 369 174 296 199 317 174 b 461 218 407 174 442 179 b 519 236 475 246 482 250 l 635 194 b 661 117 674 181 681 156 b 358 -21 615 25 518 -21 m 433 458 l 433 476 b 361 560 433 536 411 560 b 296 476 314 560 296 536 l 296 458 "},"ж":{"ha":1053,"x_min":0,"x_max":0,"o":"m 74 0 b 29 71 15 0 8 21 l 133 322 b 167 374 144 344 154 361 l 40 654 b 85 722 19 699 28 722 l 197 722 b 297 672 256 722 281 714 l 376 472 l 393 472 l 399 472 l 399 668 b 451 722 399 708 411 722 l 601 722 b 654 668 642 722 654 708 l 654 472 l 660 472 l 676 472 l 756 672 b 856 722 772 714 797 722 l 968 722 b 1013 654 1025 722 1033 699 l 886 374 b 919 322 899 361 908 344 l 1024 71 b 979 0 1044 21 1038 0 l 863 0 b 763 53 799 0 776 8 l 707 219 b 668 261 699 246 690 261 l 654 261 l 654 54 b 601 0 654 14 642 0 l 451 0 b 399 54 411 0 399 14 l 399 261 l 385 261 b 346 219 363 261 354 246 l 290 53 b 190 0 276 8 254 0 l 74 0 "},"з":{"ha":689,"x_min":0,"x_max":0,"o":"m 339 -21 b 22 171 164 -21 72 50 b 58 247 4 214 18 236 l 160 278 b 232 249 207 293 219 279 b 347 179 247 214 275 179 b 408 231 390 179 408 199 b 350 274 408 258 390 274 l 301 274 b 254 321 267 274 254 285 l 254 406 b 301 453 254 442 267 453 l 346 453 b 401 497 385 453 401 469 b 346 543 401 528 381 543 b 235 476 274 543 250 513 b 168 444 222 446 213 431 l 72 475 b 35 551 32 488 19 510 b 338 743 72 660 168 743 b 638 519 561 743 638 649 b 561 375 638 468 621 403 l 561 369 b 656 201 632 333 656 275 b 339 -21 656 75 583 -21 "},"и":{"ha":744,"x_min":0,"x_max":0,"o":"m 110 0 b 57 53 71 0 57 14 l 57 669 b 110 722 57 708 71 722 l 263 722 b 315 669 303 722 315 708 l 315 571 b 274 333 315 501 297 435 l 285 333 b 351 503 308 400 326 449 l 431 686 b 488 722 443 714 458 722 l 633 722 b 688 669 674 722 688 708 l 688 53 b 633 0 688 14 674 0 l 482 0 b 428 53 442 0 428 14 l 428 151 b 472 389 428 236 449 306 l 460 389 b 388 206 436 324 415 268 l 303 36 b 246 0 289 8 274 0 l 110 0 "},"й":{"ha":744,"x_min":0,"x_max":0,"o":"m 378 799 b 133 946 256 799 168 850 b 157 994 124 972 131 983 l 249 1029 b 301 1013 279 1040 288 1035 b 378 967 318 981 342 967 b 453 1013 413 967 435 981 b 503 1029 467 1035 474 1039 l 600 994 b 624 946 626 983 633 972 b 378 799 588 850 501 799 m 110 0 b 57 53 71 0 57 14 l 57 669 b 110 722 57 708 71 722 l 263 722 b 315 669 303 722 315 708 l 315 571 b 274 333 315 501 297 435 l 285 333 b 351 503 308 400 326 449 l 431 686 b 488 722 443 714 458 722 l 633 722 b 688 669 674 722 688 708 l 688 53 b 633 0 688 14 674 0 l 482 0 b 428 53 442 0 428 14 l 428 151 b 472 389 428 236 449 306 l 460 389 b 388 206 436 324 415 268 l 303 36 b 246 0 289 8 274 0 l 110 0 "},"к":{"ha":732,"x_min":0,"x_max":0,"o":"m 111 0 b 58 54 69 0 58 14 l 58 668 b 111 722 58 708 69 722 l 264 722 b 315 668 303 722 315 708 l 317 472 l 335 472 l 340 472 l 435 672 b 531 722 456 715 472 722 l 653 722 b 697 654 707 722 719 697 l 561 390 b 597 329 574 374 586 354 l 707 71 b 665 0 728 21 721 0 l 525 0 b 439 53 475 0 454 10 l 381 215 b 328 261 369 247 358 261 l 315 261 l 315 54 b 264 0 315 14 303 0 l 111 0 "},"л":{"ha":746,"x_min":0,"x_max":0,"o":"m 140 -15 b 74 13 110 -29 90 -18 l 6 140 b 26 201 -10 168 -1 185 b 128 490 78 232 128 267 l 128 669 b 181 722 128 708 140 722 l 636 722 b 689 669 675 722 689 708 l 689 53 b 636 0 689 14 675 0 l 483 0 b 431 53 443 0 431 14 l 431 494 l 353 494 l 353 444 b 140 -15 353 106 246 33 "},"м":{"ha":864,"x_min":0,"x_max":0,"o":"m 110 0 b 57 53 68 0 57 11 l 57 665 b 115 722 57 707 69 722 l 238 722 b 311 679 281 722 296 714 l 431 403 l 551 678 b 621 722 567 713 578 722 l 750 722 b 807 665 797 722 807 707 l 807 53 b 754 0 807 13 794 0 l 629 0 b 575 54 589 0 575 14 l 575 163 b 621 401 575 229 583 269 l 610 401 b 567 297 597 371 583 343 l 522 178 b 456 138 510 144 493 138 l 404 138 b 338 179 368 138 350 144 l 292 304 l 253 401 l 242 401 b 288 161 278 268 288 229 l 288 54 b 232 0 288 14 272 0 l 110 0 "},"н":{"ha":739,"x_min":0,"x_max":0,"o":"m 110 0 b 57 53 69 0 57 14 l 57 669 b 110 722 57 708 69 722 l 263 722 b 315 669 301 722 315 708 l 315 481 l 425 481 l 425 669 b 476 722 425 708 438 722 l 631 722 b 682 669 669 722 682 708 l 682 53 b 631 0 682 14 669 0 l 476 0 b 425 53 438 0 425 14 l 425 253 l 315 253 l 315 53 b 263 0 315 14 301 0 l 110 0 "},"о":{"ha":729,"x_min":0,"x_max":0,"o":"m 365 -21 b 39 283 153 -21 39 94 l 39 439 b 365 743 39 628 153 743 b 692 439 579 743 692 628 l 692 283 b 365 -21 692 94 579 -21 m 365 203 b 433 276 413 203 433 226 l 433 446 b 365 521 433 497 413 521 b 297 446 318 521 297 497 l 297 276 b 365 203 297 226 318 203 "},"п":{"ha":735,"x_min":0,"x_max":0,"o":"m 110 0 b 57 53 71 0 57 14 l 57 669 b 110 722 57 708 71 722 l 626 722 b 678 669 665 722 678 708 l 678 53 b 626 0 678 14 665 0 l 472 0 b 421 53 433 0 421 14 l 421 494 l 315 494 l 315 53 b 263 0 315 14 301 0 l 110 0 "},"р":{"ha":728,"x_min":0,"x_max":0,"o":"m 106 -304 b 56 -251 69 -304 56 -292 l 56 614 b 106 696 56 661 63 674 b 368 743 153 719 249 743 b 689 428 582 743 689 635 l 689 278 b 389 -21 689 82 589 -21 b 314 -12 365 -21 336 -17 l 314 -251 b 265 -304 314 -292 303 -304 l 106 -304 m 367 204 b 431 272 411 204 431 225 l 431 442 b 367 519 431 494 411 519 b 321 514 346 519 338 518 b 315 504 317 513 315 508 l 315 211 b 367 204 333 206 347 204 "},"с":{"ha":682,"x_min":0,"x_max":0,"o":"m 349 -21 b 39 286 132 -21 39 96 l 39 438 b 363 743 39 625 138 743 b 653 550 528 743 618 657 b 619 476 667 508 658 486 l 485 440 b 414 479 444 429 428 438 b 351 526 400 521 376 526 b 297 451 314 526 297 499 l 297 271 b 349 196 297 224 311 196 b 418 250 376 196 404 208 b 488 286 433 292 447 299 l 619 246 b 654 171 658 233 672 214 b 349 -21 607 50 515 -21 "},"т":{"ha":639,"x_min":0,"x_max":0,"o":"m 243 0 b 190 53 204 0 190 14 l 190 494 l 69 494 b 17 549 31 494 17 508 l 17 669 b 69 722 17 708 31 722 l 571 722 b 622 669 610 722 622 708 l 622 549 b 571 494 622 508 610 494 l 449 494 l 449 53 b 396 0 449 14 436 0 l 243 0 "},"у":{"ha":743,"x_min":0,"x_max":0,"o":"m 374 -319 b 72 -182 224 -319 133 -274 b 99 -104 47 -144 65 -119 l 224 -44 b 293 -65 263 -26 278 -37 b 364 -107 307 -92 332 -107 b 425 -28 411 -107 425 -79 l 425 26 b 350 21 404 22 358 21 b 50 321 146 21 50 132 l 50 669 b 103 722 50 708 64 722 l 256 722 b 308 669 294 722 308 708 l 308 331 b 376 254 308 276 326 254 b 426 260 390 254 411 256 l 426 669 b 476 722 426 708 439 722 l 635 722 b 685 669 669 722 685 708 l 685 1 b 374 -319 685 -183 604 -319 "},"ф":{"ha":1029,"x_min":0,"x_max":0,"o":"m 439 -306 b 386 -253 399 -306 386 -292 l 386 -21 l 364 -21 b 38 310 142 -21 38 99 l 38 411 b 364 743 38 624 142 743 l 386 743 l 386 974 b 439 1028 386 1014 399 1028 l 592 1028 b 644 974 631 1028 644 1014 l 644 743 l 665 743 b 993 411 888 743 993 624 l 993 310 b 665 -21 993 99 888 -21 l 644 -21 l 644 -253 b 592 -306 644 -292 631 -306 l 439 -306 m 392 203 l 392 518 l 376 518 b 289 426 314 518 289 490 l 289 296 b 376 203 289 232 314 203 m 654 203 b 740 296 708 203 740 231 l 740 426 b 654 518 740 490 708 518 l 638 518 l 638 203 l 654 203 "},"х":{"ha":739,"x_min":0,"x_max":0,"o":"m 63 0 b 22 63 -4 0 -4 19 l 210 371 l 29 660 b 69 722 7 696 10 722 l 213 722 b 307 676 272 722 288 718 l 371 532 l 432 675 b 521 722 451 721 465 722 l 668 722 b 706 660 725 722 729 700 l 532 372 l 718 63 b 679 0 744 18 738 0 l 536 0 b 442 46 479 0 463 1 l 367 204 l 299 46 b 206 0 279 1 261 0 l 63 0 "},"ц":{"ha":786,"x_min":0,"x_max":0,"o":"m 569 -193 b 515 -140 531 -193 515 -179 l 515 0 l 110 0 b 57 53 71 0 57 14 l 57 669 b 110 722 57 708 71 722 l 263 722 b 315 669 303 722 315 708 l 315 228 l 421 228 l 421 669 b 472 722 421 708 433 722 l 626 722 b 678 669 665 722 678 708 l 678 228 l 710 228 b 763 172 750 228 763 214 l 763 -140 b 710 -193 763 -179 750 -193 l 569 -193 "},"ч":{"ha":704,"x_min":0,"x_max":0,"o":"m 440 0 b 388 53 401 0 388 14 l 388 208 b 283 201 367 206 325 201 b 32 474 115 201 32 300 l 32 669 b 85 722 32 708 46 722 l 238 722 b 290 669 278 722 290 708 l 290 496 b 347 429 290 451 300 429 b 388 436 369 429 383 433 l 388 669 b 440 722 388 708 401 722 l 593 722 b 646 669 633 722 646 708 l 646 53 b 593 0 646 14 633 0 l 440 0 "},"ш":{"ha":1049,"x_min":0,"x_max":0,"o":"m 110 0 b 57 53 71 0 57 14 l 57 669 b 110 722 57 708 71 722 l 263 722 b 315 669 301 722 315 708 l 315 228 l 397 228 l 397 669 b 450 722 397 708 410 722 l 599 722 b 651 669 638 722 651 708 l 651 228 l 733 228 l 733 669 b 786 722 733 708 746 722 l 939 722 b 992 669 978 722 992 708 l 992 53 b 939 0 992 14 978 0 l 110 0 "},"щ":{"ha":1097,"x_min":0,"x_max":0,"o":"m 879 -193 b 826 -140 840 -193 826 -179 l 826 0 l 110 0 b 57 53 71 0 57 14 l 57 669 b 110 722 57 708 71 722 l 263 722 b 315 669 301 722 315 708 l 315 228 l 394 228 l 394 669 b 447 722 394 708 407 722 l 600 722 b 653 669 639 722 653 708 l 653 228 l 732 228 l 732 669 b 785 722 732 708 744 722 l 938 722 b 990 669 976 722 990 708 l 990 228 l 1021 228 b 1074 172 1061 228 1074 214 l 1074 -140 b 1021 -193 1074 -179 1061 -193 l 879 -193 "},"ъ":{"ha":811,"x_min":0,"x_max":0,"o":"m 222 0 b 169 53 183 0 169 14 l 169 503 l 69 503 b 17 557 31 503 17 517 l 17 669 b 69 722 17 708 31 722 l 375 722 b 428 669 415 722 428 708 l 428 535 l 508 535 b 789 267 683 535 789 439 b 508 0 789 93 683 0 l 222 0 m 464 204 b 529 267 508 204 529 228 b 464 328 529 307 506 328 l 428 328 l 428 204 "},"ы":{"ha":1029,"x_min":0,"x_max":0,"o":"m 110 0 b 57 53 71 0 57 14 l 57 669 b 110 722 57 708 71 722 l 263 722 b 315 669 301 722 315 708 l 315 535 l 397 535 b 676 267 571 535 676 439 b 397 0 676 93 571 0 l 110 0 m 765 0 b 713 53 726 0 713 14 l 713 669 b 765 722 713 708 726 722 l 918 722 b 971 669 958 722 971 708 l 971 53 b 918 0 971 14 958 0 l 765 0 m 353 204 b 418 267 397 204 418 228 b 353 328 418 307 394 328 l 315 328 l 315 204 "},"ь":{"ha":700,"x_min":0,"x_max":0,"o":"m 110 0 b 57 53 71 0 57 14 l 57 669 b 110 722 57 708 71 722 l 263 722 b 315 669 301 722 315 708 l 315 535 l 397 535 b 676 267 571 535 676 439 b 397 0 676 93 571 0 l 110 0 m 353 204 b 418 267 397 204 418 228 b 353 328 418 307 394 328 l 315 328 l 315 204 "},"э":{"ha":682,"x_min":0,"x_max":0,"o":"m 333 -21 b 28 171 167 -21 75 50 b 63 246 10 214 24 233 l 188 286 b 257 250 228 299 242 292 b 332 199 271 208 304 199 b 385 263 369 199 385 215 l 385 271 l 311 272 b 263 319 275 272 263 283 l 263 408 b 311 456 263 444 275 456 l 385 456 l 385 461 b 329 526 385 506 367 526 b 254 481 304 526 268 522 b 185 442 240 439 225 431 l 63 476 b 29 550 24 488 15 508 b 319 743 64 657 154 743 b 643 438 544 743 643 625 l 643 286 b 333 -21 643 96 550 -21 "},"ю":{"ha":1050,"x_min":0,"x_max":0,"o":"m 683 -21 b 375 244 492 -21 375 75 l 375 253 l 315 253 l 315 53 b 264 0 315 14 301 0 l 107 0 b 57 53 68 0 57 14 l 57 669 b 107 722 57 708 68 722 l 264 722 b 315 669 301 722 315 708 l 315 481 l 376 481 l 376 488 b 683 743 376 649 499 743 b 1011 439 900 743 1011 628 l 1011 283 b 683 -21 1011 94 900 -21 m 683 203 b 751 276 728 203 751 228 l 751 446 b 683 521 751 494 728 521 b 619 446 642 521 619 494 l 619 276 b 683 203 619 228 642 203 "},"я":{"ha":738,"x_min":0,"x_max":0,"o":"m 79 0 b 36 71 17 0 11 24 l 146 269 b 44 469 81 310 44 372 b 307 722 44 633 146 722 l 628 722 b 681 669 668 722 681 708 l 681 53 b 628 0 681 14 668 0 l 475 0 b 422 53 435 0 422 14 l 422 214 l 386 214 l 314 51 b 211 0 294 8 274 0 l 79 0 m 421 415 l 421 522 l 357 522 b 304 468 324 522 304 500 b 357 415 304 436 324 415 "},"ё":{"ha":721,"x_min":0,"x_max":0,"o":"m 206 801 b 106 901 128 801 106 828 l 106 919 b 206 1018 106 994 128 1018 l 217 1018 b 318 919 293 1018 318 994 l 318 901 b 217 801 318 828 293 801 l 206 801 m 506 801 b 403 901 428 801 403 828 l 403 919 b 506 1018 403 994 428 1018 l 515 1018 b 615 919 592 1018 615 994 l 615 901 b 515 801 615 828 592 801 l 506 801 m 358 -21 b 38 294 126 -21 38 113 l 38 426 b 365 743 38 635 153 743 b 689 439 597 743 689 606 l 689 363 b 617 290 689 318 671 290 l 296 290 l 296 264 b 369 174 296 199 317 174 b 461 218 407 174 442 179 b 519 236 475 246 482 250 l 635 194 b 661 117 674 181 681 156 b 358 -21 615 25 518 -21 m 433 458 l 433 476 b 361 560 433 536 411 560 b 296 476 314 560 296 536 l 296 458 "}}}
